URWGothicL-DemiObli.ufo
<glyph name="exclam" format="1">
  <advance width="280"/>
  <unicode hex="0021"/>
  <outline>
    <contour>
      <point x="107" y="188" type="line"/>
      <point x="209" y="739" type="line"/>
      <point x="342" y="739" type="line"/>
      <point x="240" y="188" type="line"/>
    </contour>
    <contour>
      <point x="72" y="0" type="line"/>
      <point x="96" y="128" type="line"/>
      <point x="229" y="128" type="line"/>
      <point x="205" y="0" type="line"/>
    </contour>
  </outline>
</glyph>
<glyph name="quotedbl" format="1">
  <advance width="360"/>
  <unicode hex="0022"/>
  <outline>
    <contour>
      <point x="245" y="513" type="line"/>
      <point x="169" y="513" type="line"/>
      <point x="211" y="739" type="line"/>
      <point x="287" y="739" type="line"/>
    </contour>
    <contour>
      <point x="378" y="513" type="line"/>
      <point x="302" y="513" type="line"/>
      <point x="344" y="739" type="line"/>
      <point x="420" y="739" type="line"/>
    </contour>
  </outline>
</glyph>
<glyph name="numbersign" format="1">
  <advance width="560"/>
  <unicode hex="0023"/>
  <outline>
    <contour>
      <point x="338" y="739" type="line"/>
      <point x="429" y="739" type="line"/>
      <point x="359" y="522" type="line"/>
      <point x="443" y="522" type="line"/>
      <point x="513" y="739" type="line"/>
      <point x="602" y="739" type="line"/>
      <point x="533" y="522" type="line"/>
      <point x="623" y="522" type="line"/>
      <point x="605" y="422" type="line"/>
      <point x="502" y="422" type="line"/>
      <point x="474" y="333" type="line"/>
      <point x="562" y="333" type="line"/>
      <point x="543" y="233" type="line"/>
      <point x="441" y="233" type="line"/>
      <point x="366" y="0" type="line"/>
      <point x="275" y="0" type="line"/>
      <point x="351" y="233" type="line"/>
      <point x="267" y="233" type="line"/>
      <point x="192" y="0" type="line"/>
      <point x="101" y="0" type="line"/>
      <point x="176" y="233" type="line"/>
      <point x="77" y="233" type="line"/>
      <point x="96" y="333" type="line"/>
      <point x="207" y="333" type="line"/>
      <point x="236" y="422" type="line"/>
      <point x="141" y="422" type="line"/>
      <point x="159" y="522" type="line"/>
      <point x="268" y="522" type="line"/>
    </contour>
    <contour>
      <point x="327" y="422" type="line"/>
      <point x="298" y="333" type="line"/>
      <point x="383" y="333" type="line"/>
      <point x="411" y="422" type="line"/>
    </contour>
  </outline>
</glyph>
<glyph name="ampersand" format="1">
  <advance width="680"/>
  <unicode hex="0026"/>
  <outline>
    <contour>
      <point x="592" y="433" type="line"/>
      <point x="741" y="433" type="line"/>
      <point x="572" y="213" type="line"/>
      <point x="678" y="72" type="line"/>
      <point x="567" y="-13" type="line"/>
      <point x="483" y="98" type="line"/>
      <point x="405" y="14"/>
      <point x="354" y="-13"/>
      <point x="275" y="-13" type="curve" smooth="yes"/>
      <point x="155" y="-13"/>
      <point x="71" y="66"/>
      <point x="71" y="179" type="curve" smooth="yes"/>
      <point x="71" y="235"/>
      <point x="93" y="295"/>
      <point x="128" y="338" type="curve" smooth="yes"/>
      <point x="157" y="374"/>
      <point x="197" y="403"/>
      <point x="255" y="433" type="curve"/>
      <point x="222" y="478"/>
      <point x="214" y="498"/>
      <point x="214" y="534" type="curve" smooth="yes"/>
      <point x="214" y="648"/>
      <point x="320" y="752"/>
      <point x="437" y="752" type="curve" smooth="yes"/>
      <point x="530" y="752"/>
      <point x="598" y="693"/>
      <point x="598" y="611" type="curve" smooth="yes"/>
      <point x="598" y="563"/>
      <point x="586" y="523"/>
      <point x="560" y="485" type="curve" smooth="yes"/>
      <point x="533" y="445"/>
      <point x="517" y="431"/>
      <point x="445" y="389" type="curve"/>
      <point x="499" y="313" type="line"/>
    </contour>
    <contour>
      <point x="379" y="481" type="curve"/>
      <point x="387" y="485" type="line"/>
      <point x="402" y="491"/>
      <point x="415" y="499"/>
      <point x="429" y="509" type="curve" smooth="yes"/>
      <point x="457" y="530"/>
      <point x="468" y="550"/>
      <point x="468" y="584" type="curve" smooth="yes"/>
      <point x="468" y="608"/>
      <point x="446" y="627"/>
      <point x="417" y="627" type="curve" smooth="yes"/>
      <point x="377" y="627"/>
      <point x="342" y="592"/>
      <point x="342" y="552" type="curve" smooth="yes"/>
      <point x="342" y="531"/>
      <point x="352" y="512"/>
    </contour>
    <contour>
      <point x="409" y="198" type="curve"/>
      <point x="317" y="322" type="line"/>
      <point x="271" y="302"/>
      <point x="260" y="296"/>
      <point x="240" y="275" type="curve" smooth="yes"/>
      <point x="215" y="249"/>
      <point x="205" y="227"/>
      <point x="205" y="198" type="curve" smooth="yes"/>
      <point x="205" y="150"/>
      <point x="238" y="119"/>
      <point x="290" y="119" type="curve" smooth="yes"/>
      <point x="335" y="119"/>
      <point x="372" y="144"/>
    </contour>
  </outline>
</glyph>
<glyph name="quotesingle" format="1">
  <advance width="220"/>
  <unicode hex="0027"/>
  <outline>
    <contour>
      <point x="245" y="513" type="line"/>
      <point x="169" y="513" type="line"/>
      <point x="211" y="739" type="line"/>
      <point x="287" y="739" type="line"/>
    </contour>
  </outline>
</glyph>
<glyph name="parenleft" format="1">
  <advance width="380"/>
  <unicode hex="0028"/>
  <outline>
    <contour>
      <point x="350" y="8" type="curve"/>
      <point x="323" y="-137" type="line"/>
      <point x="271" y="-119"/>
      <point x="235" y="-91"/>
      <point x="196" y="-38" type="curve" smooth="yes"/>
      <point x="152" y="23"/>
      <point x="122" y="124"/>
      <point x="122" y="212" type="curve" smooth="yes"/>
      <point x="122" y="351"/>
      <point x="195" y="516"/>
      <point x="304" y="623" type="curve" smooth="yes"/>
      <point x="358" y="677"/>
      <point x="402" y="705"/>
      <point x="486" y="739" type="curve"/>
      <point x="459" y="595" type="line"/>
      <point x="331" y="504"/>
      <point x="259" y="373"/>
      <point x="259" y="229" type="curve" smooth="yes"/>
      <point x="259" y="138"/>
      <point x="296" y="47"/>
    </contour>
  </outline>
</glyph>
<glyph name="parenright" format="1">
  <advance width="380"/>
  <unicode hex="0029"/>
  <outline>
    <contour>
      <point x="148" y="594" type="curve"/>
      <point x="175" y="739" type="line"/>
      <point x="230" y="720"/>
      <point x="264" y="694"/>
      <point x="303" y="639" type="curve" smooth="yes"/>
      <point x="350" y="572"/>
      <point x="377" y="485"/>
      <point x="377" y="395" type="curve" smooth="yes"/>
      <point x="377" y="246"/>
      <point x="308" y="88"/>
      <point x="195" y="-21" type="curve" smooth="yes"/>
      <point x="140" y="-74"/>
      <point x="89" y="-106"/>
      <point x="13" y="-137" type="curve"/>
      <point x="40" y="7" type="line"/>
      <point x="166" y="96"/>
      <point x="240" y="232"/>
      <point x="240" y="376" type="curve" smooth="yes"/>
      <point x="240" y="462"/>
      <point x="201" y="556"/>
    </contour>
  </outline>
</glyph>
<glyph name="period" format="1">
  <advance width="280"/>
  <unicode hex="002E"/>
  <outline>
    <contour>
      <point x="72" y="0" type="line"/>
      <point x="96" y="128" type="line"/>
      <point x="230" y="128" type="line"/>
      <point x="206" y="0" type="line"/>
    </contour>
  </outline>
</glyph>
<glyph name="one" format="1">
  <advance width="560"/>
  <unicode hex="0031"/>
  <outline>
    <contour>
      <point x="246" y="0" type="line"/>
      <point x="360" y="614" type="line"/>
      <point x="267" y="614" type="line"/>
      <point x="290" y="739" type="line"/>
      <point x="516" y="739" type="line"/>
      <point x="379" y="0" type="line"/>
    </contour>
  </outline>
</glyph>
<glyph name="two" format="1">
  <advance width="560"/>
  <unicode hex="0032"/>
  <outline>
    <contour>
      <point x="42" y="0" type="line"/>
      <point x="64" y="117" type="line"/>
      <point x="370" y="366" type="line" smooth="yes"/>
      <point x="449" y="430"/>
      <point x="482" y="481"/>
      <point x="482" y="538" type="curve" smooth="yes"/>
      <point x="482" y="593"/>
      <point x="448" y="630"/>
      <point x="398" y="630" type="curve" smooth="yes"/>
      <point x="328" y="630"/>
      <point x="279" y="580"/>
      <point x="255" y="484" type="curve"/>
      <point x="124" y="484" type="line"/>
      <point x="143" y="569"/>
      <point x="157" y="602"/>
      <point x="192" y="644" type="curve" smooth="yes"/>
      <point x="249" y="713"/>
      <point x="332" y="752"/>
      <point x="419" y="752" type="curve" smooth="yes"/>
      <point x="538" y="752"/>
      <point x="619" y="675"/>
      <point x="619" y="561" type="curve" smooth="yes"/>
      <point x="619" y="500"/>
      <point x="599" y="439"/>
      <point x="561" y="389" type="curve" smooth="yes"/>
      <point x="532" y="350"/>
      <point x="496" y="316"/>
      <point x="426" y="262" type="curve" smooth="yes"/>
      <point x="249" y="125" type="line"/>
      <point x="540" y="125" type="line"/>
      <point x="517" y="0" type="line"/>
    </contour>
  </outline>
</glyph>
<glyph name="four" format="1">
  <advance width="560"/>
  <unicode hex="0034"/>
  <outline>
    <contour>
      <point x="40" y="218" type="line"/>
      <point x="477" y="739" type="line"/>
      <point x="589" y="739" type="line"/>
      <point x="495" y="229" type="line"/>
      <point x="573" y="229" type="line"/>
      <point x="551" y="111" type="line"/>
      <point x="473" y="111" type="line"/>
      <point x="452" y="0" type="line"/>
      <point x="319" y="0" type="line"/>
      <point x="340" y="111" type="line"/>
      <point x="20" y="111" type="line"/>
    </contour>
    <contour>
      <point x="362" y="229" type="line"/>
      <point x="415" y="515" type="line"/>
      <point x="178" y="229" type="line"/>
    </contour>
  </outline>
</glyph>
<glyph name="seven" format="1">
  <advance width="560"/>
  <unicode hex="0037"/>
  <outline>
    <contour>
      <point x="85" y="0" type="line"/>
      <point x="473" y="614" type="line"/>
      <point x="180" y="614" type="line"/>
      <point x="203" y="739" type="line"/>
      <point x="637" y="739" type="line"/>
      <point x="614" y="614" type="line"/>
      <point x="234" y="0" type="line"/>
    </contour>
  </outline>
</glyph>
<glyph name="nine" format="1">
  <advance width="560"/>
  <unicode hex="0039"/>
  <outline>
    <contour>
      <point x="267" y="0" type="line"/>
      <point x="108" y="0" type="line"/>
      <point x="335" y="263" type="line"/>
      <point x="309" y="254"/>
      <point x="294" y="251"/>
      <point x="272" y="251" type="curve" smooth="yes"/>
      <point x="173" y="251"/>
      <point x="108" y="325"/>
      <point x="108" y="437" type="curve" smooth="yes"/>
      <point x="108" y="503"/>
      <point x="136" y="578"/>
      <point x="182" y="637" type="curve" smooth="yes"/>
      <point x="240" y="712"/>
      <point x="321" y="752"/>
      <point x="414" y="752" type="curve" smooth="yes"/>
      <point x="539" y="752"/>
      <point x="628" y="669"/>
      <point x="628" y="554" type="curve" smooth="yes"/>
      <point x="628" y="464"/>
      <point x="593" y="383"/>
      <point x="514" y="290" type="curve" smooth="yes"/>
    </contour>
    <contour>
      <point x="390" y="630" type="curve" smooth="yes"/>
      <point x="346" y="630"/>
      <point x="303" y="607"/>
      <point x="279" y="572" type="curve" smooth="yes"/>
      <point x="260" y="545"/>
      <point x="245" y="499"/>
      <point x="245" y="469" type="curve" smooth="yes"/>
      <point x="245" y="410"/>
      <point x="286" y="368"/>
      <point x="343" y="368" type="curve" smooth="yes"/>
      <point x="426" y="368"/>
      <point x="491" y="439"/>
      <point x="491" y="530" type="curve" smooth="yes"/>
      <point x="491" y="590"/>
      <point x="450" y="630"/>
    </contour>
  </outline>
</glyph>
<glyph name="colon" format="1">
  <advance width="280"/>
  <unicode hex="003A"/>
  <outline>
    <contour>
      <point x="140" y="374" type="line"/>
      <point x="164" y="502" type="line"/>
      <point x="298" y="502" type="line"/>
      <point x="274" y="374" type="line"/>
    </contour>
    <contour>
      <point x="72" y="0" type="line"/>
      <point x="96" y="128" type="line"/>
      <point x="230" y="128" type="line"/>
      <point x="206" y="0" type="line"/>
    </contour>
  </outline>
</glyph>
<glyph name="equal" format="1">
  <advance width="600"/>
  <unicode hex="003D"/>
  <outline>
    <contour>
      <point x="643" y="524" type="line"/>
      <point x="621" y="406" type="line"/>
      <point x="117" y="406" type="line"/>
      <point x="139" y="524" type="line"/>
    </contour>
    <contour>
      <point x="607" y="328" type="line"/>
      <point x="585" y="210" type="line"/>
      <point x="81" y="210" type="line"/>
      <point x="103" y="328" type="line"/>
    </contour>
  </outline>
</glyph>
<glyph name="at" format="1">
  <advance width="740"/>
  <unicode hex="0040"/>
  <outline>
    <contour>
      <point x="688" y="573" type="line"/>
      <point x="599" y="278" type="line" smooth="yes"/>
      <point x="598" y="274"/>
      <point x="595" y="256"/>
      <point x="595" y="253" type="curve" smooth="yes"/>
      <point x="595" y="243"/>
      <point x="604" y="237"/>
      <point x="619" y="237" type="curve" smooth="yes"/>
      <point x="648" y="237"/>
      <point x="679" y="258"/>
      <point x="708" y="298" type="curve" smooth="yes"/>
      <point x="742" y="343"/>
      <point x="763" y="412"/>
      <point x="763" y="476" type="curve" smooth="yes"/>
      <point x="763" y="608"/>
      <point x="668" y="693"/>
      <point x="522" y="693" type="curve" smooth="yes"/>
      <point x="310" y="693"/>
      <point x="132" y="517"/>
      <point x="132" y="307" type="curve" smooth="yes"/>
      <point x="132" y="229"/>
      <point x="170" y="152"/>
      <point x="231" y="110" type="curve" smooth="yes"/>
      <point x="275" y="80"/>
      <point x="345" y="60"/>
      <point x="410" y="60" type="curve" smooth="yes"/>
      <point x="470" y="60"/>
      <point x="517" y="74"/>
      <point x="572" y="107" type="curve"/>
      <point x="607" y="47" type="line"/>
      <point x="532" y="2"/>
      <point x="481" y="-13"/>
      <point x="398" y="-13" type="curve" smooth="yes"/>
      <point x="300" y="-13"/>
      <point x="224" y="12"/>
      <point x="165" y="64" type="curve" smooth="yes"/>
      <point x="102" y="120"/>
      <point x="64" y="206"/>
      <point x="64" y="294" type="curve" smooth="yes"/>
      <point x="64" y="548"/>
      <point x="279" y="766"/>
      <point x="530" y="766" type="curve" smooth="yes"/>
      <point x="634" y="766"/>
      <point x="728" y="726"/>
      <point x="780" y="658" type="curve" smooth="yes"/>
      <point x="815" y="613"/>
      <point x="831" y="558"/>
      <point x="831" y="483" type="curve" smooth="yes"/>
      <point x="831" y="365"/>
      <point x="793" y="273"/>
      <point x="721" y="213" type="curve" smooth="yes"/>
      <point x="676" y="176"/>
      <point x="617" y="154"/>
      <point x="565" y="154" type="curve" smooth="yes"/>
      <point x="511" y="154"/>
      <point x="480" y="173"/>
      <point x="475" y="208" type="curve"/>
      <point x="443" y="171"/>
      <point x="405" y="154"/>
      <point x="350" y="154" type="curve" smooth="yes"/>
      <point x="268" y="154"/>
      <point x="217" y="207"/>
      <point x="217" y="292" type="curve" smooth="yes"/>
      <point x="217" y="445"/>
      <point x="333" y="577"/>
      <point x="468" y="577" type="curve" smooth="yes"/>
      <point x="521" y="577"/>
      <point x="552" y="560"/>
      <point x="574" y="519" type="curve"/>
      <point x="591" y="573" type="line"/>
    </contour>
    <contour>
      <point x="468" y="465" type="curve" smooth="yes"/>
      <point x="401" y="465"/>
      <point x="341" y="400"/>
      <point x="341" y="328" type="curve" smooth="yes"/>
      <point x="341" y="285"/>
      <point x="365" y="260"/>
      <point x="406" y="260" type="curve" smooth="yes"/>
      <point x="470" y="260"/>
      <point x="528" y="326"/>
      <point x="528" y="398" type="curve" smooth="yes"/>
      <point x="528" y="441"/>
      <point x="506" y="465"/>
    </contour>
  </outline>
</glyph>
<glyph name="B" format="1">
  <advance width="580"/>
  <unicode hex="0042"/>
  <outline>
    <contour>
      <point x="68" y="0" type="line"/>
      <point x="205" y="739" type="line"/>
      <point x="358" y="739" type="line" smooth="yes"/>
      <point x="470" y="739"/>
      <point x="510" y="732"/>
      <point x="549" y="704" type="curve" smooth="yes"/>
      <point x="587" y="676"/>
      <point x="607" y="633"/>
      <point x="607" y="580" type="curve" smooth="yes"/>
      <point x="607" y="535"/>
      <point x="592" y="490"/>
      <point x="567" y="456" type="curve" smooth="yes"/>
      <point x="549" y="432"/>
      <point x="532" y="419"/>
      <point x="497" y="403" type="curve"/>
      <point x="567" y="373"/>
      <point x="593" y="334"/>
      <point x="593" y="264" type="curve" smooth="yes"/>
      <point x="593" y="194"/>
      <point x="561" y="123"/>
      <point x="507" y="75" type="curve" smooth="yes"/>
      <point x="450" y="24"/>
      <point x="374" y="0"/>
      <point x="265" y="0" type="curve" smooth="yes"/>
    </contour>
    <contour>
      <point x="229" y="132" type="line"/>
      <point x="297" y="132" type="line" smooth="yes"/>
      <point x="367" y="132"/>
      <point x="400" y="142"/>
      <point x="426" y="172" type="curve" smooth="yes"/>
      <point x="444" y="192"/>
      <point x="453" y="216"/>
      <point x="453" y="241" type="curve" smooth="yes"/>
      <point x="453" y="297"/>
      <point x="416" y="320"/>
      <point x="329" y="320" type="curve" smooth="yes"/>
      <point x="264" y="320" type="line"/>
    </contour>
    <contour>
      <point x="289" y="454" type="line"/>
      <point x="333" y="454" type="line" smooth="yes"/>
      <point x="387" y="454"/>
      <point x="426" y="465"/>
      <point x="444" y="485" type="curve" smooth="yes"/>
      <point x="457" y="500"/>
      <point x="467" y="528"/>
      <point x="467" y="549" type="curve" smooth="yes"/>
      <point x="467" y="587"/>
      <point x="434" y="607"/>
      <point x="373" y="607" type="curve" smooth="yes"/>
      <point x="317" y="607" type="line"/>
    </contour>
  </outline>
</glyph>
<glyph name="F" format="1">
  <advance width="480"/>
  <unicode hex="0046"/>
  <outline>
    <contour>
      <point x="68" y="0" type="line"/>
      <point x="205" y="739" type="line"/>
      <point x="581" y="739" type="line"/>
      <point x="557" y="607" type="line"/>
      <point x="318" y="607" type="line"/>
      <point x="285" y="435" type="line"/>
      <point x="513" y="435" type="line"/>
      <point x="489" y="303" type="line"/>
      <point x="261" y="303" type="line"/>
      <point x="205" y="0" type="line"/>
    </contour>
  </outline>
</glyph>
<glyph name="T" format="1">
  <advance width="420"/>
  <unicode hex="0054"/>
  <outline>
    <contour>
      <point x="142" y="0" type="line"/>
      <point x="255" y="607" type="line"/>
      <point x="119" y="607" type="line"/>
      <point x="143" y="739" type="line"/>
      <point x="555" y="739" type="line"/>
      <point x="531" y="607" type="line"/>
      <point x="392" y="607" type="line"/>
      <point x="279" y="0" type="line"/>
    </contour>
  </outline>
</glyph>
<glyph name="W" format="1">
  <advance width="900"/>
  <unicode hex="0057"/>
  <outline>
    <contour>
      <point x="224" y="0" type="line"/>
      <point x="144" y="739" type="line"/>
      <point x="284" y="739" type="line"/>
      <point x="318" y="223" type="line"/>
      <point x="540" y="739" type="line"/>
      <point x="640" y="739" type="line"/>
      <point x="668" y="223" type="line"/>
      <point x="895" y="739" type="line"/>
      <point x="1035" y="739" type="line"/>
      <point x="682" y="0" type="line"/>
      <point x="573" y="0" type="line"/>
      <point x="545" y="489" type="line"/>
      <point x="332" y="0" type="line"/>
    </contour>
  </outline>
</glyph>
<glyph name="bracketleft" format="1">
  <advance width="320"/>
  <unicode hex="005B"/>
  <outline>
    <contour>
      <point x="429" y="739" type="curve"/>
      <point x="402" y="592" type="line"/>
      <point x="335" y="566"/>
      <point x="308" y="525"/>
      <point x="289" y="419" type="curve" smooth="yes"/>
      <point x="241" y="164" type="line" smooth="yes"/>
      <point x="238" y="146"/>
      <point x="236" y="128"/>
      <point x="236" y="108" type="curve" smooth="yes"/>
      <point x="236" y="55"/>
      <point x="250" y="31"/>
      <point x="294" y="10" type="curve"/>
      <point x="267" y="-137" type="line"/>
      <point x="212" y="-124"/>
      <point x="184" y="-108"/>
      <point x="151" y="-70" type="curve" smooth="yes"/>
      <point x="116" y="-29"/>
      <point x="100" y="16"/>
      <point x="100" y="73" type="curve" smooth="yes"/>
      <point x="100" y="109"/>
      <point x="104" y="148"/>
      <point x="111" y="187" type="curve" smooth="yes"/>
      <point x="159" y="446" type="line"/>
      <point x="186" y="600"/>
      <point x="281" y="703"/>
    </contour>
  </outline>
</glyph>
<glyph name="backslash" format="1">
  <advance width="640"/>
  <unicode hex="005C"/>
  <outline>
    <contour>
      <point x="503" y="0" type="line"/>
      <point x="407" y="0" type="line"/>
      <point x="221" y="739" type="line"/>
      <point x="317" y="739" type="line"/>
    </contour>
  </outline>
</glyph>
<glyph name="asciicircum" format="1">
  <advance width="600"/>
  <unicode hex="005E"/>
  <outline>
    <contour>
      <point x="375" y="750" type="line"/>
      <point x="496" y="750" type="line"/>
      <point x="610" y="358" type="line"/>
      <point x="495" y="325" type="line"/>
      <point x="412" y="595" type="line"/>
      <point x="228" y="324" type="line"/>
      <point x="130" y="379" type="line"/>
    </contour>
  </outline>
</glyph>
<glyph name="grave" format="1">
  <advance width="420"/>
  <unicode hex="0060"/>
  <outline>
    <contour>
      <point x="211" y="741" type="line"/>
      <point x="281" y="832" type="line"/>
      <point x="484" y="702" type="line"/>
      <point x="417" y="617" type="line"/>
    </contour>
  </outline>
</glyph>
<glyph name="a" format="1">
  <advance width="660"/>
  <unicode hex="0061"/>
  <outline>
    <contour>
      <point x="718" y="554" type="line"/>
      <point x="616" y="0" type="line"/>
      <point x="494" y="0" type="line"/>
      <point x="507" y="72" type="line"/>
      <point x="445" y="13"/>
      <point x="385" y="-13"/>
      <point x="307" y="-13" type="curve" smooth="yes"/>
      <point x="167" y="-13"/>
      <point x="75" y="77"/>
      <point x="75" y="213" type="curve" smooth="yes"/>
      <point x="75" y="406"/>
      <point x="232" y="567"/>
      <point x="420" y="567" type="curve" smooth="yes"/>
      <point x="498" y="567"/>
      <point x="551" y="539"/>
      <point x="583" y="480" type="curve"/>
      <point x="596" y="554" type="line"/>
    </contour>
    <contour>
      <point x="410" y="445" type="curve" smooth="yes"/>
      <point x="304" y="445"/>
      <point x="212" y="350"/>
      <point x="212" y="240" type="curve" smooth="yes"/>
      <point x="212" y="160"/>
      <point x="265" y="109"/>
      <point x="347" y="109" type="curve" smooth="yes"/>
      <point x="416" y="109"/>
      <point x="469" y="137"/>
      <point x="507" y="191" type="curve"/>
      <point x="530" y="226"/>
      <point x="544" y="271"/>
      <point x="544" y="313" type="curve" smooth="yes"/>
      <point x="544" y="394"/>
      <point x="492" y="445"/>
    </contour>
  </outline>
</glyph>
<glyph name="h" format="1">
  <advance width="600"/>
  <unicode hex="0068"/>
  <outline>
    <contour>
      <point x="54" y="0" type="line"/>
      <point x="191" y="739" type="line"/>
      <point x="324" y="739" type="line"/>
      <point x="283" y="516" type="line"/>
      <point x="325" y="551"/>
      <point x="375" y="568"/>
      <point x="432" y="568" type="curve" smooth="yes"/>
      <point x="542" y="568"/>
      <point x="613" y="505"/>
      <point x="613" y="408" type="curve" smooth="yes"/>
      <point x="613" y="381"/>
      <point x="610" y="349"/>
      <point x="603" y="313" type="curve" smooth="yes"/>
      <point x="545" y="0" type="line"/>
      <point x="412" y="0" type="line"/>
      <point x="464" y="283" type="line" smooth="yes"/>
      <point x="470" y="315"/>
      <point x="473" y="343"/>
      <point x="473" y="364" type="curve" smooth="yes"/>
      <point x="473" y="416"/>
      <point x="441" y="446"/>
      <point x="386" y="446" type="curve" smooth="yes"/>
      <point x="342" y="446"/>
      <point x="304" y="427"/>
      <point x="278" y="393" type="curve"/>
      <point x="261" y="369"/>
      <point x="249" y="336"/>
      <point x="239" y="281" type="curve" smooth="yes"/>
      <point x="187" y="0" type="line"/>
    </contour>
  </outline>
</glyph>
<glyph name="p" format="1">
  <advance width="660"/>
  <unicode hex="0070"/>
  <outline>
    <contour>
      <point x="20" y="-185" type="line"/>
      <point x="157" y="554" type="line"/>
      <point x="279" y="554" type="line"/>
      <point x="267" y="489" type="line"/>
      <point x="314" y="538"/>
      <point x="388" y="567"/>
      <point x="462" y="567" type="curve" smooth="yes"/>
      <point x="544" y="567"/>
      <point x="603" y="541"/>
      <point x="647" y="484" type="curve" smooth="yes"/>
      <point x="678" y="443"/>
      <point x="691" y="402"/>
      <point x="691" y="344" type="curve" smooth="yes"/>
      <point x="691" y="148"/>
      <point x="540" y="-13"/>
      <point x="355" y="-13" type="curve" smooth="yes"/>
      <point x="287" y="-13"/>
      <point x="238" y="7"/>
      <point x="197" y="52" type="curve"/>
      <point x="153" y="-185" type="line"/>
    </contour>
    <contour>
      <point x="423" y="445" type="curve" smooth="yes"/>
      <point x="318" y="445"/>
      <point x="227" y="350"/>
      <point x="227" y="241" type="curve" smooth="yes"/>
      <point x="227" y="165"/>
      <point x="284" y="109"/>
      <point x="363" y="109" type="curve" smooth="yes"/>
      <point x="419" y="109"/>
      <point x="477" y="140"/>
      <point x="513" y="190" type="curve"/>
      <point x="536" y="224"/>
      <point x="554" y="274"/>
      <point x="554" y="309" type="curve" smooth="yes"/>
      <point x="554" y="338"/>
      <point x="541" y="379"/>
      <point x="524" y="401" type="curve" smooth="yes"/>
      <point x="504" y="427"/>
      <point x="462" y="445"/>
    </contour>
  </outline>
</glyph>
<glyph name="q" format="1">
  <advance width="660"/>
  <unicode hex="0071"/>
  <outline>
    <contour>
      <point x="592" y="554" type="line"/>
      <point x="714" y="554" type="line"/>
      <point x="577" y="-185" type="line"/>
      <point x="444" y="-185" type="line"/>
      <point x="488" y="53" type="line"/>
      <point x="440" y="11"/>
      <point x="374" y="-13"/>
      <point x="306" y="-13" type="curve" smooth="yes"/>
      <point x="170" y="-13"/>
      <point x="77" y="83"/>
      <point x="77" y="223" type="curve" smooth="yes"/>
      <point x="77" y="404"/>
      <point x="237" y="567"/>
      <point x="416" y="567" type="curve" smooth="yes"/>
      <point x="463" y="567"/>
      <point x="500" y="556"/>
      <point x="534" y="534" type="curve" smooth="yes"/>
      <point x="556" y="519"/>
      <point x="565" y="509"/>
      <point x="578" y="483" type="curve"/>
    </contour>
    <contour>
      <point x="410" y="445" type="curve" smooth="yes"/>
      <point x="304" y="445"/>
      <point x="214" y="353"/>
      <point x="214" y="243" type="curve" smooth="yes"/>
      <point x="214" y="161"/>
      <point x="265" y="109"/>
      <point x="346" y="109" type="curve" smooth="yes"/>
      <point x="449" y="109"/>
      <point x="540" y="202"/>
      <point x="540" y="307" type="curve" smooth="yes"/>
      <point x="540" y="390"/>
      <point x="488" y="445"/>
    </contour>
  </outline>
</glyph>
<glyph name="t" format="1">
  <advance width="300"/>
  <unicode hex="0074"/>
  <outline>
    <contour>
      <point x="74" y="0" type="line"/>
      <point x="154" y="433" type="line"/>
      <point x="89" y="433" type="line"/>
      <point x="112" y="554" type="line"/>
      <point x="177" y="554" type="line"/>
      <point x="211" y="739" type="line"/>
      <point x="344" y="739" type="line"/>
      <point x="310" y="554" type="line"/>
      <point x="390" y="554" type="line"/>
      <point x="367" y="433" type="line"/>
      <point x="287" y="433" type="line"/>
      <point x="207" y="0" type="line"/>
    </contour>
  </outline>
</glyph>
<glyph name="v" format="1">
  <advance width="560"/>
  <unicode hex="0076"/>
  <outline>
    <contour>
      <point x="224" y="0" type="line"/>
      <point x="104" y="554" type="line"/>
      <point x="252" y="554" type="line"/>
      <point x="312" y="187" type="line"/>
      <point x="506" y="554" type="line"/>
      <point x="656" y="554" type="line"/>
      <point x="330" y="0" type="line"/>
    </contour>
  </outline>
</glyph>
<glyph name="w" format="1">
  <advance width="800"/>
  <unicode hex="0077"/>
  <outline>
    <contour>
      <point x="208" y="0" type="line"/>
      <point x="113" y="554" type="line"/>
      <point x="256" y="554" type="line"/>
      <point x="292" y="216" type="line"/>
      <point x="448" y="554" type="line"/>
      <point x="554" y="554" type="line"/>
      <point x="582" y="216" type="line"/>
      <point x="746" y="554" type="line"/>
      <point x="888" y="554" type="line"/>
      <point x="585" y="0" type="line"/>
      <point x="502" y="0" type="line"/>
      <point x="464" y="359" type="line"/>
      <point x="290" y="0" type="line"/>
    </contour>
  </outline>
</glyph>
<glyph name="braceleft" format="1">
  <advance width="340"/>
  <unicode hex="007B"/>
  <outline>
    <contour>
      <point x="330" y="557" type="line"/>
      <point x="307" y="434" type="line"/>
      <point x="296" y="363"/>
      <point x="260" y="319"/>
      <point x="203" y="308" type="curve" smooth="yes"/>
      <point x="201" y="308"/>
      <point x="198" y="307"/>
      <point x="193" y="305" type="curve"/>
      <point x="244" y="294"/>
      <point x="264" y="271"/>
      <point x="264" y="223" type="curve" smooth="yes"/>
      <point x="264" y="206"/>
      <point x="263" y="191"/>
      <point x="260" y="177" type="curve" smooth="yes"/>
      <point x="237" y="54" type="line" smooth="yes"/>
      <point x="234" y="37"/>
      <point x="231" y="23"/>
      <point x="230" y="12" type="curve" smooth="yes"/>
      <point x="227" y="-6" type="line"/>
      <point x="230" y="-21" type="line" smooth="yes"/>
      <point x="232" y="-35"/>
      <point x="256" y="-45"/>
      <point x="293" y="-48" type="curve"/>
      <point x="278" y="-128" type="line"/>
      <point x="264" y="-129"/>
      <point x="254" y="-129"/>
      <point x="246" y="-129" type="curve" smooth="yes"/>
      <point x="158" y="-129"/>
      <point x="119" y="-100"/>
      <point x="119" y="-34" type="curve" smooth="yes"/>
      <point x="119" y="-25"/>
      <point x="121" y="-4"/>
      <point x="124" y="10" type="curve" smooth="yes"/>
      <point x="153" y="167" type="line" smooth="yes"/>
      <point x="156" y="181"/>
      <point x="157" y="193"/>
      <point x="157" y="201" type="curve" smooth="yes"/>
      <point x="157" y="235"/>
      <point x="136" y="256"/>
      <point x="94" y="265" type="curve"/>
      <point x="109" y="346" type="line"/>
      <point x="171" y="360"/>
      <point x="195" y="386"/>
      <point x="204" y="444" type="curve"/>
      <point x="233" y="601" type="line" smooth="yes"/>
      <point x="251" y="699"/>
      <point x="303" y="740"/>
      <point x="408" y="740" type="curve" smooth="yes"/>
      <point x="415" y="740"/>
      <point x="425" y="740"/>
      <point x="439" y="739" type="curve"/>
      <point x="424" y="659" type="line"/>
      <point x="383" y="654"/>
      <point x="372" y="650"/>
      <point x="356" y="635" type="curve" smooth="yes"/>
      <point x="350" y="629"/>
      <point x="346" y="621"/>
      <point x="343" y="611" type="curve" smooth="yes"/>
    </contour>
  </outline>
</glyph>
<glyph name="braceright" format="1">
  <advance width="340"/>
  <unicode hex="007D"/>
  <outline>
    <contour>
      <point x="123" y="54" type="curve" smooth="yes"/>
      <point x="146" y="177" type="line" smooth="yes"/>
      <point x="161" y="253"/>
      <point x="191" y="290"/>
      <point x="251" y="303" type="curve" smooth="yes"/>
      <point x="252" y="303"/>
      <point x="255" y="304"/>
      <point x="260" y="306" type="curve"/>
      <point x="208" y="319"/>
      <point x="189" y="342"/>
      <point x="189" y="391" type="curve" smooth="yes"/>
      <point x="189" y="406"/>
      <point x="190" y="420"/>
      <point x="193" y="434" type="curve" smooth="yes"/>
      <point x="216" y="557" type="line" smooth="yes"/>
      <point x="218" y="569"/>
      <point x="221" y="582"/>
      <point x="221" y="582" type="curve" smooth="yes"/>
      <point x="224" y="596"/>
      <point x="226" y="607"/>
      <point x="226" y="613" type="curve" smooth="yes"/>
      <point x="226" y="643"/>
      <point x="215" y="651"/>
      <point x="160" y="659" type="curve"/>
      <point x="175" y="739" type="line"/>
      <point x="190" y="740"/>
      <point x="200" y="740"/>
      <point x="208" y="740" type="curve" smooth="yes"/>
      <point x="295" y="740"/>
      <point x="334" y="710"/>
      <point x="334" y="645" type="curve" smooth="yes"/>
      <point x="334" y="636"/>
      <point x="332" y="615"/>
      <point x="329" y="601" type="curve" smooth="yes"/>
      <point x="300" y="444" type="line" smooth="yes"/>
      <point x="298" y="433"/>
      <point x="297" y="422"/>
      <point x="297" y="411" type="curve" smooth="yes"/>
      <point x="297" y="376"/>
      <point x="320" y="352"/>
      <point x="360" y="346" type="curve"/>
      <point x="345" y="265" type="line"/>
      <point x="289" y="256"/>
      <point x="259" y="225"/>
      <point x="249" y="167" type="curve" smooth="yes"/>
      <point x="220" y="10" type="line" smooth="yes"/>
      <point x="210" y="-47"/>
      <point x="191" y="-81"/>
      <point x="158" y="-102" type="curve" smooth="yes"/>
      <point x="129" y="-121"/>
      <point x="95" y="-129"/>
      <point x="46" y="-129" type="curve" smooth="yes"/>
      <point x="39" y="-129"/>
      <point x="28" y="-129"/>
      <point x="14" y="-128" type="curve"/>
      <point x="29" y="-48" type="line"/>
      <point x="36" y="-47" type="line" smooth="yes"/>
      <point x="74" y="-42"/>
      <point x="91" y="-35"/>
      <point x="104" y="-17" type="curve" smooth="yes"/>
      <point x="110" y="-7"/>
      <point x="110" y="-5"/>
      <point x="113" y="12" type="curve"/>
      <point x="116" y="23"/>
      <point x="119" y="37"/>
    </contour>
  </outline>
</glyph>
<glyph name="exclamdown" format="1">
  <advance width="280"/>
  <unicode hex="00A1"/>
  <outline>
    <contour>
      <point x="273" y="366" type="line"/>
      <point x="171" y="-185" type="line"/>
      <point x="38" y="-185" type="line"/>
      <point x="140" y="366" type="line"/>
    </contour>
    <contour>
      <point x="308" y="554" type="line"/>
      <point x="284" y="426" type="line"/>
      <point x="151" y="426" type="line"/>
      <point x="175" y="554" type="line"/>
    </contour>
  </outline>
</glyph>
<glyph name="cent" format="1">
  <advance width="560"/>
  <unicode hex="00A2"/>
  <outline>
    <contour>
      <point x="350" y="39" type="line"/>
      <point x="225" y="39" type="line"/>
      <point x="246" y="148" type="line"/>
      <point x="198" y="159"/>
      <point x="171" y="176"/>
      <point x="146" y="210" type="curve" smooth="yes"/>
      <point x="120" y="244"/>
      <point x="106" y="288"/>
      <point x="106" y="333" type="curve" smooth="yes"/>
      <point x="106" y="400"/>
      <point x="134" y="472"/>
      <point x="182" y="524" type="curve" smooth="yes"/>
      <point x="224" y="570"/>
      <point x="269" y="596"/>
      <point x="331" y="611" type="curve"/>
      <point x="351" y="715" type="line"/>
      <point x="476" y="715" type="line"/>
      <point x="456" y="611" type="line"/>
      <point x="537" y="592"/>
      <point x="591" y="525"/>
      <point x="593" y="443" type="curve"/>
      <point x="451" y="443" type="line"/>
      <point x="440" y="468"/>
      <point x="403" y="489"/>
      <point x="370" y="489" type="curve" smooth="yes"/>
      <point x="301" y="489"/>
      <point x="243" y="429"/>
      <point x="243" y="358" type="curve" smooth="yes"/>
      <point x="243" y="305"/>
      <point x="279" y="270"/>
      <point x="333" y="270" type="curve" smooth="yes"/>
      <point x="363" y="270"/>
      <point x="381" y="278"/>
      <point x="423" y="310" type="curve"/>
      <point x="569" y="310" type="line"/>
      <point x="514" y="218"/>
      <point x="457" y="172"/>
      <point x="371" y="148" type="curve"/>
    </contour>
  </outline>
</glyph>
<glyph name="section" format="1">
  <advance width="560"/>
  <unicode hex="00A7"/>
  <outline>
    <contour>
      <point x="607" y="563" type="curve"/>
      <point x="481" y="563" type="line"/>
      <point x="477" y="613"/>
      <point x="458" y="630"/>
      <point x="404" y="630" type="curve" smooth="yes"/>
      <point x="356" y="630"/>
      <point x="326" y="608"/>
      <point x="326" y="571" type="curve" smooth="yes"/>
      <point x="326" y="548"/>
      <point x="340" y="531"/>
      <point x="375" y="512" type="curve" smooth="yes"/>
      <point x="524" y="431" type="line" smooth="yes"/>
      <point x="567" y="408"/>
      <point x="590" y="369"/>
      <point x="590" y="321" type="curve" smooth="yes"/>
      <point x="590" y="286"/>
      <point x="576" y="246"/>
      <point x="552" y="212" type="curve" smooth="yes"/>
      <point x="538" y="193"/>
      <point x="522" y="178"/>
      <point x="485" y="150" type="curve"/>
      <point x="505" y="128"/>
      <point x="516" y="97"/>
      <point x="516" y="63" type="curve" smooth="yes"/>
      <point x="516" y="18"/>
      <point x="493" y="-39"/>
      <point x="457" y="-77" type="curve"/>
      <point x="411" y="-128"/>
      <point x="340" y="-157"/>
      <point x="261" y="-157" type="curve" smooth="yes"/>
      <point x="200" y="-157"/>
      <point x="150" y="-140"/>
      <point x="117" y="-107" type="curve" smooth="yes"/>
      <point x="86" y="-76"/>
      <point x="68" y="-33"/>
      <point x="68" y="9" type="curve" smooth="yes"/>
      <point x="68" y="21"/>
      <point x="69" y="37"/>
      <point x="71" y="55" type="curve"/>
      <point x="204" y="55" type="line"/>
      <point x="201" y="43"/>
      <point x="200" y="33"/>
      <point x="200" y="24" type="curve" smooth="yes"/>
      <point x="200" y="-9"/>
      <point x="239" y="-35"/>
      <point x="288" y="-35" type="curve" smooth="yes"/>
      <point x="343" y="-35"/>
      <point x="388" y="-1"/>
      <point x="388" y="42" type="curve" smooth="yes"/>
      <point x="388" y="64"/>
      <point x="378" y="73"/>
      <point x="326" y="103" type="curve" smooth="yes"/>
      <point x="178" y="187" type="line" smooth="yes"/>
      <point x="123" y="218"/>
      <point x="102" y="253"/>
      <point x="102" y="310" type="curve" smooth="yes"/>
      <point x="102" y="388"/>
      <point x="138" y="447"/>
      <point x="212" y="493" type="curve"/>
      <point x="201" y="515"/>
      <point x="198" y="530"/>
      <point x="198" y="555" type="curve" smooth="yes"/>
      <point x="198" y="667"/>
      <point x="301" y="752"/>
      <point x="435" y="752" type="curve" smooth="yes"/>
      <point x="544" y="752"/>
      <point x="608" y="693"/>
      <point x="608" y="592" type="curve" smooth="yes"/>
      <point x="608" y="585"/>
      <point x="608" y="575"/>
    </contour>
    <contour>
      <point x="410" y="339" type="curve" smooth="yes"/>
      <point x="275" y="413" type="line"/>
      <point x="243" y="393"/>
      <point x="221" y="368"/>
      <point x="222" y="354" type="curve" smooth="yes"/>
      <point x="223" y="342" type="line" smooth="yes"/>
      <point x="224" y="329"/>
      <point x="225" y="327"/>
      <point x="235" y="317" type="curve" smooth="yes"/>
      <point x="243" y="310"/>
      <point x="259" y="299"/>
      <point x="273" y="291" type="curve" smooth="yes"/>
      <point x="411" y="215" type="line"/>
      <point x="446" y="240"/>
      <point x="462" y="262"/>
      <point x="462" y="286" type="curve" smooth="yes"/>
      <point x="462" y="306"/>
      <point x="453" y="316"/>
    </contour>
  </outline>
</glyph>
<glyph name="copyright" format="1">
  <advance width="740"/>
  <unicode hex="00A9"/>
  <outline>
    <contour>
      <point x="537" y="320" type="curve"/>
      <point x="647" y="320" type="line"/>
      <point x="605" y="222"/>
      <point x="509" y="157"/>
      <point x="408" y="157" type="curve" smooth="yes"/>
      <point x="302" y="157"/>
      <point x="226" y="230"/>
      <point x="226" y="333" type="curve" smooth="yes"/>
      <point x="226" y="467"/>
      <point x="349" y="587"/>
      <point x="486" y="587" type="curve" smooth="yes"/>
      <point x="589" y="587"/>
      <point x="665" y="517"/>
      <point x="666" y="422" type="curve"/>
      <point x="555" y="422" type="line"/>
      <point x="547" y="466"/>
      <point x="514" y="494"/>
      <point x="469" y="494" type="curve" smooth="yes"/>
      <point x="398" y="494"/>
      <point x="334" y="425"/>
      <point x="334" y="348" type="curve" smooth="yes"/>
      <point x="334" y="289"/>
      <point x="370" y="250"/>
      <point x="424" y="250" type="curve" smooth="yes"/>
      <point x="468" y="250"/>
      <point x="506" y="274"/>
    </contour>
    <contour>
      <point x="513" y="752" type="curve" smooth="yes"/>
      <point x="699" y="752"/>
      <point x="834" y="620"/>
      <point x="834" y="439" type="curve" smooth="yes"/>
      <point x="834" y="202"/>
      <point x="612" y="-13"/>
      <point x="367" y="-13" type="curve" smooth="yes"/>
      <point x="186" y="-13"/>
      <point x="50" y="121"/>
      <point x="50" y="300" type="curve" smooth="yes"/>
      <point x="50" y="535"/>
      <point x="272" y="752"/>
    </contour>
    <contour>
      <point x="502" y="675" type="curve" smooth="yes"/>
      <point x="307" y="675"/>
      <point x="131" y="504"/>
      <point x="131" y="315" type="curve" smooth="yes"/>
      <point x="131" y="173"/>
      <point x="239" y="67"/>
      <point x="383" y="67" type="curve" smooth="yes"/>
      <point x="577" y="67"/>
      <point x="753" y="237"/>
      <point x="753" y="426" type="curve" smooth="yes"/>
      <point x="753" y="569"/>
      <point x="646" y="675"/>
    </contour>
  </outline>
</glyph>
<glyph name="ordfeminine" format="1">
  <advance width="360"/>
  <unicode hex="00AA"/>
  <outline>
    <contour>
      <point x="480" y="741" type="line"/>
      <point x="424" y="443" type="line"/>
      <point x="358" y="443" type="line"/>
      <point x="366" y="484" type="line"/>
      <point x="336" y="452"/>
      <point x="293" y="433"/>
      <point x="254" y="433" type="curve" smooth="yes"/>
      <point x="217" y="433"/>
      <point x="176" y="455"/>
      <point x="158" y="484" type="curve" smooth="yes"/>
      <point x="147" y="502"/>
      <point x="138" y="536"/>
      <point x="138" y="560" type="curve" smooth="yes"/>
      <point x="138" y="600"/>
      <point x="158" y="653"/>
      <point x="185" y="685" type="curve" smooth="yes"/>
      <point x="220" y="727"/>
      <point x="271" y="752"/>
      <point x="321" y="752" type="curve" smooth="yes"/>
      <point x="357" y="752"/>
      <point x="387" y="734"/>
      <point x="406" y="702" type="curve"/>
      <point x="414" y="741" type="line"/>
    </contour>
    <contour>
      <point x="315" y="679" type="curve" smooth="yes"/>
      <point x="265" y="679"/>
      <point x="217" y="628"/>
      <point x="217" y="576" type="curve" smooth="yes"/>
      <point x="217" y="536"/>
      <point x="245" y="506"/>
      <point x="282" y="506" type="curve" smooth="yes"/>
      <point x="335" y="506"/>
      <point x="382" y="556"/>
      <point x="382" y="613" type="curve" smooth="yes"/>
      <point x="382" y="650"/>
      <point x="353" y="679"/>
    </contour>
    <contour>
      <point x="90" y="312" type="line"/>
      <point x="103" y="382" type="line"/>
      <point x="418" y="382" type="line"/>
      <point x="405" y="312" type="line"/>
    </contour>
  </outline>
</glyph>
<glyph name="logicalnot" format="1">
  <advance width="600"/>
  <unicode hex="00AC"/>
  <outline>
    <contour>
      <point x="138" y="471" type="line"/>
      <point x="643" y="471" type="line"/>
      <point x="589" y="182" type="line"/>
      <point x="475" y="182" type="line"/>
      <point x="508" y="359" type="line"/>
      <point x="117" y="359" type="line"/>
    </contour>
  </outline>
</glyph>
<glyph name="macron" format="1">
  <advance width="420"/>
  <unicode hex="00AF"/>
  <outline>
    <contour>
      <point x="189" y="650" type="line"/>
      <point x="206" y="749" type="line"/>
      <point x="486" y="749" type="line"/>
      <point x="468" y="650" type="line"/>
    </contour>
  </outline>
</glyph>
<glyph name="degree" format="1">
  <advance width="400"/>
  <unicode hex="00B0"/>
  <outline>
    <contour>
      <point x="312" y="686" type="curve" smooth="yes"/>
      <point x="394" y="686"/>
      <point x="462" y="618"/>
      <point x="462" y="536" type="curve" smooth="yes"/>
      <point x="462" y="453"/>
      <point x="394" y="386"/>
      <point x="309" y="386" type="curve" smooth="yes"/>
      <point x="225" y="386"/>
      <point x="157" y="453"/>
      <point x="157" y="537" type="curve" smooth="yes"/>
      <point x="157" y="620"/>
      <point x="226" y="686"/>
    </contour>
    <contour>
      <point x="311" y="629" type="curve" smooth="yes"/>
      <point x="257" y="629"/>
      <point x="214" y="588"/>
      <point x="214" y="537" type="curve" smooth="yes"/>
      <point x="214" y="485"/>
      <point x="257" y="443"/>
      <point x="309" y="443" type="curve" smooth="yes"/>
      <point x="362" y="443"/>
      <point x="405" y="485"/>
      <point x="405" y="536" type="curve" smooth="yes"/>
      <point x="405" y="586"/>
      <point x="362" y="629"/>
    </contour>
  </outline>
</glyph>
<glyph name="twosuperior" format="1">
  <advance width="336"/>
  <unicode hex="00B2"/>
  <outline>
    <contour>
      <point x="70" y="296" type="line"/>
      <point x="85" y="371" type="line"/>
      <point x="278" y="518" type="line" smooth="yes"/>
      <point x="328" y="556"/>
      <point x="348" y="584"/>
      <point x="348" y="615" type="curve" smooth="yes"/>
      <point x="348" y="647"/>
      <point x="328" y="666"/>
      <point x="295" y="666" type="curve" smooth="yes"/>
      <point x="252" y="666"/>
      <point x="224" y="639"/>
      <point x="209" y="581" type="curve"/>
      <point x="120" y="581" type="line"/>
      <point x="130" y="630"/>
      <point x="140" y="654"/>
      <point x="164" y="681" type="curve" smooth="yes"/>
      <point x="200" y="723"/>
      <point x="252" y="746"/>
      <point x="310" y="746" type="curve" smooth="yes"/>
      <point x="386" y="746"/>
      <point x="440" y="698"/>
      <point x="440" y="630" type="curve" smooth="yes"/>
      <point x="440" y="564"/>
      <point x="403" y="509"/>
      <point x="320" y="451" type="curve" smooth="yes"/>
      <point x="216" y="378" type="line"/>
      <point x="394" y="378" type="line"/>
      <point x="379" y="296" type="line"/>
    </contour>
  </outline>
</glyph>
<glyph name="paragraph" format="1">
  <advance width="600"/>
  <unicode hex="00B6"/>
  <outline>
    <contour>
      <point x="217" y="-128" type="line"/>
      <point x="302" y="330" type="line"/>
      <point x="192" y="336"/>
      <point x="133" y="392"/>
      <point x="133" y="489" type="curve" smooth="yes"/>
      <point x="133" y="558"/>
      <point x="166" y="630"/>
      <point x="217" y="675" type="curve" smooth="yes"/>
      <point x="270" y="721"/>
      <point x="334" y="739"/>
      <point x="446" y="739" type="curve" smooth="yes"/>
      <point x="664" y="739" type="line"/>
      <point x="503" y="-128" type="line"/>
      <point x="401" y="-128" type="line"/>
      <point x="542" y="632" type="line"/>
      <point x="459" y="632" type="line"/>
      <point x="318" y="-128" type="line"/>
    </contour>
  </outline>
</glyph>
<glyph name="periodcentered" format="1">
  <advance width="280"/>
  <unicode hex="00B7"/>
  <outline>
    <contour>
      <point x="119" y="300" type="line"/>
      <point x="144" y="432" type="line"/>
      <point x="276" y="432" type="line"/>
      <point x="251" y="300" type="line"/>
    </contour>
  </outline>
</glyph>
<glyph name="cedilla" format="1">
  <advance width="340"/>
  <unicode hex="00B8"/>
  <outline>
    <contour>
      <point x="117" y="0" type="line"/>
      <point x="169" y="0" type="line"/>
      <point x="137" y="-58" type="line"/>
      <point x="151" y="-53"/>
      <point x="158" y="-51"/>
      <point x="168" y="-51" type="curve" smooth="yes"/>
      <point x="211" y="-51"/>
      <point x="244" y="-84"/>
      <point x="244" y="-127" type="curve" smooth="yes"/>
      <point x="244" y="-154"/>
      <point x="234" y="-185"/>
      <point x="217" y="-209" type="curve" smooth="yes"/>
      <point x="197" y="-238"/>
      <point x="170" y="-251"/>
      <point x="133" y="-251" type="curve" smooth="yes"/>
      <point x="79" y="-251"/>
      <point x="42" y="-219"/>
      <point x="42" y="-172" type="curve" smooth="yes"/>
      <point x="42" y="-166" type="line"/>
      <point x="102" y="-166" type="line"/>
      <point x="104" y="-172" type="line" smooth="yes"/>
      <point x="109" y="-188"/>
      <point x="119" y="-195"/>
      <point x="136" y="-195" type="curve" smooth="yes"/>
      <point x="161" y="-195"/>
      <point x="184" y="-167"/>
      <point x="184" y="-137" type="curve" smooth="yes"/>
      <point x="184" y="-120"/>
      <point x="170" y="-106"/>
      <point x="153" y="-106" type="curve" smooth="yes"/>
      <point x="136" y="-106"/>
      <point x="123" y="-114"/>
      <point x="109" y="-133" type="curve"/>
      <point x="61" y="-107" type="line"/>
    </contour>
  </outline>
</glyph>
<glyph name="onesuperior" format="1">
  <advance width="336"/>
  <unicode hex="00B9"/>
  <outline>
    <contour>
      <point x="209" y="296" type="line"/>
      <point x="276" y="657" type="line"/>
      <point x="209" y="657" type="line"/>
      <point x="224" y="739" type="line"/>
      <point x="378" y="739" type="line"/>
      <point x="296" y="296" type="line"/>
    </contour>
  </outline>
</glyph>
<glyph name="ordmasculine" format="1">
  <advance width="360"/>
  <unicode hex="00BA"/>
  <outline>
    <contour>
      <point x="325" y="752" type="curve" smooth="yes"/>
      <point x="401" y="752"/>
      <point x="451" y="701"/>
      <point x="451" y="625" type="curve" smooth="yes"/>
      <point x="451" y="530"/>
      <point x="363" y="444"/>
      <point x="266" y="444" type="curve" smooth="yes"/>
      <point x="195" y="444"/>
      <point x="138" y="499"/>
      <point x="138" y="569" type="curve" smooth="yes"/>
      <point x="138" y="666"/>
      <point x="226" y="752"/>
    </contour>
    <contour>
      <point x="311" y="682" type="curve" smooth="yes"/>
      <point x="259" y="682"/>
      <point x="212" y="634"/>
      <point x="212" y="582" type="curve" smooth="yes"/>
      <point x="212" y="544"/>
      <point x="240" y="517"/>
      <point x="280" y="517" type="curve" smooth="yes"/>
      <point x="331" y="517"/>
      <point x="377" y="562"/>
      <point x="377" y="612" type="curve" smooth="yes"/>
      <point x="377" y="652"/>
      <point x="349" y="682"/>
    </contour>
    <contour>
      <point x="90" y="313" type="line"/>
      <point x="103" y="383" type="line"/>
      <point x="410" y="383" type="line"/>
      <point x="397" y="313" type="line"/>
    </contour>
  </outline>
</glyph>
<glyph name="threequarters" format="1">
  <advance width="840"/>
  <unicode hex="00BE"/>
  <outline>
    <contour>
      <point x="521" y="133" type="line"/>
      <point x="791" y="443" type="line"/>
      <point x="867" y="443" type="line"/>
      <point x="811" y="142" type="line"/>
      <point x="859" y="142" type="line"/>
      <point x="845" y="65" type="line"/>
      <point x="797" y="65" type="line"/>
      <point x="785" y="0" type="line"/>
      <point x="694" y="0" type="line"/>
      <point x="706" y="65" type="line"/>
      <point x="508" y="65" type="line"/>
    </contour>
    <contour>
      <point x="720" y="142" type="line"/>
      <point x="748" y="294" type="line"/>
      <point x="618" y="142" type="line"/>
    </contour>
    <contour>
      <point x="241" y="0" type="line"/>
      <point x="684" y="739" type="line"/>
      <point x="779" y="739" type="line"/>
      <point x="336" y="0" type="line"/>
    </contour>
    <contour>
      <point x="223" y="505" type="curve"/>
      <point x="239" y="589" type="line"/>
      <point x="276" y="589"/>
      <point x="284" y="590"/>
      <point x="296" y="597" type="curve" smooth="yes"/>
      <point x="312" y="606"/>
      <point x="323" y="623"/>
      <point x="323" y="637" type="curve" smooth="yes"/>
      <point x="323" y="655"/>
      <point x="310" y="666"/>
      <point x="289" y="666" type="curve" smooth="yes"/>
      <point x="266" y="666"/>
      <point x="251" y="652"/>
      <point x="246" y="627" type="curve"/>
      <point x="154" y="627" type="line"/>
      <point x="172" y="700"/>
      <point x="228" y="746"/>
      <point x="302" y="746" type="curve" smooth="yes"/>
      <point x="368" y="746"/>
      <point x="415" y="704"/>
      <point x="415" y="645" type="curve" smooth="yes"/>
      <point x="415" y="606"/>
      <point x="398" y="577"/>
      <point x="359" y="551" type="curve"/>
      <point x="397" y="531"/>
      <point x="413" y="505"/>
      <point x="413" y="465" type="curve" smooth="yes"/>
      <point x="413" y="370"/>
      <point x="323" y="288"/>
      <point x="218" y="288" type="curve" smooth="yes"/>
      <point x="139" y="288"/>
      <point x="82" y="340"/>
      <point x="82" y="411" type="curve" smooth="yes"/>
      <point x="82" y="416"/>
      <point x="83" y="425"/>
      <point x="84" y="436" type="curve"/>
      <point x="175" y="436" type="line"/>
      <point x="175" y="428" type="line" smooth="yes"/>
      <point x="175" y="392"/>
      <point x="198" y="368"/>
      <point x="233" y="368" type="curve" smooth="yes"/>
      <point x="280" y="368"/>
      <point x="321" y="406"/>
      <point x="321" y="449" type="curve" smooth="yes"/>
      <point x="321" y="472"/>
      <point x="305" y="493"/>
      <point x="281" y="500" type="curve" smooth="yes"/>
      <point x="270" y="504"/>
      <point x="258" y="505"/>
    </contour>
  </outline>
</glyph>
<glyph name="Atilde" format="1">
  <advance width="740"/>
  <unicode hex="00C3"/>
  <outline>
    <contour>
      <point x="7" y="0" type="line"/>
      <point x="452" y="739" type="line"/>
      <point x="560" y="739" type="line"/>
      <point x="733" y="0" type="line"/>
      <point x="582" y="0" type="line"/>
      <point x="538" y="191" type="line"/>
      <point x="275" y="191" type="line"/>
      <point x="158" y="0" type="line"/>
    </contour>
    <contour>
      <point x="350" y="323" type="line"/>
      <point x="508" y="323" type="line"/>
      <point x="470" y="546" type="line"/>
    </contour>
    <contour>
      <point x="394" y="806" type="curve"/>
      <point x="356" y="891" type="line"/>
      <point x="370" y="905"/>
      <point x="378" y="911"/>
      <point x="391" y="919" type="curve"/>
      <point x="409" y="928"/>
      <point x="439" y="938"/>
      <point x="451" y="938" type="curve" smooth="yes"/>
      <point x="466" y="938"/>
      <point x="488" y="932"/>
      <point x="513" y="922" type="curve" smooth="yes"/>
      <point x="541" y="910"/>
      <point x="546" y="909"/>
      <point x="563" y="909" type="curve" smooth="yes"/>
      <point x="587" y="909"/>
      <point x="602" y="914"/>
      <point x="629" y="933" type="curve" smooth="yes"/>
      <point x="644" y="943" type="line"/>
      <point x="678" y="861" type="line"/>
      <point x="648" y="823"/>
      <point x="613" y="806"/>
      <point x="570" y="806" type="curve" smooth="yes"/>
      <point x="553" y="806"/>
      <point x="545" y="808"/>
      <point x="508" y="820" type="curve" smooth="yes"/>
      <point x="479" y="830"/>
      <point x="460" y="835"/>
      <point x="449" y="835" type="curve" smooth="yes"/>
      <point x="434" y="835"/>
      <point x="422" y="828"/>
    </contour>
  </outline>
</glyph>
<glyph name="Adieresis" format="1">
  <advance width="740"/>
  <unicode hex="00C4"/>
  <outline>
    <contour>
      <point x="7" y="0" type="line"/>
      <point x="452" y="739" type="line"/>
      <point x="560" y="739" type="line"/>
      <point x="733" y="0" type="line"/>
      <point x="582" y="0" type="line"/>
      <point x="538" y="191" type="line"/>
      <point x="275" y="191" type="line"/>
      <point x="158" y="0" type="line"/>
    </contour>
    <contour>
      <point x="350" y="323" type="line"/>
      <point x="508" y="323" type="line"/>
      <point x="470" y="546" type="line"/>
    </contour>
    <contour>
      <point x="344" y="805" type="line"/>
      <point x="369" y="937" type="line"/>
      <point x="502" y="937" type="line"/>
      <point x="477" y="805" type="line"/>
    </contour>
    <contour>
      <point x="554" y="805" type="line"/>
      <point x="579" y="937" type="line"/>
      <point x="712" y="937" type="line"/>
      <point x="687" y="805" type="line"/>
    </contour>
  </outline>
</glyph>
<glyph name="Aring" format="1">
  <advance width="740"/>
  <unicode hex="00C5"/>
  <outline>
    <contour>
      <point x="7" y="0" type="line"/>
      <point x="452" y="739" type="line"/>
      <point x="560" y="739" type="line"/>
      <point x="733" y="0" type="line"/>
      <point x="582" y="0" type="line"/>
      <point x="538" y="191" type="line"/>
      <point x="275" y="191" type="line"/>
      <point x="158" y="0" type="line"/>
    </contour>
    <contour>
      <point x="350" y="323" type="line"/>
      <point x="508" y="323" type="line"/>
      <point x="470" y="546" type="line"/>
    </contour>
    <contour>
      <point x="550" y="998" type="curve" smooth="yes"/>
      <point x="598" y="998"/>
      <point x="635" y="962"/>
      <point x="635" y="915" type="curve" smooth="yes"/>
      <point x="635" y="851"/>
      <point x="576" y="792"/>
      <point x="510" y="792" type="curve" smooth="yes"/>
      <point x="462" y="792"/>
      <point x="425" y="828"/>
      <point x="425" y="875" type="curve" smooth="yes"/>
      <point x="425" y="940"/>
      <point x="484" y="998"/>
    </contour>
    <contour>
      <point x="537" y="931" type="curve" smooth="yes"/>
      <point x="515" y="931"/>
      <point x="493" y="910"/>
      <point x="493" y="888" type="curve" smooth="yes"/>
      <point x="493" y="872"/>
      <point x="507" y="859"/>
      <point x="524" y="859" type="curve" smooth="yes"/>
      <point x="545" y="859"/>
      <point x="567" y="880"/>
      <point x="567" y="901" type="curve" smooth="yes"/>
      <point x="567" y="917"/>
      <point x="553" y="931"/>
    </contour>
  </outline>
</glyph>
<glyph name="Ecircumflex" format="1">
  <advance width="520"/>
  <unicode hex="00CA"/>
  <outline>
    <contour>
      <point x="68" y="0" type="line"/>
      <point x="205" y="739" type="line"/>
      <point x="602" y="739" type="line"/>
      <point x="578" y="607" type="line"/>
      <point x="318" y="607" type="line"/>
      <point x="285" y="435" type="line"/>
      <point x="534" y="435" type="line"/>
      <point x="510" y="303" type="line"/>
      <point x="261" y="303" type="line"/>
      <point x="229" y="132" type="line"/>
      <point x="489" y="132" type="line"/>
      <point x="465" y="0" type="line"/>
    </contour>
    <contour>
      <point x="213" y="805" type="line"/>
      <point x="386" y="943" type="line"/>
      <point x="493" y="943" type="line"/>
      <point x="612" y="805" type="line"/>
      <point x="467" y="805" type="line"/>
      <point x="426" y="869" type="line"/>
      <point x="360" y="805" type="line"/>
    </contour>
  </outline>
</glyph>
<glyph name="Igrave" format="1">
  <advance width="280"/>
  <unicode hex="00CC"/>
  <outline>
    <contour>
      <point x="68" y="0" type="line"/>
      <point x="205" y="739" type="line"/>
      <point x="342" y="739" type="line"/>
      <point x="205" y="0" type="line"/>
    </contour>
    <contour>
      <point x="175" y="916" type="line"/>
      <point x="245" y="1007" type="line"/>
      <point x="448" y="877" type="line"/>
      <point x="381" y="792" type="line"/>
    </contour>
  </outline>
</glyph>
<glyph name="Iacute" format="1">
  <advance width="280"/>
  <unicode hex="00CD"/>
  <outline>
    <contour>
      <point x="68" y="0" type="line"/>
      <point x="205" y="739" type="line"/>
      <point x="342" y="739" type="line"/>
      <point x="205" y="0" type="line"/>
    </contour>
    <contour>
      <point x="175" y="792" type="line"/>
      <point x="135" y="880" type="line"/>
      <point x="371" y="1007" type="line"/>
      <point x="418" y="908" type="line"/>
    </contour>
  </outline>
</glyph>
<glyph name="Icircumflex" format="1">
  <advance width="280"/>
  <unicode hex="00CE"/>
  <outline>
    <contour>
      <point x="68" y="0" type="line"/>
      <point x="205" y="739" type="line"/>
      <point x="342" y="739" type="line"/>
      <point x="205" y="0" type="line"/>
    </contour>
    <contour>
      <point x="93" y="805" type="line"/>
      <point x="266" y="943" type="line"/>
      <point x="373" y="943" type="line"/>
      <point x="492" y="805" type="line"/>
      <point x="347" y="805" type="line"/>
      <point x="306" y="869" type="line"/>
      <point x="240" y="805" type="line"/>
    </contour>
  </outline>
</glyph>
<glyph name="Idieresis" format="1">
  <advance width="280"/>
  <unicode hex="00CF"/>
  <outline>
    <contour>
      <point x="68" y="0" type="line"/>
      <point x="205" y="739" type="line"/>
      <point x="342" y="739" type="line"/>
      <point x="205" y="0" type="line"/>
    </contour>
    <contour>
      <point x="113" y="805" type="line"/>
      <point x="138" y="937" type="line"/>
      <point x="271" y="937" type="line"/>
      <point x="246" y="805" type="line"/>
    </contour>
    <contour>
      <point x="323" y="805" type="line"/>
      <point x="348" y="937" type="line"/>
      <point x="481" y="937" type="line"/>
      <point x="456" y="805" type="line"/>
    </contour>
  </outline>
</glyph>
<glyph name="Ntilde" format="1">
  <advance width="740"/>
  <unicode hex="00D1"/>
  <outline>
    <contour>
      <point x="68" y="0" type="line"/>
      <point x="205" y="739" type="line"/>
      <point x="361" y="739" type="line"/>
      <point x="567" y="201" type="line"/>
      <point x="667" y="739" type="line"/>
      <point x="804" y="739" type="line"/>
      <point x="667" y="0" type="line"/>
      <point x="514" y="0" type="line"/>
      <point x="305" y="537" type="line"/>
      <point x="205" y="0" type="line"/>
    </contour>
    <contour>
      <point x="406" y="806" type="curve"/>
      <point x="368" y="891" type="line"/>
      <point x="382" y="905"/>
      <point x="390" y="911"/>
      <point x="403" y="919" type="curve"/>
      <point x="421" y="928"/>
      <point x="451" y="938"/>
      <point x="463" y="938" type="curve" smooth="yes"/>
      <point x="478" y="938"/>
      <point x="500" y="932"/>
      <point x="525" y="922" type="curve" smooth="yes"/>
      <point x="553" y="910"/>
      <point x="558" y="909"/>
      <point x="575" y="909" type="curve" smooth="yes"/>
      <point x="599" y="909"/>
      <point x="614" y="914"/>
      <point x="641" y="933" type="curve" smooth="yes"/>
      <point x="656" y="943" type="line"/>
      <point x="690" y="861" type="line"/>
      <point x="660" y="823"/>
      <point x="625" y="806"/>
      <point x="582" y="806" type="curve" smooth="yes"/>
      <point x="565" y="806"/>
      <point x="557" y="808"/>
      <point x="520" y="820" type="curve" smooth="yes"/>
      <point x="491" y="830"/>
      <point x="472" y="835"/>
      <point x="461" y="835" type="curve" smooth="yes"/>
      <point x="446" y="835"/>
      <point x="434" y="828"/>
    </contour>
  </outline>
</glyph>
<glyph name="Ocircumflex" format="1">
  <advance width="840"/>
  <unicode hex="00D4"/>
  <outline>
    <contour>
      <point x="559" y="752" type="curve" smooth="yes"/>
      <point x="743" y="752"/>
      <point x="875" y="622"/>
      <point x="875" y="439" type="curve" smooth="yes"/>
      <point x="875" y="201"/>
      <point x="658" y="-13"/>
      <point x="416" y="-13" type="curve" smooth="yes"/>
      <point x="227" y="-13"/>
      <point x="91" y="118"/>
      <point x="91" y="300" type="curve" smooth="yes"/>
      <point x="91" y="401"/>
      <point x="137" y="513"/>
      <point x="212" y="595" type="curve" smooth="yes"/>
      <point x="305" y="696"/>
      <point x="429" y="752"/>
    </contour>
    <contour>
      <point x="532" y="620" type="curve" smooth="yes"/>
      <point x="439" y="620"/>
      <point x="356" y="578"/>
      <point x="297" y="501" type="curve" smooth="yes"/>
      <point x="256" y="448"/>
      <point x="231" y="381"/>
      <point x="231" y="323" type="curve" smooth="yes"/>
      <point x="231" y="204"/>
      <point x="318" y="119"/>
      <point x="440" y="119" type="curve" smooth="yes"/>
      <point x="531" y="119"/>
      <point x="615" y="162"/>
      <point x="672" y="238" type="curve" smooth="yes"/>
      <point x="711" y="290"/>
      <point x="735" y="359"/>
      <point x="735" y="419" type="curve" smooth="yes"/>
      <point x="735" y="536"/>
      <point x="650" y="620"/>
    </contour>
    <contour>
      <point x="372" y="805" type="line"/>
      <point x="545" y="943" type="line"/>
      <point x="652" y="943" type="line"/>
      <point x="771" y="805" type="line"/>
      <point x="626" y="805" type="line"/>
      <point x="585" y="869" type="line"/>
      <point x="519" y="805" type="line"/>
    </contour>
  </outline>
</glyph>
<glyph name="Otilde" format="1">
  <advance width="840"/>
  <unicode hex="00D5"/>
  <outline>
    <contour>
      <point x="559" y="752" type="curve" smooth="yes"/>
      <point x="743" y="752"/>
      <point x="875" y="622"/>
      <point x="875" y="439" type="curve" smooth="yes"/>
      <point x="875" y="201"/>
      <point x="658" y="-13"/>
      <point x="416" y="-13" type="curve" smooth="yes"/>
      <point x="227" y="-13"/>
      <point x="91" y="118"/>
      <point x="91" y="300" type="curve" smooth="yes"/>
      <point x="91" y="401"/>
      <point x="137" y="513"/>
      <point x="212" y="595" type="curve" smooth="yes"/>
      <point x="305" y="696"/>
      <point x="429" y="752"/>
    </contour>
    <contour>
      <point x="532" y="620" type="curve" smooth="yes"/>
      <point x="439" y="620"/>
      <point x="356" y="578"/>
      <point x="297" y="501" type="curve" smooth="yes"/>
      <point x="256" y="448"/>
      <point x="231" y="381"/>
      <point x="231" y="323" type="curve" smooth="yes"/>
      <point x="231" y="204"/>
      <point x="318" y="119"/>
      <point x="440" y="119" type="curve" smooth="yes"/>
      <point x="531" y="119"/>
      <point x="615" y="162"/>
      <point x="672" y="238" type="curve" smooth="yes"/>
      <point x="711" y="290"/>
      <point x="735" y="359"/>
      <point x="735" y="419" type="curve" smooth="yes"/>
      <point x="735" y="536"/>
      <point x="650" y="620"/>
    </contour>
    <contour>
      <point x="460" y="806" type="curve"/>
      <point x="422" y="891" type="line"/>
      <point x="436" y="905"/>
      <point x="444" y="911"/>
      <point x="457" y="919" type="curve"/>
      <point x="475" y="928"/>
      <point x="505" y="938"/>
      <point x="517" y="938" type="curve" smooth="yes"/>
      <point x="532" y="938"/>
      <point x="554" y="932"/>
      <point x="579" y="922" type="curve" smooth="yes"/>
      <point x="607" y="910"/>
      <point x="612" y="909"/>
      <point x="629" y="909" type="curve" smooth="yes"/>
      <point x="653" y="909"/>
      <point x="668" y="914"/>
      <point x="695" y="933" type="curve" smooth="yes"/>
      <point x="710" y="943" type="line"/>
      <point x="744" y="861" type="line"/>
      <point x="714" y="823"/>
      <point x="679" y="806"/>
      <point x="636" y="806" type="curve" smooth="yes"/>
      <point x="619" y="806"/>
      <point x="611" y="808"/>
      <point x="574" y="820" type="curve" smooth="yes"/>
      <point x="545" y="830"/>
      <point x="526" y="835"/>
      <point x="515" y="835" type="curve" smooth="yes"/>
      <point x="500" y="835"/>
      <point x="488" y="828"/>
    </contour>
  </outline>
</glyph>
<glyph name="Oslash" format="1">
  <advance width="840"/>
  <unicode hex="00D8"/>
  <outline>
    <contour>
      <point x="91" y="-11" type="line"/>
      <point x="174" y="87" type="line"/>
      <point x="121" y="149"/>
      <point x="96" y="217"/>
      <point x="96" y="297" type="curve" smooth="yes"/>
      <point x="96" y="535"/>
      <point x="316" y="752"/>
      <point x="556" y="752" type="curve" smooth="yes"/>
      <point x="612" y="752"/>
      <point x="660" y="742"/>
      <point x="714" y="719" type="curve"/>
      <point x="806" y="826" type="line"/>
      <point x="887" y="757" type="line"/>
      <point x="799" y="655" type="line"/>
      <point x="853" y="603"/>
      <point x="881" y="529"/>
      <point x="881" y="438" type="curve" smooth="yes"/>
      <point x="881" y="337"/>
      <point x="838" y="231"/>
      <point x="760" y="143" type="curve" smooth="yes"/>
      <point x="673" y="45"/>
      <point x="549" y="-13"/>
      <point x="423" y="-13" type="curve" smooth="yes"/>
      <point x="364" y="-13"/>
      <point x="316" y="-2"/>
      <point x="259" y="23" type="curve"/>
      <point x="171" y="-80" type="line"/>
    </contour>
    <contour>
      <point x="272" y="201" type="curve"/>
      <point x="617" y="606" type="line"/>
      <point x="588" y="616"/>
      <point x="564" y="620"/>
      <point x="534" y="620" type="curve" smooth="yes"/>
      <point x="378" y="620"/>
      <point x="236" y="478"/>
      <point x="236" y="322" type="curve" smooth="yes"/>
      <point x="236" y="282"/>
      <point x="247" y="246"/>
    </contour>
    <contour>
      <point x="703" y="542" type="curve"/>
      <point x="355" y="136" type="line"/>
      <point x="385" y="124"/>
      <point x="410" y="119"/>
      <point x="444" y="119" type="curve" smooth="yes"/>
      <point x="602" y="119"/>
      <point x="741" y="257"/>
      <point x="741" y="415" type="curve" smooth="yes"/>
      <point x="741" y="465"/>
      <point x="727" y="511"/>
    </contour>
  </outline>
</glyph>
<glyph name="aring" format="1">
  <advance width="660"/>
  <unicode hex="00E5"/>
  <outline>
    <contour>
      <point x="718" y="554" type="line"/>
      <point x="616" y="0" type="line"/>
      <point x="494" y="0" type="line"/>
      <point x="507" y="72" type="line"/>
      <point x="445" y="13"/>
      <point x="385" y="-13"/>
      <point x="307" y="-13" type="curve" smooth="yes"/>
      <point x="167" y="-13"/>
      <point x="75" y="77"/>
      <point x="75" y="213" type="curve" smooth="yes"/>
      <point x="75" y="406"/>
      <point x="232" y="567"/>
      <point x="420" y="567" type="curve" smooth="yes"/>
      <point x="498" y="567"/>
      <point x="551" y="539"/>
      <point x="583" y="480" type="curve"/>
      <point x="596" y="554" type="line"/>
    </contour>
    <contour>
      <point x="410" y="445" type="curve" smooth="yes"/>
      <point x="304" y="445"/>
      <point x="212" y="350"/>
      <point x="212" y="240" type="curve" smooth="yes"/>
      <point x="212" y="160"/>
      <point x="265" y="109"/>
      <point x="347" y="109" type="curve" smooth="yes"/>
      <point x="416" y="109"/>
      <point x="469" y="137"/>
      <point x="507" y="191" type="curve"/>
      <point x="530" y="226"/>
      <point x="544" y="271"/>
      <point x="544" y="313" type="curve" smooth="yes"/>
      <point x="544" y="394"/>
      <point x="492" y="445"/>
    </contour>
    <contour>
      <point x="501" y="823" type="curve" smooth="yes"/>
      <point x="549" y="823"/>
      <point x="586" y="787"/>
      <point x="586" y="740" type="curve" smooth="yes"/>
      <point x="586" y="675"/>
      <point x="527" y="617"/>
      <point x="461" y="617" type="curve" smooth="yes"/>
      <point x="412" y="617"/>
      <point x="376" y="652"/>
      <point x="376" y="700" type="curve" smooth="yes"/>
      <point x="376" y="765"/>
      <point x="435" y="823"/>
    </contour>
    <contour>
      <point x="488" y="756" type="curve" smooth="yes"/>
      <point x="465" y="756"/>
      <point x="444" y="735"/>
      <point x="444" y="712" type="curve" smooth="yes"/>
      <point x="444" y="697"/>
      <point x="458" y="684"/>
      <point x="475" y="684" type="curve" smooth="yes"/>
      <point x="497" y="684"/>
      <point x="518" y="705"/>
      <point x="518" y="726" type="curve" smooth="yes"/>
      <point x="518" y="742"/>
      <point x="504" y="756"/>
    </contour>
  </outline>
</glyph>
<glyph name="ccedilla" format="1">
  <advance width="640"/>
  <unicode hex="00E7"/>
  <outline>
    <contour>
      <point x="312" y="-13" type="line"/>
      <point x="288" y="-58" type="line"/>
      <point x="302" y="-53"/>
      <point x="309" y="-51"/>
      <point x="319" y="-51" type="curve" smooth="yes"/>
      <point x="362" y="-51"/>
      <point x="395" y="-84"/>
      <point x="395" y="-127" type="curve" smooth="yes"/>
      <point x="395" y="-154"/>
      <point x="385" y="-185"/>
      <point x="368" y="-209" type="curve" smooth="yes"/>
      <point x="348" y="-238"/>
      <point x="321" y="-251"/>
      <point x="284" y="-251" type="curve" smooth="yes"/>
      <point x="229" y="-251"/>
      <point x="192" y="-219"/>
      <point x="192" y="-172" type="curve" smooth="yes"/>
      <point x="192" y="-171"/>
      <point x="192" y="-169"/>
      <point x="193" y="-166" type="curve"/>
      <point x="253" y="-166" type="line"/>
      <point x="255" y="-172" type="line" smooth="yes"/>
      <point x="260" y="-188"/>
      <point x="270" y="-195"/>
      <point x="287" y="-195" type="curve" smooth="yes"/>
      <point x="312" y="-195"/>
      <point x="335" y="-167"/>
      <point x="335" y="-137" type="curve" smooth="yes"/>
      <point x="335" y="-119"/>
      <point x="321" y="-106"/>
      <point x="304" y="-106" type="curve" smooth="yes"/>
      <point x="287" y="-106"/>
      <point x="274" y="-114"/>
      <point x="260" y="-133" type="curve"/>
      <point x="212" y="-107" type="line"/>
      <point x="264" y="-7" type="line"/>
      <point x="149" y="21"/>
      <point x="77" y="109"/>
      <point x="77" y="223" type="curve" smooth="yes"/>
      <point x="77" y="404"/>
      <point x="243" y="567"/>
      <point x="427" y="567" type="curve" smooth="yes"/>
      <point x="502" y="567"/>
      <point x="572" y="538"/>
      <point x="617" y="489" type="curve" smooth="yes"/>
      <point x="647" y="457"/>
      <point x="660" y="428"/>
      <point x="670" y="369" type="curve"/>
      <point x="520" y="369" type="line"/>
      <point x="505" y="418"/>
      <point x="465" y="445"/>
      <point x="407" y="445" type="curve" smooth="yes"/>
      <point x="302" y="445"/>
      <point x="214" y="354"/>
      <point x="214" y="245" type="curve" smooth="yes"/>
      <point x="214" y="163"/>
      <point x="266" y="109"/>
      <point x="345" y="109" type="curve" smooth="yes"/>
      <point x="399" y="109"/>
      <point x="451" y="136"/>
      <point x="485" y="182" type="curve"/>
      <point x="635" y="182" type="line"/>
      <point x="565" y="58"/>
      <point x="453" y="-13"/>
      <point x="326" y="-13" type="curve" smooth="yes"/>
    </contour>
  </outline>
</glyph>
<glyph name="igrave" format="1">
  <advance width="240"/>
  <unicode hex="00EC"/>
  <outline>
    <contour>
      <point x="54" y="0" type="line"/>
      <point x="157" y="554" type="line"/>
      <point x="290" y="554" type="line"/>
      <point x="187" y="0" type="line"/>
    </contour>
    <contour>
      <point x="121" y="741" type="line"/>
      <point x="191" y="832" type="line"/>
      <point x="394" y="702" type="line"/>
      <point x="327" y="617" type="line"/>
    </contour>
  </outline>
</glyph>
<glyph name="iacute" format="1">
  <advance width="240"/>
  <unicode hex="00ED"/>
  <outline>
    <contour>
      <point x="54" y="0" type="line"/>
      <point x="157" y="554" type="line"/>
      <point x="290" y="554" type="line"/>
      <point x="187" y="0" type="line"/>
    </contour>
    <contour>
      <point x="155" y="617" type="line"/>
      <point x="115" y="705" type="line"/>
      <point x="351" y="832" type="line"/>
      <point x="398" y="733" type="line"/>
    </contour>
  </outline>
</glyph>
<glyph name="idieresis" format="1">
  <advance width="240"/>
  <unicode hex="00EF"/>
  <outline>
    <contour>
      <point x="54" y="0" type="line"/>
      <point x="157" y="554" type="line"/>
      <point x="290" y="554" type="line"/>
      <point x="187" y="0" type="line"/>
    </contour>
    <contour>
      <point x="59" y="630" type="line"/>
      <point x="84" y="762" type="line"/>
      <point x="217" y="762" type="line"/>
      <point x="192" y="630" type="line"/>
    </contour>
    <contour>
      <point x="269" y="630" type="line"/>
      <point x="294" y="762" type="line"/>
      <point x="427" y="762" type="line"/>
      <point x="402" y="630" type="line"/>
    </contour>
  </outline>
</glyph>
<glyph name="eth" format="1">
  <advance width="640"/>
  <unicode hex="00F0"/>
  <outline>
    <contour>
      <point x="305" y="709" type="curve"/>
      <point x="398" y="757" type="line"/>
      <point x="441" y="725"/>
      <point x="443" y="723"/>
      <point x="465" y="702" type="curve"/>
      <point x="557" y="739" type="line"/>
      <point x="599" y="695" type="line"/>
      <point x="512" y="659" type="line"/>
      <point x="620" y="566"/>
      <point x="680" y="453"/>
      <point x="680" y="343" type="curve" smooth="yes"/>
      <point x="680" y="155"/>
      <point x="512" y="-13"/>
      <point x="324" y="-13" type="curve" smooth="yes"/>
      <point x="179" y="-13"/>
      <point x="76" y="88"/>
      <point x="76" y="229" type="curve" smooth="yes"/>
      <point x="76" y="399"/>
      <point x="236" y="556"/>
      <point x="410" y="556" type="curve" smooth="yes"/>
      <point x="432" y="556"/>
      <point x="448" y="552"/>
      <point x="480" y="540" type="curve"/>
      <point x="448" y="578"/>
      <point x="434" y="593"/>
      <point x="405" y="618" type="curve"/>
      <point x="320" y="585" type="line"/>
      <point x="286" y="633" type="line"/>
      <point x="361" y="663" type="line"/>
      <point x="345" y="678" type="line" smooth="yes"/>
      <point x="343" y="679"/>
      <point x="334" y="686"/>
      <point x="321" y="696" type="curve" smooth="yes"/>
      <point x="320" y="698"/>
      <point x="313" y="703"/>
    </contour>
    <contour>
      <point x="411" y="445" type="curve" smooth="yes"/>
      <point x="307" y="445"/>
      <point x="213" y="349"/>
      <point x="213" y="243" type="curve" smooth="yes"/>
      <point x="213" y="166"/>
      <point x="270" y="109"/>
      <point x="348" y="109" type="curve" smooth="yes"/>
      <point x="449" y="109"/>
      <point x="543" y="206"/>
      <point x="543" y="309" type="curve" smooth="yes"/>
      <point x="543" y="387"/>
      <point x="487" y="445"/>
    </contour>
  </outline>
</glyph>
<glyph name="divide" format="1">
  <advance width="600"/>
  <unicode hex="00F7"/>
  <outline>
    <contour>
      <point x="461" y="538" type="line"/>
      <point x="326" y="538" type="line"/>
      <point x="350" y="669" type="line"/>
      <point x="485" y="669" type="line"/>
    </contour>
    <contour>
      <point x="375" y="73" type="line"/>
      <point x="240" y="73" type="line"/>
      <point x="264" y="204" type="line"/>
      <point x="399" y="204" type="line"/>
    </contour>
    <contour>
      <point x="625" y="430" type="line"/>
      <point x="603" y="312" type="line"/>
      <point x="100" y="312" type="line"/>
      <point x="122" y="430" type="line"/>
    </contour>
  </outline>
</glyph>
<glyph name="oslash" format="1">
  <advance width="660"/>
  <unicode hex="00F8"/>
  <outline>
    <contour>
      <point x="680" y="558" type="line"/>
      <point x="620" y="487" type="line"/>
      <point x="658" y="442"/>
      <point x="678" y="387"/>
      <point x="678" y="328" type="curve" smooth="yes"/>
      <point x="678" y="152"/>
      <point x="508" y="-13"/>
      <point x="326" y="-13" type="curve" smooth="yes"/>
      <point x="285" y="-13"/>
      <point x="252" y="-6"/>
      <point x="212" y="11" type="curve"/>
      <point x="149" y="-64" type="line"/>
      <point x="76" y="-2" type="line"/>
      <point x="136" y="68" type="line"/>
      <point x="96" y="118"/>
      <point x="79" y="163"/>
      <point x="79" y="221" type="curve" smooth="yes"/>
      <point x="79" y="404"/>
      <point x="246" y="567"/>
      <point x="433" y="567" type="curve" smooth="yes"/>
      <point x="476" y="567"/>
      <point x="507" y="560"/>
      <point x="542" y="544" type="curve"/>
      <point x="607" y="620" type="line"/>
    </contour>
    <contour>
      <point x="525" y="377" type="curve"/>
      <point x="303" y="116" type="line"/>
      <point x="319" y="110"/>
      <point x="327" y="109"/>
      <point x="344" y="109" type="curve" smooth="yes"/>
      <point x="403" y="109"/>
      <point x="457" y="136"/>
      <point x="497" y="187" type="curve" smooth="yes"/>
      <point x="528" y="228"/>
      <point x="541" y="263"/>
      <point x="541" y="308" type="curve" smooth="yes"/>
      <point x="541" y="342"/>
      <point x="537" y="360"/>
    </contour>
    <contour>
      <point x="230" y="178" type="curve"/>
      <point x="453" y="438" type="line"/>
      <point x="433" y="443"/>
      <point x="422" y="445"/>
      <point x="408" y="445" type="curve" smooth="yes"/>
      <point x="309" y="445"/>
      <point x="216" y="347"/>
      <point x="216" y="243" type="curve" smooth="yes"/>
      <point x="216" y="219"/>
      <point x="219" y="204"/>
    </contour>
  </outline>
</glyph>
<glyph name="udieresis" format="1">
  <advance width="600"/>
  <unicode hex="00FC"/>
  <outline>
    <contour>
      <point x="650" y="554" type="line"/>
      <point x="547" y="0" type="line"/>
      <point x="424" y="0" type="line"/>
      <point x="434" y="53" type="line"/>
      <point x="377" y="6"/>
      <point x="328" y="-13"/>
      <point x="260" y="-13" type="curve" smooth="yes"/>
      <point x="207" y="-13"/>
      <point x="163" y="3"/>
      <point x="135" y="31" type="curve" smooth="yes"/>
      <point x="108" y="59"/>
      <point x="88" y="109"/>
      <point x="88" y="152" type="curve" smooth="yes"/>
      <point x="88" y="178"/>
      <point x="92" y="214"/>
      <point x="100" y="257" type="curve" smooth="yes"/>
      <point x="155" y="554" type="line"/>
      <point x="288" y="554" type="line"/>
      <point x="238" y="283" type="line" smooth="yes"/>
      <point x="231" y="248"/>
      <point x="228" y="214"/>
      <point x="228" y="187" type="curve" smooth="yes"/>
      <point x="228" y="138"/>
      <point x="259" y="109"/>
      <point x="310" y="109" type="curve" smooth="yes"/>
      <point x="356" y="109"/>
      <point x="397" y="127"/>
      <point x="423" y="160" type="curve" smooth="yes"/>
      <point x="443" y="184"/>
      <point x="456" y="224"/>
      <point x="469" y="293" type="curve" smooth="yes"/>
      <point x="517" y="554" type="line"/>
    </contour>
    <contour>
      <point x="242" y="630" type="line"/>
      <point x="267" y="762" type="line"/>
      <point x="400" y="762" type="line"/>
      <point x="375" y="630" type="line"/>
    </contour>
    <contour>
      <point x="452" y="630" type="line"/>
      <point x="477" y="762" type="line"/>
      <point x="610" y="762" type="line"/>
      <point x="585" y="630" type="line"/>
    </contour>
  </outline>
</glyph>
<glyph name="yacute" format="1">
  <advance width="580"/>
  <unicode hex="00FD"/>
  <outline>
    <contour>
      <point x="73" y="-185" type="line"/>
      <point x="219" y="52" type="line"/>
      <point x="109" y="554" type="line"/>
      <point x="261" y="554" type="line"/>
      <point x="317" y="195" type="line"/>
      <point x="518" y="554" type="line"/>
      <point x="671" y="554" type="line"/>
      <point x="216" y="-185" type="line"/>
    </contour>
    <contour>
      <point x="325" y="617" type="line"/>
      <point x="285" y="705" type="line"/>
      <point x="521" y="832" type="line"/>
      <point x="568" y="733" type="line"/>
    </contour>
  </outline>
</glyph>
<glyph name="ydieresis" format="1">
  <advance width="580"/>
  <unicode hex="00FF"/>
  <outline>
    <contour>
      <point x="73" y="-185" type="line"/>
      <point x="219" y="52" type="line"/>
      <point x="109" y="554" type="line"/>
      <point x="261" y="554" type="line"/>
      <point x="317" y="195" type="line"/>
      <point x="518" y="554" type="line"/>
      <point x="671" y="554" type="line"/>
      <point x="216" y="-185" type="line"/>
    </contour>
    <contour>
      <point x="228" y="630" type="line"/>
      <point x="253" y="762" type="line"/>
      <point x="386" y="762" type="line"/>
      <point x="361" y="630" type="line"/>
    </contour>
    <contour>
      <point x="438" y="630" type="line"/>
      <point x="463" y="762" type="line"/>
      <point x="596" y="762" type="line"/>
      <point x="571" y="630" type="line"/>
    </contour>
  </outline>
</glyph>
<glyph name="Amacron" format="1">
  <advance width="740"/>
  <unicode hex="0100"/>
  <outline>
    <contour>
      <point x="7" y="0" type="line"/>
      <point x="452" y="739" type="line"/>
      <point x="560" y="739" type="line"/>
      <point x="733" y="0" type="line"/>
      <point x="582" y="0" type="line"/>
      <point x="538" y="191" type="line"/>
      <point x="275" y="191" type="line"/>
      <point x="158" y="0" type="line"/>
    </contour>
    <contour>
      <point x="350" y="323" type="line"/>
      <point x="508" y="323" type="line"/>
      <point x="470" y="546" type="line"/>
    </contour>
    <contour>
      <point x="369" y="825" type="line"/>
      <point x="386" y="924" type="line"/>
      <point x="666" y="924" type="line"/>
      <point x="648" y="825" type="line"/>
    </contour>
  </outline>
</glyph>
<glyph name="Abreve" format="1">
  <advance width="740"/>
  <unicode hex="0102"/>
  <outline>
    <contour>
      <point x="7" y="0" type="line"/>
      <point x="452" y="739" type="line"/>
      <point x="560" y="739" type="line"/>
      <point x="733" y="0" type="line"/>
      <point x="582" y="0" type="line"/>
      <point x="538" y="191" type="line"/>
      <point x="275" y="191" type="line"/>
      <point x="158" y="0" type="line"/>
    </contour>
    <contour>
      <point x="350" y="323" type="line"/>
      <point x="508" y="323" type="line"/>
      <point x="470" y="546" type="line"/>
    </contour>
    <contour>
      <point x="372" y="941" type="curve"/>
      <point x="470" y="941" type="line"/>
      <point x="476" y="913"/>
      <point x="496" y="899"/>
      <point x="530" y="899" type="curve" smooth="yes"/>
      <point x="563" y="899"/>
      <point x="586" y="912"/>
      <point x="602" y="941" type="curve"/>
      <point x="701" y="941" type="line"/>
      <point x="682" y="860"/>
      <point x="605" y="805"/>
      <point x="514" y="805" type="curve" smooth="yes"/>
      <point x="425" y="805"/>
      <point x="371" y="849"/>
      <point x="371" y="922" type="curve" smooth="yes"/>
      <point x="371" y="926"/>
      <point x="371" y="932"/>
    </contour>
  </outline>
</glyph>
<glyph name="Aogonek" format="1">
  <advance width="740"/>
  <unicode hex="0104"/>
  <outline>
    <contour>
      <point x="560" y="739" type="line"/>
      <point x="733" y="0" type="line"/>
      <point x="674" y="-34"/>
      <point x="651" y="-60"/>
      <point x="651" y="-92" type="curve" smooth="yes"/>
      <point x="651" y="-113"/>
      <point x="665" y="-124"/>
      <point x="690" y="-124" type="curve" smooth="yes"/>
      <point x="704" y="-124"/>
      <point x="715" y="-121"/>
      <point x="738" y="-113" type="curve"/>
      <point x="723" y="-190" type="line"/>
      <point x="692" y="-201"/>
      <point x="675" y="-204"/>
      <point x="649" y="-204" type="curve" smooth="yes"/>
      <point x="590" y="-204"/>
      <point x="555" y="-173"/>
      <point x="555" y="-122" type="curve" smooth="yes"/>
      <point x="555" y="-81"/>
      <point x="575" y="-51"/>
      <point x="625" y="-21" type="curve" smooth="yes"/>
      <point x="633" y="-16"/>
      <point x="633" y="-16"/>
      <point x="663" y="0" type="curve"/>
      <point x="582" y="0" type="line"/>
      <point x="538" y="191" type="line"/>
      <point x="275" y="191" type="line"/>
      <point x="158" y="0" type="line"/>
      <point x="7" y="0" type="line"/>
      <point x="452" y="739" type="line"/>
    </contour>
    <contour>
      <point x="350" y="323" type="line"/>
      <point x="508" y="323" type="line"/>
      <point x="470" y="546" type="line"/>
    </contour>
  </outline>
</glyph>
<glyph name="cacute" format="1">
  <advance width="640"/>
  <unicode hex="0107"/>
  <outline>
    <contour>
      <point x="485" y="182" type="curve"/>
      <point x="635" y="182" type="line"/>
      <point x="564" y="57"/>
      <point x="453" y="-13"/>
      <point x="324" y="-13" type="curve" smooth="yes"/>
      <point x="182" y="-13"/>
      <point x="77" y="88"/>
      <point x="77" y="223" type="curve" smooth="yes"/>
      <point x="77" y="404"/>
      <point x="243" y="567"/>
      <point x="427" y="567" type="curve" smooth="yes"/>
      <point x="502" y="567"/>
      <point x="572" y="538"/>
      <point x="617" y="489" type="curve" smooth="yes"/>
      <point x="647" y="457"/>
      <point x="660" y="428"/>
      <point x="670" y="369" type="curve"/>
      <point x="520" y="369" type="line"/>
      <point x="505" y="418"/>
      <point x="465" y="445"/>
      <point x="407" y="445" type="curve" smooth="yes"/>
      <point x="302" y="445"/>
      <point x="214" y="354"/>
      <point x="214" y="245" type="curve" smooth="yes"/>
      <point x="214" y="163"/>
      <point x="266" y="109"/>
      <point x="345" y="109" type="curve" smooth="yes"/>
      <point x="399" y="109"/>
      <point x="451" y="136"/>
    </contour>
    <contour>
      <point x="355" y="617" type="line"/>
      <point x="315" y="705" type="line"/>
      <point x="551" y="832" type="line"/>
      <point x="598" y="733" type="line"/>
    </contour>
  </outline>
</glyph>
<glyph name="Dcroat" format="1">
  <advance width="742"/>
  <unicode hex="0110"/>
  <outline>
    <contour>
      <point x="108" y="0" type="line"/>
      <point x="167" y="321" type="line"/>
      <point x="73" y="321" type="line"/>
      <point x="93" y="428" type="line"/>
      <point x="187" y="428" type="line"/>
      <point x="245" y="739" type="line"/>
      <point x="414" y="739" type="line" smooth="yes"/>
      <point x="528" y="739"/>
      <point x="613" y="721"/>
      <point x="665" y="686" type="curve" smooth="yes"/>
      <point x="737" y="638"/>
      <point x="776" y="558"/>
      <point x="776" y="456" type="curve" smooth="yes"/>
      <point x="776" y="300"/>
      <point x="704" y="155"/>
      <point x="585" y="74" type="curve" smooth="yes"/>
      <point x="507" y="21"/>
      <point x="422" y="0"/>
      <point x="280" y="0" type="curve" smooth="yes"/>
    </contour>
    <contour>
      <point x="269" y="131" type="line"/>
      <point x="299" y="131" type="line" smooth="yes"/>
      <point x="422" y="131"/>
      <point x="496" y="155"/>
      <point x="551" y="212" type="curve" smooth="yes"/>
      <point x="603" y="265"/>
      <point x="636" y="347"/>
      <point x="636" y="424" type="curve" smooth="yes"/>
      <point x="636" y="493"/>
      <point x="607" y="549"/>
      <point x="556" y="578" type="curve" smooth="yes"/>
      <point x="517" y="600"/>
      <point x="472" y="608"/>
      <point x="384" y="608" type="curve" smooth="yes"/>
      <point x="357" y="608" type="line"/>
      <point x="324" y="428" type="line"/>
      <point x="473" y="428" type="line"/>
      <point x="453" y="321" type="line"/>
      <point x="304" y="321" type="line"/>
    </contour>
  </outline>
</glyph>
<glyph name="dcroat" format="1">
  <advance width="660"/>
  <unicode hex="0111"/>
  <outline>
    <contour>
      <point x="725" y="602" type="line"/>
      <point x="613" y="0" type="line"/>
      <point x="491" y="0" type="line"/>
      <point x="505" y="72" type="line"/>
      <point x="442" y="13"/>
      <point x="380" y="-13"/>
      <point x="306" y="-13" type="curve" smooth="yes"/>
      <point x="169" y="-13"/>
      <point x="77" y="80"/>
      <point x="77" y="220" type="curve" smooth="yes"/>
      <point x="77" y="407"/>
      <point x="236" y="574"/>
      <point x="415" y="574" type="curve" smooth="yes"/>
      <point x="483" y="574"/>
      <point x="543" y="548"/>
      <point x="573" y="505" type="curve"/>
      <point x="592" y="602" type="line"/>
      <point x="479" y="602" type="line"/>
      <point x="495" y="689" type="line"/>
      <point x="608" y="689" type="line"/>
      <point x="617" y="739" type="line"/>
      <point x="750" y="739" type="line"/>
      <point x="741" y="689" type="line"/>
      <point x="801" y="689" type="line"/>
      <point x="785" y="602" type="line"/>
    </contour>
    <contour>
      <point x="413" y="452" type="curve" smooth="yes"/>
      <point x="305" y="452"/>
      <point x="214" y="359"/>
      <point x="214" y="248" type="curve" smooth="yes"/>
      <point x="214" y="165"/>
      <point x="270" y="109"/>
      <point x="351" y="109" type="curve" smooth="yes"/>
      <point x="453" y="109"/>
      <point x="546" y="207"/>
      <point x="546" y="314" type="curve" smooth="yes"/>
      <point x="546" y="396"/>
      <point x="493" y="452"/>
    </contour>
  </outline>
</glyph>
<glyph name="Eogonek" format="1">
  <advance width="520"/>
  <unicode hex="0118"/>
  <outline>
    <contour>
      <point x="602" y="739" type="line"/>
      <point x="578" y="607" type="line"/>
      <point x="318" y="607" type="line"/>
      <point x="285" y="435" type="line"/>
      <point x="534" y="435" type="line"/>
      <point x="510" y="303" type="line"/>
      <point x="261" y="303" type="line"/>
      <point x="229" y="132" type="line"/>
      <point x="489" y="132" type="line"/>
      <point x="465" y="0" type="line"/>
      <point x="406" y="-34"/>
      <point x="383" y="-60"/>
      <point x="383" y="-92" type="curve" smooth="yes"/>
      <point x="383" y="-113"/>
      <point x="397" y="-124"/>
      <point x="422" y="-124" type="curve" smooth="yes"/>
      <point x="436" y="-124"/>
      <point x="447" y="-121"/>
      <point x="470" y="-113" type="curve"/>
      <point x="455" y="-190" type="line"/>
      <point x="424" y="-201"/>
      <point x="407" y="-204"/>
      <point x="381" y="-204" type="curve" smooth="yes"/>
      <point x="322" y="-204"/>
      <point x="287" y="-173"/>
      <point x="287" y="-122" type="curve" smooth="yes"/>
      <point x="287" y="-81"/>
      <point x="307" y="-51"/>
      <point x="357" y="-21" type="curve" smooth="yes"/>
      <point x="365" y="-16"/>
      <point x="365" y="-16"/>
      <point x="395" y="0" type="curve"/>
      <point x="68" y="0" type="line"/>
      <point x="205" y="739" type="line"/>
    </contour>
  </outline>
</glyph>
<glyph name="eogonek" format="1">
  <advance width="640"/>
  <unicode hex="0119"/>
  <outline>
    <contour>
      <point x="645" y="218" type="curve"/>
      <point x="216" y="218" type="line"/>
      <point x="216" y="154"/>
      <point x="270" y="109"/>
      <point x="346" y="109" type="curve" smooth="yes"/>
      <point x="402" y="109"/>
      <point x="443" y="126"/>
      <point x="481" y="164" type="curve"/>
      <point x="626" y="164" type="line"/>
      <point x="600" y="117"/>
      <point x="564" y="78"/>
      <point x="480" y="8" type="curve" smooth="yes"/>
      <point x="405" y="-55"/>
      <point x="398" y="-63"/>
      <point x="398" y="-92" type="curve" smooth="yes"/>
      <point x="398" y="-112"/>
      <point x="412" y="-124"/>
      <point x="436" y="-124" type="curve" smooth="yes"/>
      <point x="451" y="-124"/>
      <point x="462" y="-122"/>
      <point x="485" y="-113" type="curve"/>
      <point x="470" y="-190" type="line"/>
      <point x="438" y="-201"/>
      <point x="421" y="-204"/>
      <point x="396" y="-204" type="curve" smooth="yes"/>
      <point x="338" y="-204"/>
      <point x="302" y="-172"/>
      <point x="302" y="-122" type="curve" smooth="yes"/>
      <point x="302" y="-74"/>
      <point x="326" y="-45"/>
      <point x="400" y="-6" type="curve"/>
      <point x="371" y="-11"/>
      <point x="352" y="-13"/>
      <point x="328" y="-13" type="curve" smooth="yes"/>
      <point x="179" y="-13"/>
      <point x="76" y="84"/>
      <point x="76" y="223" type="curve" smooth="yes"/>
      <point x="76" y="404"/>
      <point x="243" y="567"/>
      <point x="428" y="567" type="curve" smooth="yes"/>
      <point x="567" y="567"/>
      <point x="665" y="474"/>
      <point x="665" y="342" type="curve" smooth="yes"/>
      <point x="665" y="294"/>
      <point x="658" y="249"/>
    </contour>
    <contour>
      <point x="234" y="336" type="curve"/>
      <point x="541" y="336" type="line"/>
      <point x="537" y="408"/>
      <point x="492" y="445"/>
      <point x="407" y="445" type="curve" smooth="yes"/>
      <point x="330" y="445"/>
      <point x="260" y="401"/>
    </contour>
  </outline>
</glyph>
<glyph name="Hbar" format="1">
  <advance width="720"/>
  <unicode hex="0126"/>
  <outline>
    <contour>
      <point x="128" y="549" type="line"/>
      <point x="150" y="667" type="line"/>
      <point x="212" y="667" type="line"/>
      <point x="225" y="739" type="line"/>
      <point x="362" y="739" type="line"/>
      <point x="349" y="667" type="line"/>
      <point x="613" y="667" type="line"/>
      <point x="626" y="739" type="line"/>
      <point x="763" y="739" type="line"/>
      <point x="750" y="667" type="line"/>
      <point x="810" y="667" type="line"/>
      <point x="788" y="549" type="line"/>
      <point x="728" y="549" type="line"/>
      <point x="626" y="0" type="line"/>
      <point x="489" y="0" type="line"/>
      <point x="546" y="310" type="line"/>
      <point x="282" y="310" type="line"/>
      <point x="225" y="0" type="line"/>
      <point x="88" y="0" type="line"/>
      <point x="190" y="549" type="line"/>
    </contour>
    <contour>
      <point x="591" y="549" type="line"/>
      <point x="327" y="549" type="line"/>
      <point x="307" y="442" type="line"/>
      <point x="571" y="442" type="line"/>
    </contour>
  </outline>
</glyph>
<glyph name="hbar" format="1">
  <advance width="630"/>
  <unicode hex="0127"/>
  <outline>
    <contour>
      <point x="138" y="579" type="line"/>
      <point x="160" y="697" type="line"/>
      <point x="213" y="697" type="line"/>
      <point x="221" y="739" type="line"/>
      <point x="354" y="739" type="line"/>
      <point x="346" y="697" type="line"/>
      <point x="420" y="697" type="line"/>
      <point x="398" y="579" type="line"/>
      <point x="325" y="579" type="line"/>
      <point x="313" y="516" type="line"/>
      <point x="355" y="551"/>
      <point x="405" y="568"/>
      <point x="462" y="568" type="curve" smooth="yes"/>
      <point x="572" y="568"/>
      <point x="643" y="505"/>
      <point x="643" y="408" type="curve" smooth="yes"/>
      <point x="643" y="381"/>
      <point x="640" y="349"/>
      <point x="633" y="313" type="curve" smooth="yes"/>
      <point x="575" y="0" type="line"/>
      <point x="442" y="0" type="line"/>
      <point x="494" y="283" type="line" smooth="yes"/>
      <point x="500" y="315"/>
      <point x="503" y="343"/>
      <point x="503" y="364" type="curve" smooth="yes"/>
      <point x="503" y="416"/>
      <point x="471" y="446"/>
      <point x="416" y="446" type="curve" smooth="yes"/>
      <point x="372" y="446"/>
      <point x="334" y="427"/>
      <point x="308" y="393" type="curve"/>
      <point x="291" y="369"/>
      <point x="279" y="336"/>
      <point x="269" y="281" type="curve" smooth="yes"/>
      <point x="217" y="0" type="line"/>
      <point x="84" y="0" type="line"/>
      <point x="191" y="579" type="line"/>
    </contour>
  </outline>
</glyph>
<glyph name="Imacron" format="1">
  <advance width="280"/>
  <unicode hex="012A"/>
  <outline>
    <contour>
      <point x="68" y="0" type="line"/>
      <point x="205" y="739" type="line"/>
      <point x="342" y="739" type="line"/>
      <point x="205" y="0" type="line"/>
    </contour>
    <contour>
      <point x="139" y="825" type="line"/>
      <point x="156" y="924" type="line"/>
      <point x="436" y="924" type="line"/>
      <point x="418" y="825" type="line"/>
    </contour>
  </outline>
</glyph>
<glyph name="imacron" format="1">
  <advance width="240"/>
  <unicode hex="012B"/>
  <outline>
    <contour>
      <point x="54" y="0" type="line"/>
      <point x="157" y="554" type="line"/>
      <point x="290" y="554" type="line"/>
      <point x="187" y="0" type="line"/>
    </contour>
    <contour>
      <point x="99" y="650" type="line"/>
      <point x="116" y="749" type="line"/>
      <point x="396" y="749" type="line"/>
      <point x="378" y="650" type="line"/>
    </contour>
  </outline>
</glyph>
<glyph name="Iogonek" format="1">
  <advance width="280"/>
  <unicode hex="012E"/>
  <outline>
    <contour>
      <point x="342" y="739" type="line"/>
      <point x="205" y="0" type="line"/>
      <point x="146" y="-34"/>
      <point x="123" y="-60"/>
      <point x="123" y="-92" type="curve" smooth="yes"/>
      <point x="123" y="-113"/>
      <point x="137" y="-124"/>
      <point x="162" y="-124" type="curve" smooth="yes"/>
      <point x="176" y="-124"/>
      <point x="187" y="-121"/>
      <point x="210" y="-113" type="curve"/>
      <point x="195" y="-190" type="line"/>
      <point x="164" y="-201"/>
      <point x="147" y="-204"/>
      <point x="121" y="-204" type="curve" smooth="yes"/>
      <point x="62" y="-204"/>
      <point x="27" y="-173"/>
      <point x="27" y="-122" type="curve" smooth="yes"/>
      <point x="27" y="-81"/>
      <point x="47" y="-51"/>
      <point x="97" y="-21" type="curve" smooth="yes"/>
      <point x="105" y="-16"/>
      <point x="105" y="-16"/>
      <point x="135" y="0" type="curve"/>
      <point x="68" y="0" type="line"/>
      <point x="205" y="739" type="line"/>
    </contour>
  </outline>
</glyph>
<glyph name="Idotaccent" format="1">
  <advance width="280"/>
  <unicode hex="0130"/>
  <outline>
    <contour>
      <point x="68" y="0" type="line"/>
      <point x="205" y="739" type="line"/>
      <point x="342" y="739" type="line"/>
      <point x="205" y="0" type="line"/>
    </contour>
    <contour>
      <point x="219" y="805" type="line"/>
      <point x="244" y="937" type="line"/>
      <point x="377" y="937" type="line"/>
      <point x="352" y="805" type="line"/>
    </contour>
  </outline>
</glyph>
<glyph name="IJ" format="1">
  <advance width="786"/>
  <unicode hex="0132"/>
  <outline>
    <contour>
      <point x="714" y="739" type="line"/>
      <point x="851" y="739" type="line"/>
      <point x="753" y="212" type="line" smooth="yes"/>
      <point x="740" y="145"/>
      <point x="720" y="100"/>
      <point x="683" y="62" type="curve" smooth="yes"/>
      <point x="636" y="13"/>
      <point x="578" y="-13"/>
      <point x="512" y="-13" type="curve" smooth="yes"/>
      <point x="410" y="-13"/>
      <point x="338" y="50"/>
      <point x="338" y="140" type="curve" smooth="yes"/>
      <point x="338" y="149"/>
      <point x="339" y="161"/>
      <point x="340" y="175" type="curve"/>
      <point x="477" y="175" type="line"/>
      <point x="478" y="168" type="line" smooth="yes"/>
      <point x="483" y="134"/>
      <point x="500" y="119"/>
      <point x="533" y="119" type="curve" smooth="yes"/>
      <point x="578" y="119"/>
      <point x="605" y="150"/>
      <point x="617" y="216" type="curve" smooth="yes"/>
    </contour>
    <contour>
      <point x="68" y="0" type="line"/>
      <point x="205" y="739" type="line"/>
      <point x="342" y="739" type="line"/>
      <point x="205" y="0" type="line"/>
    </contour>
  </outline>
</glyph>
<glyph name="ij" format="1">
  <advance width="452"/>
  <unicode hex="0133"/>
  <outline>
    <contour>
      <point x="371" y="554" type="line"/>
      <point x="504" y="554" type="line"/>
      <point x="408" y="37" type="line"/>
      <point x="385" y="-101"/>
      <point x="301" y="-182"/>
      <point x="179" y="-185" type="curve"/>
      <point x="203" y="-56" type="line"/>
      <point x="253" y="-47"/>
      <point x="263" y="-34"/>
      <point x="276" y="40" type="curve" smooth="yes"/>
    </contour>
    <contour>
      <point x="382" y="614" type="line"/>
      <point x="405" y="739" type="line"/>
      <point x="538" y="739" type="line"/>
      <point x="515" y="614" type="line"/>
    </contour>
    <contour>
      <point x="54" y="0" type="line"/>
      <point x="157" y="554" type="line"/>
      <point x="290" y="554" type="line"/>
      <point x="187" y="0" type="line"/>
    </contour>
    <contour>
      <point x="168" y="614" type="line"/>
      <point x="191" y="739" type="line"/>
      <point x="324" y="739" type="line"/>
      <point x="301" y="614" type="line"/>
    </contour>
  </outline>
</glyph>
<glyph name="Jcircumflex" format="1">
  <advance width="480"/>
  <unicode hex="0134"/>
  <outline>
    <contour>
      <point x="287" y="839" type="line"/>
      <point x="460" y="977" type="line"/>
      <point x="567" y="977" type="line"/>
      <point x="686" y="839" type="line"/>
      <point x="541" y="839" type="line"/>
      <point x="500" y="903" type="line"/>
      <point x="434" y="839" type="line"/>
    </contour>
    <contour>
      <point x="414" y="739" type="line"/>
      <point x="551" y="739" type="line"/>
      <point x="453" y="212" type="line" smooth="yes"/>
      <point x="440" y="145"/>
      <point x="420" y="100"/>
      <point x="383" y="62" type="curve" smooth="yes"/>
      <point x="336" y="13"/>
      <point x="278" y="-13"/>
      <point x="212" y="-13" type="curve" smooth="yes"/>
      <point x="110" y="-13"/>
      <point x="38" y="50"/>
      <point x="38" y="140" type="curve" smooth="yes"/>
      <point x="38" y="149"/>
      <point x="39" y="161"/>
      <point x="40" y="175" type="curve"/>
      <point x="177" y="175" type="line"/>
      <point x="178" y="168" type="line" smooth="yes"/>
      <point x="183" y="134"/>
      <point x="200" y="119"/>
      <point x="233" y="119" type="curve" smooth="yes"/>
      <point x="278" y="119"/>
      <point x="305" y="150"/>
      <point x="317" y="216" type="curve" smooth="yes"/>
    </contour>
  </outline>
</glyph>
<glyph name="jcircumflex" format="1">
  <advance width="260"/>
  <unicode hex="0135"/>
  <outline>
    <contour>
      <point x="175" y="554" type="line"/>
      <point x="308" y="554" type="line"/>
      <point x="212" y="37" type="line"/>
      <point x="189" y="-101"/>
      <point x="105" y="-182"/>
      <point x="-17" y="-185" type="curve"/>
      <point x="7" y="-56" type="line"/>
      <point x="57" y="-47"/>
      <point x="67" y="-34"/>
      <point x="80" y="40" type="curve" smooth="yes"/>
    </contour>
    <contour>
      <point x="49" y="630" type="line"/>
      <point x="222" y="768" type="line"/>
      <point x="329" y="768" type="line"/>
      <point x="448" y="630" type="line"/>
      <point x="303" y="630" type="line"/>
      <point x="262" y="694" type="line"/>
      <point x="196" y="630" type="line"/>
    </contour>
  </outline>
</glyph>
<glyph name="Lacute" format="1">
  <advance width="440"/>
  <unicode hex="0139"/>
  <outline>
    <contour>
      <point x="68" y="0" type="line"/>
      <point x="205" y="739" type="line"/>
      <point x="342" y="739" type="line"/>
      <point x="229" y="132" type="line"/>
      <point x="456" y="132" type="line"/>
      <point x="432" y="0" type="line"/>
    </contour>
    <contour>
      <point x="255" y="792" type="line"/>
      <point x="215" y="880" type="line"/>
      <point x="451" y="1007" type="line"/>
      <point x="498" y="908" type="line"/>
    </contour>
  </outline>
</glyph>
<glyph name="lacute" format="1">
  <advance width="240"/>
  <unicode hex="013A"/>
  <outline>
    <contour>
      <point x="54" y="0" type="line"/>
      <point x="191" y="739" type="line"/>
      <point x="324" y="739" type="line"/>
      <point x="187" y="0" type="line"/>
    </contour>
    <contour>
      <point x="155" y="792" type="line"/>
      <point x="115" y="880" type="line"/>
      <point x="351" y="1007" type="line"/>
      <point x="398" y="908" type="line"/>
    </contour>
  </outline>
</glyph>
<glyph name="Lcommaaccent" format="1">
  <advance width="440"/>
  <unicode hex="013B"/>
  <outline>
    <contour>
      <point x="68" y="0" type="line"/>
      <point x="205" y="739" type="line"/>
      <point x="342" y="739" type="line"/>
      <point x="229" y="132" type="line"/>
      <point x="456" y="132" type="line"/>
      <point x="432" y="0" type="line"/>
    </contour>
    <contour>
      <point x="93" y="-245" type="line"/>
      <point x="186" y="-53" type="line"/>
      <point x="291" y="-53" type="line"/>
      <point x="197" y="-245" type="line"/>
    </contour>
  </outline>
</glyph>
<glyph name="lcommaaccent" format="1">
  <advance width="240"/>
  <unicode hex="013C"/>
  <outline>
    <contour>
      <point x="54" y="0" type="line"/>
      <point x="191" y="739" type="line"/>
      <point x="324" y="739" type="line"/>
      <point x="187" y="0" type="line"/>
    </contour>
    <contour>
      <point x="-7" y="-245" type="line"/>
      <point x="86" y="-53" type="line"/>
      <point x="191" y="-53" type="line"/>
      <point x="97" y="-245" type="line"/>
    </contour>
  </outline>
</glyph>
<glyph name="Lcaron" format="1">
  <advance width="440"/>
  <unicode hex="013D"/>
  <outline>
    <contour>
      <point x="68" y="0" type="line"/>
      <point x="205" y="739" type="line"/>
      <point x="342" y="739" type="line"/>
      <point x="229" y="132" type="line"/>
      <point x="456" y="132" type="line"/>
      <point x="432" y="0" type="line"/>
    </contour>
    <contour>
      <point x="333" y="547" type="line"/>
      <point x="426" y="739" type="line"/>
      <point x="531" y="739" type="line"/>
      <point x="437" y="547" type="line"/>
    </contour>
  </outline>
</glyph>
<glyph name="Ldot" format="1">
  <advance width="440"/>
  <unicode hex="013F"/>
  <outline>
    <contour>
      <point x="293" y="304" type="line"/>
      <point x="318" y="436" type="line"/>
      <point x="450" y="436" type="line"/>
      <point x="425" y="304" type="line"/>
    </contour>
    <contour>
      <point x="68" y="0" type="line"/>
      <point x="205" y="739" type="line"/>
      <point x="342" y="739" type="line"/>
      <point x="229" y="132" type="line"/>
      <point x="456" y="132" type="line"/>
      <point x="432" y="0" type="line"/>
    </contour>
  </outline>
</glyph>
<glyph name="ldot" format="1">
  <advance width="476"/>
  <unicode hex="0140"/>
  <outline>
    <contour>
      <point x="289" y="300" type="line"/>
      <point x="314" y="432" type="line"/>
      <point x="446" y="432" type="line"/>
      <point x="421" y="300" type="line"/>
    </contour>
    <contour>
      <point x="54" y="0" type="line"/>
      <point x="191" y="739" type="line"/>
      <point x="324" y="739" type="line"/>
      <point x="187" y="0" type="line"/>
    </contour>
  </outline>
</glyph>
<glyph name="lslash" format="1">
  <advance width="320"/>
  <unicode hex="0142"/>
  <outline>
    <contour>
      <point x="98" y="0" type="line"/>
      <point x="156" y="308" type="line"/>
      <point x="59" y="241" type="line"/>
      <point x="81" y="357" type="line"/>
      <point x="178" y="425" type="line"/>
      <point x="235" y="739" type="line"/>
      <point x="368" y="739" type="line"/>
      <point x="321" y="487" type="line"/>
      <point x="420" y="552" type="line"/>
      <point x="398" y="435" type="line"/>
      <point x="300" y="370" type="line"/>
      <point x="231" y="0" type="line"/>
    </contour>
  </outline>
</glyph>
<glyph name="Nacute" format="1">
  <advance width="740"/>
  <unicode hex="0143"/>
  <outline>
    <contour>
      <point x="68" y="0" type="line"/>
      <point x="205" y="739" type="line"/>
      <point x="361" y="739" type="line"/>
      <point x="567" y="201" type="line"/>
      <point x="667" y="739" type="line"/>
      <point x="804" y="739" type="line"/>
      <point x="667" y="0" type="line"/>
      <point x="514" y="0" type="line"/>
      <point x="305" y="537" type="line"/>
      <point x="205" y="0" type="line"/>
    </contour>
    <contour>
      <point x="425" y="792" type="line"/>
      <point x="385" y="880" type="line"/>
      <point x="621" y="1007" type="line"/>
      <point x="668" y="908" type="line"/>
    </contour>
  </outline>
</glyph>
<glyph name="Ncommaaccent" format="1">
  <advance width="740"/>
  <unicode hex="0145"/>
  <outline>
    <contour>
      <point x="68" y="0" type="line"/>
      <point x="205" y="739" type="line"/>
      <point x="361" y="739" type="line"/>
      <point x="567" y="201" type="line"/>
      <point x="667" y="739" type="line"/>
      <point x="804" y="739" type="line"/>
      <point x="667" y="0" type="line"/>
      <point x="514" y="0" type="line"/>
      <point x="305" y="537" type="line"/>
      <point x="205" y="0" type="line"/>
    </contour>
    <contour>
      <point x="243" y="-245" type="line"/>
      <point x="336" y="-53" type="line"/>
      <point x="441" y="-53" type="line"/>
      <point x="347" y="-245" type="line"/>
    </contour>
  </outline>
</glyph>
<glyph name="napostrophe" format="1">
  <advance width="600"/>
  <unicode hex="0149"/>
  <outline>
    <contour>
      <point x="192" y="730" type="line"/>
      <point x="216" y="858" type="line"/>
      <point x="348" y="858" type="line"/>
      <point x="323" y="723" type="line" smooth="yes"/>
      <point x="315" y="678"/>
      <point x="303" y="656"/>
      <point x="276" y="631" type="curve" smooth="yes"/>
      <point x="249" y="607"/>
      <point x="209" y="590"/>
      <point x="177" y="590" type="curve" smooth="yes"/>
      <point x="168" y="590" type="line"/>
      <point x="166" y="590" type="line"/>
      <point x="178" y="657" type="line"/>
      <point x="226" y="664"/>
      <point x="248" y="686"/>
      <point x="250" y="730" type="curve"/>
    </contour>
    <contour>
      <point x="54" y="0" type="line"/>
      <point x="157" y="554" type="line"/>
      <point x="280" y="554" type="line"/>
      <point x="270" y="501" type="line"/>
      <point x="331" y="550"/>
      <point x="374" y="567"/>
      <point x="435" y="567" type="curve" smooth="yes"/>
      <point x="549" y="567"/>
      <point x="613" y="509"/>
      <point x="613" y="403" type="curve" smooth="yes"/>
      <point x="613" y="375"/>
      <point x="609" y="341"/>
      <point x="601" y="297" type="curve" smooth="yes"/>
      <point x="546" y="0" type="line"/>
      <point x="413" y="0" type="line"/>
      <point x="463" y="271" type="line" smooth="yes"/>
      <point x="469" y="304"/>
      <point x="472" y="334"/>
      <point x="472" y="363" type="curve" smooth="yes"/>
      <point x="472" y="417"/>
      <point x="443" y="445"/>
      <point x="388" y="445" type="curve" smooth="yes"/>
      <point x="347" y="445"/>
      <point x="311" y="428"/>
      <point x="282" y="394" type="curve" smooth="yes"/>
      <point x="261" y="368"/>
      <point x="248" y="333"/>
      <point x="235" y="261" type="curve" smooth="yes"/>
      <point x="187" y="0" type="line"/>
    </contour>
  </outline>
</glyph>
<glyph name="Eng" format="1">
  <advance width="740"/>
  <unicode hex="014A"/>
  <outline>
    <contour>
      <point x="514" y="0" type="curve"/>
      <point x="305" y="537" type="line"/>
      <point x="205" y="0" type="line"/>
      <point x="68" y="0" type="line"/>
      <point x="205" y="739" type="line"/>
      <point x="361" y="739" type="line"/>
      <point x="567" y="201" type="line"/>
      <point x="667" y="739" type="line"/>
      <point x="804" y="739" type="line"/>
      <point x="667" y="0" type="line" smooth="yes"/>
      <point x="650" y="-93"/>
      <point x="577" y="-160"/>
      <point x="466" y="-160" type="curve" smooth="yes"/>
      <point x="408" y="-160" type="line"/>
      <point x="427" y="-61" type="line"/>
      <point x="482" y="-61"/>
      <point x="505" y="-48"/>
    </contour>
  </outline>
</glyph>
<glyph name="Omacron" format="1">
  <advance width="840"/>
  <unicode hex="014C"/>
  <outline>
    <contour>
      <point x="559" y="752" type="curve" smooth="yes"/>
      <point x="743" y="752"/>
      <point x="875" y="622"/>
      <point x="875" y="439" type="curve" smooth="yes"/>
      <point x="875" y="201"/>
      <point x="658" y="-13"/>
      <point x="416" y="-13" type="curve" smooth="yes"/>
      <point x="227" y="-13"/>
      <point x="91" y="118"/>
      <point x="91" y="300" type="curve" smooth="yes"/>
      <point x="91" y="401"/>
      <point x="137" y="513"/>
      <point x="212" y="595" type="curve" smooth="yes"/>
      <point x="305" y="696"/>
      <point x="429" y="752"/>
    </contour>
    <contour>
      <point x="532" y="620" type="curve" smooth="yes"/>
      <point x="439" y="620"/>
      <point x="356" y="578"/>
      <point x="297" y="501" type="curve" smooth="yes"/>
      <point x="256" y="448"/>
      <point x="231" y="381"/>
      <point x="231" y="323" type="curve" smooth="yes"/>
      <point x="231" y="204"/>
      <point x="318" y="119"/>
      <point x="440" y="119" type="curve" smooth="yes"/>
      <point x="531" y="119"/>
      <point x="615" y="162"/>
      <point x="672" y="238" type="curve" smooth="yes"/>
      <point x="711" y="290"/>
      <point x="735" y="359"/>
      <point x="735" y="419" type="curve" smooth="yes"/>
      <point x="735" y="536"/>
      <point x="650" y="620"/>
    </contour>
    <contour>
      <point x="409" y="825" type="line"/>
      <point x="426" y="924" type="line"/>
      <point x="706" y="924" type="line"/>
      <point x="688" y="825" type="line"/>
    </contour>
  </outline>
</glyph>
<glyph name="obreve" format="1">
  <advance width="640"/>
  <unicode hex="014F"/>
  <outline>
    <contour>
      <point x="307" y="790" type="curve"/>
      <point x="405" y="790" type="line"/>
      <point x="411" y="762"/>
      <point x="431" y="748"/>
      <point x="466" y="748" type="curve" smooth="yes"/>
      <point x="498" y="748"/>
      <point x="521" y="762"/>
      <point x="537" y="790" type="curve"/>
      <point x="636" y="790" type="line"/>
      <point x="617" y="709"/>
      <point x="540" y="654"/>
      <point x="449" y="654" type="curve" smooth="yes"/>
      <point x="360" y="654"/>
      <point x="306" y="698"/>
      <point x="306" y="771" type="curve" smooth="yes"/>
      <point x="306" y="775"/>
      <point x="306" y="782"/>
    </contour>
    <contour>
      <point x="431" y="567" type="curve" smooth="yes"/>
      <point x="573" y="567"/>
      <point x="675" y="466"/>
      <point x="675" y="327" type="curve" smooth="yes"/>
      <point x="675" y="148"/>
      <point x="506" y="-13"/>
      <point x="318" y="-13" type="curve" smooth="yes"/>
      <point x="181" y="-13"/>
      <point x="76" y="88"/>
      <point x="76" y="221" type="curve" smooth="yes"/>
      <point x="76" y="404"/>
      <point x="243" y="567"/>
    </contour>
    <contour>
      <point x="408" y="445" type="curve" smooth="yes"/>
      <point x="306" y="445"/>
      <point x="213" y="349"/>
      <point x="213" y="244" type="curve" smooth="yes"/>
      <point x="213" y="166"/>
      <point x="269" y="109"/>
      <point x="345" y="109" type="curve" smooth="yes"/>
      <point x="445" y="109"/>
      <point x="538" y="206"/>
      <point x="538" y="309" type="curve" smooth="yes"/>
      <point x="538" y="387"/>
      <point x="483" y="445"/>
    </contour>
  </outline>
</glyph>
<glyph name="Racute" format="1">
  <advance width="580"/>
  <unicode hex="0154"/>
  <outline>
    <contour>
      <point x="68" y="0" type="line"/>
      <point x="205" y="739" type="line"/>
      <point x="418" y="739" type="line" smooth="yes"/>
      <point x="517" y="739"/>
      <point x="570" y="724"/>
      <point x="608" y="683" type="curve"/>
      <point x="641" y="649"/>
      <point x="657" y="605"/>
      <point x="657" y="553" type="curve" smooth="yes"/>
      <point x="657" y="480"/>
      <point x="629" y="409"/>
      <point x="581" y="359" type="curve" smooth="yes"/>
      <point x="540" y="316"/>
      <point x="493" y="291"/>
      <point x="419" y="273" type="curve"/>
      <point x="568" y="0" type="line"/>
      <point x="399" y="0" type="line"/>
      <point x="257" y="283" type="line"/>
      <point x="205" y="0" type="line"/>
    </contour>
    <contour>
      <point x="277" y="386" type="line"/>
      <point x="344" y="386" type="line" smooth="yes"/>
      <point x="419" y="386"/>
      <point x="455" y="398"/>
      <point x="483" y="431" type="curve" smooth="yes"/>
      <point x="503" y="454"/>
      <point x="517" y="491"/>
      <point x="517" y="521" type="curve" smooth="yes"/>
      <point x="517" y="551"/>
      <point x="504" y="577"/>
      <point x="483" y="590" type="curve" smooth="yes"/>
      <point x="464" y="601"/>
      <point x="430" y="607"/>
      <point x="379" y="607" type="curve" smooth="yes"/>
      <point x="318" y="607" type="line"/>
    </contour>
    <contour>
      <point x="325" y="792" type="line"/>
      <point x="285" y="880" type="line"/>
      <point x="521" y="1007" type="line"/>
      <point x="568" y="908" type="line"/>
    </contour>
  </outline>
</glyph>
<glyph name="racute" format="1">
  <advance width="320"/>
  <unicode hex="0155"/>
  <outline>
    <contour>
      <point x="54" y="0" type="line"/>
      <point x="157" y="554" type="line"/>
      <point x="279" y="554" type="line"/>
      <point x="269" y="500" type="line"/>
      <point x="312" y="552"/>
      <point x="347" y="569"/>
      <point x="412" y="567" type="curve"/>
      <point x="388" y="439" type="line"/>
      <point x="310" y="438"/>
      <point x="255" y="388"/>
      <point x="244" y="308" type="curve"/>
      <point x="187" y="0" type="line"/>
    </contour>
    <contour>
      <point x="195" y="617" type="line"/>
      <point x="155" y="705" type="line"/>
      <point x="391" y="832" type="line"/>
      <point x="438" y="733" type="line"/>
    </contour>
  </outline>
</glyph>
<glyph name="rcaron" format="1">
  <advance width="320"/>
  <unicode hex="0159"/>
  <outline>
    <contour>
      <point x="54" y="0" type="line"/>
      <point x="157" y="554" type="line"/>
      <point x="279" y="554" type="line"/>
      <point x="269" y="500" type="line"/>
      <point x="312" y="552"/>
      <point x="347" y="569"/>
      <point x="412" y="567" type="curve"/>
      <point x="388" y="439" type="line"/>
      <point x="310" y="438"/>
      <point x="255" y="388"/>
      <point x="244" y="308" type="curve"/>
      <point x="187" y="0" type="line"/>
    </contour>
    <contour>
      <point x="104" y="768" type="line"/>
      <point x="251" y="768" type="line"/>
      <point x="293" y="704" type="line"/>
      <point x="358" y="768" type="line"/>
      <point x="503" y="768" type="line"/>
      <point x="332" y="630" type="line"/>
      <point x="225" y="630" type="line"/>
    </contour>
  </outline>
</glyph>
<glyph name="Tcommaaccent" format="1">
  <advance width="420"/>
  <unicode hex="0162"/>
  <outline>
    <contour>
      <point x="142" y="0" type="line"/>
      <point x="255" y="607" type="line"/>
      <point x="119" y="607" type="line"/>
      <point x="143" y="739" type="line"/>
      <point x="555" y="739" type="line"/>
      <point x="531" y="607" type="line"/>
      <point x="392" y="607" type="line"/>
      <point x="279" y="0" type="line"/>
    </contour>
    <contour>
      <point x="83" y="-245" type="line"/>
      <point x="176" y="-53" type="line"/>
      <point x="281" y="-53" type="line"/>
      <point x="187" y="-245" type="line"/>
    </contour>
  </outline>
</glyph>
<glyph name="Tcaron" format="1">
  <advance width="420"/>
  <unicode hex="0164"/>
  <outline>
    <contour>
      <point x="142" y="0" type="line"/>
      <point x="255" y="607" type="line"/>
      <point x="119" y="607" type="line"/>
      <point x="143" y="739" type="line"/>
      <point x="555" y="739" type="line"/>
      <point x="531" y="607" type="line"/>
      <point x="392" y="607" type="line"/>
      <point x="279" y="0" type="line"/>
    </contour>
    <contour>
      <point x="174" y="943" type="line"/>
      <point x="321" y="943" type="line"/>
      <point x="363" y="879" type="line"/>
      <point x="428" y="943" type="line"/>
      <point x="573" y="943" type="line"/>
      <point x="402" y="805" type="line"/>
      <point x="295" y="805" type="line"/>
    </contour>
  </outline>
</glyph>
<glyph name="tcaron" format="1">
  <advance width="364"/>
  <unicode hex="0165"/>
  <outline>
    <contour>
      <point x="74" y="0" type="line"/>
      <point x="154" y="433" type="line"/>
      <point x="89" y="433" type="line"/>
      <point x="112" y="554" type="line"/>
      <point x="177" y="554" type="line"/>
      <point x="211" y="739" type="line"/>
      <point x="344" y="739" type="line"/>
      <point x="310" y="554" type="line"/>
      <point x="390" y="554" type="line"/>
      <point x="367" y="433" type="line"/>
      <point x="287" y="433" type="line"/>
      <point x="207" y="0" type="line"/>
    </contour>
    <contour>
      <point x="360" y="577" type="line"/>
      <point x="440" y="739" type="line"/>
      <point x="544" y="739" type="line"/>
      <point x="464" y="577" type="line"/>
    </contour>
  </outline>
</glyph>
<glyph name="Tbar" format="1">
  <advance width="420"/>
  <unicode hex="0166"/>
  <outline>
    <contour>
      <point x="345" y="355" type="line"/>
      <point x="279" y="0" type="line"/>
      <point x="142" y="0" type="line"/>
      <point x="208" y="355" type="line"/>
      <point x="135" y="355" type="line"/>
      <point x="152" y="454" type="line"/>
      <point x="227" y="454" type="line"/>
      <point x="255" y="607" type="line"/>
      <point x="119" y="607" type="line"/>
      <point x="143" y="739" type="line"/>
      <point x="555" y="739" type="line"/>
      <point x="531" y="607" type="line"/>
      <point x="392" y="607" type="line"/>
      <point x="364" y="454" type="line"/>
      <point x="432" y="454" type="line"/>
      <point x="414" y="355" type="line"/>
    </contour>
  </outline>
</glyph>
<glyph name="Utilde" format="1">
  <advance width="640"/>
  <unicode hex="0168"/>
  <outline>
    <contour>
      <point x="364" y="840" type="curve"/>
      <point x="326" y="925" type="line"/>
      <point x="353" y="953"/>
      <point x="393" y="973"/>
      <point x="423" y="973" type="curve" smooth="yes"/>
      <point x="436" y="973"/>
      <point x="459" y="966"/>
      <point x="483" y="956" type="curve" smooth="yes"/>
      <point x="510" y="944"/>
      <point x="516" y="942"/>
      <point x="533" y="942" type="curve" smooth="yes"/>
      <point x="561" y="942"/>
      <point x="568" y="945"/>
      <point x="614" y="977" type="curve"/>
      <point x="648" y="895" type="line"/>
      <point x="617" y="856"/>
      <point x="584" y="839"/>
      <point x="540" y="839" type="curve" smooth="yes"/>
      <point x="523" y="839"/>
      <point x="514" y="841"/>
      <point x="478" y="854" type="curve" smooth="yes"/>
      <point x="448" y="865"/>
      <point x="430" y="870"/>
      <point x="419" y="870" type="curve" smooth="yes"/>
      <point x="404" y="870"/>
      <point x="391" y="863"/>
    </contour>
    <contour>
      <point x="205" y="739" type="line"/>
      <point x="342" y="739" type="line"/>
      <point x="256" y="271" type="line" smooth="yes"/>
      <point x="250" y="239"/>
      <point x="247" y="215"/>
      <point x="247" y="201" type="curve" smooth="yes"/>
      <point x="247" y="156"/>
      <point x="289" y="119"/>
      <point x="339" y="119" type="curve" smooth="yes"/>
      <point x="379" y="119"/>
      <point x="418" y="138"/>
      <point x="443" y="169" type="curve" smooth="yes"/>
      <point x="461" y="192"/>
      <point x="472" y="220"/>
      <point x="481" y="271" type="curve" smooth="yes"/>
      <point x="567" y="739" type="line"/>
      <point x="704" y="739" type="line"/>
      <point x="618" y="271" type="line" smooth="yes"/>
      <point x="603" y="188"/>
      <point x="576" y="128"/>
      <point x="533" y="82" type="curve" smooth="yes"/>
      <point x="478" y="24"/>
      <point x="394" y="-13"/>
      <point x="315" y="-13" type="curve" smooth="yes"/>
      <point x="196" y="-13"/>
      <point x="109" y="67"/>
      <point x="109" y="176" type="curve" smooth="yes"/>
      <point x="109" y="203"/>
      <point x="112" y="235"/>
      <point x="119" y="271" type="curve" smooth="yes"/>
    </contour>
  </outline>
</glyph>
<glyph name="utilde" format="1">
  <advance width="600"/>
  <unicode hex="0169"/>
  <outline>
    <contour>
      <point x="311" y="655" type="curve"/>
      <point x="273" y="740" type="line"/>
      <point x="300" y="768"/>
      <point x="340" y="788"/>
      <point x="370" y="788" type="curve" smooth="yes"/>
      <point x="383" y="788"/>
      <point x="406" y="781"/>
      <point x="430" y="771" type="curve" smooth="yes"/>
      <point x="457" y="759"/>
      <point x="463" y="757"/>
      <point x="480" y="757" type="curve" smooth="yes"/>
      <point x="508" y="757"/>
      <point x="515" y="760"/>
      <point x="561" y="792" type="curve"/>
      <point x="595" y="710" type="line"/>
      <point x="564" y="671"/>
      <point x="531" y="654"/>
      <point x="487" y="654" type="curve" smooth="yes"/>
      <point x="470" y="654"/>
      <point x="461" y="656"/>
      <point x="425" y="669" type="curve" smooth="yes"/>
      <point x="395" y="680"/>
      <point x="377" y="685"/>
      <point x="366" y="685" type="curve" smooth="yes"/>
      <point x="351" y="685"/>
      <point x="338" y="678"/>
    </contour>
    <contour>
      <point x="650" y="554" type="line"/>
      <point x="547" y="0" type="line"/>
      <point x="424" y="0" type="line"/>
      <point x="434" y="53" type="line"/>
      <point x="377" y="6"/>
      <point x="328" y="-13"/>
      <point x="260" y="-13" type="curve" smooth="yes"/>
      <point x="207" y="-13"/>
      <point x="163" y="3"/>
      <point x="135" y="31" type="curve" smooth="yes"/>
      <point x="108" y="59"/>
      <point x="88" y="109"/>
      <point x="88" y="152" type="curve" smooth="yes"/>
      <point x="88" y="178"/>
      <point x="92" y="214"/>
      <point x="100" y="257" type="curve" smooth="yes"/>
      <point x="155" y="554" type="line"/>
      <point x="288" y="554" type="line"/>
      <point x="238" y="283" type="line" smooth="yes"/>
      <point x="231" y="248"/>
      <point x="228" y="214"/>
      <point x="228" y="187" type="curve" smooth="yes"/>
      <point x="228" y="138"/>
      <point x="259" y="109"/>
      <point x="310" y="109" type="curve" smooth="yes"/>
      <point x="356" y="109"/>
      <point x="397" y="127"/>
      <point x="423" y="160" type="curve" smooth="yes"/>
      <point x="443" y="184"/>
      <point x="456" y="224"/>
      <point x="469" y="293" type="curve" smooth="yes"/>
      <point x="517" y="554" type="line"/>
    </contour>
  </outline>
</glyph>
<glyph name="uring" format="1">
  <advance width="600"/>
  <unicode hex="016F"/>
  <outline>
    <contour>
      <point x="650" y="554" type="line"/>
      <point x="547" y="0" type="line"/>
      <point x="424" y="0" type="line"/>
      <point x="434" y="53" type="line"/>
      <point x="377" y="6"/>
      <point x="328" y="-13"/>
      <point x="260" y="-13" type="curve" smooth="yes"/>
      <point x="207" y="-13"/>
      <point x="163" y="3"/>
      <point x="135" y="31" type="curve" smooth="yes"/>
      <point x="108" y="59"/>
      <point x="88" y="109"/>
      <point x="88" y="152" type="curve" smooth="yes"/>
      <point x="88" y="178"/>
      <point x="92" y="214"/>
      <point x="100" y="257" type="curve" smooth="yes"/>
      <point x="155" y="554" type="line"/>
      <point x="288" y="554" type="line"/>
      <point x="238" y="283" type="line" smooth="yes"/>
      <point x="231" y="248"/>
      <point x="228" y="214"/>
      <point x="228" y="187" type="curve" smooth="yes"/>
      <point x="228" y="138"/>
      <point x="259" y="109"/>
      <point x="310" y="109" type="curve" smooth="yes"/>
      <point x="356" y="109"/>
      <point x="397" y="127"/>
      <point x="423" y="160" type="curve" smooth="yes"/>
      <point x="443" y="184"/>
      <point x="456" y="224"/>
      <point x="469" y="293" type="curve" smooth="yes"/>
      <point x="517" y="554" type="line"/>
    </contour>
    <contour>
      <point x="451" y="823" type="curve" smooth="yes"/>
      <point x="499" y="823"/>
      <point x="536" y="787"/>
      <point x="536" y="740" type="curve" smooth="yes"/>
      <point x="536" y="675"/>
      <point x="477" y="617"/>
      <point x="411" y="617" type="curve" smooth="yes"/>
      <point x="362" y="617"/>
      <point x="326" y="652"/>
      <point x="326" y="700" type="curve" smooth="yes"/>
      <point x="326" y="765"/>
      <point x="385" y="823"/>
    </contour>
    <contour>
      <point x="438" y="756" type="curve" smooth="yes"/>
      <point x="415" y="756"/>
      <point x="394" y="735"/>
      <point x="394" y="712" type="curve" smooth="yes"/>
      <point x="394" y="697"/>
      <point x="408" y="684"/>
      <point x="425" y="684" type="curve" smooth="yes"/>
      <point x="447" y="684"/>
      <point x="468" y="705"/>
      <point x="468" y="726" type="curve" smooth="yes"/>
      <point x="468" y="742"/>
      <point x="454" y="756"/>
    </contour>
  </outline>
</glyph>
<glyph name="Uogonek" format="1">
  <advance width="640"/>
  <unicode hex="0172"/>
  <outline>
    <contour>
      <point x="567" y="739" type="line"/>
      <point x="704" y="739" type="line"/>
      <point x="618" y="271" type="line"/>
      <point x="589" y="136"/>
      <point x="571" y="109"/>
      <point x="417" y="-28" type="curve" smooth="yes"/>
      <point x="387" y="-56"/>
      <point x="378" y="-70"/>
      <point x="378" y="-92" type="curve" smooth="yes"/>
      <point x="378" y="-113"/>
      <point x="392" y="-124"/>
      <point x="417" y="-124" type="curve" smooth="yes"/>
      <point x="431" y="-124"/>
      <point x="442" y="-121"/>
      <point x="465" y="-113" type="curve"/>
      <point x="450" y="-190" type="line"/>
      <point x="419" y="-201"/>
      <point x="402" y="-204"/>
      <point x="376" y="-204" type="curve" smooth="yes"/>
      <point x="317" y="-204"/>
      <point x="282" y="-173"/>
      <point x="282" y="-122" type="curve" smooth="yes"/>
      <point x="282" y="-73"/>
      <point x="304" y="-47"/>
      <point x="381" y="-5" type="curve"/>
      <point x="352" y="-11"/>
      <point x="337" y="-13"/>
      <point x="315" y="-13" type="curve" smooth="yes"/>
      <point x="196" y="-13"/>
      <point x="109" y="67"/>
      <point x="109" y="176" type="curve" smooth="yes"/>
      <point x="109" y="203"/>
      <point x="112" y="235"/>
      <point x="119" y="271" type="curve" smooth="yes"/>
      <point x="205" y="739" type="line"/>
      <point x="342" y="739" type="line"/>
      <point x="256" y="271" type="line" smooth="yes"/>
      <point x="250" y="239"/>
      <point x="247" y="215"/>
      <point x="247" y="201" type="curve" smooth="yes"/>
      <point x="247" y="156"/>
      <point x="289" y="119"/>
      <point x="339" y="119" type="curve" smooth="yes"/>
      <point x="379" y="119"/>
      <point x="418" y="138"/>
      <point x="443" y="169" type="curve" smooth="yes"/>
      <point x="461" y="192"/>
      <point x="472" y="220"/>
      <point x="481" y="271" type="curve" smooth="yes"/>
    </contour>
  </outline>
</glyph>
<glyph name="uogonek" format="1">
  <advance width="600"/>
  <unicode hex="0173"/>
  <outline>
    <contour>
      <point x="650" y="554" type="line"/>
      <point x="547" y="0" type="line"/>
      <point x="488" y="-34"/>
      <point x="465" y="-60"/>
      <point x="465" y="-92" type="curve" smooth="yes"/>
      <point x="465" y="-112"/>
      <point x="479" y="-124"/>
      <point x="503" y="-124" type="curve" smooth="yes"/>
      <point x="518" y="-124"/>
      <point x="529" y="-122"/>
      <point x="552" y="-113" type="curve"/>
      <point x="537" y="-190" type="line"/>
      <point x="505" y="-201"/>
      <point x="488" y="-204"/>
      <point x="463" y="-204" type="curve" smooth="yes"/>
      <point x="405" y="-204"/>
      <point x="369" y="-172"/>
      <point x="369" y="-122" type="curve" smooth="yes"/>
      <point x="369" y="-71"/>
      <point x="393" y="-45"/>
      <point x="477" y="0" type="curve"/>
      <point x="424" y="0" type="line"/>
      <point x="434" y="53" type="line"/>
      <point x="377" y="6"/>
      <point x="328" y="-13"/>
      <point x="260" y="-13" type="curve" smooth="yes"/>
      <point x="207" y="-13"/>
      <point x="163" y="3"/>
      <point x="135" y="31" type="curve" smooth="yes"/>
      <point x="108" y="59"/>
      <point x="88" y="109"/>
      <point x="88" y="152" type="curve" smooth="yes"/>
      <point x="88" y="178"/>
      <point x="92" y="214"/>
      <point x="100" y="257" type="curve" smooth="yes"/>
      <point x="155" y="554" type="line"/>
      <point x="288" y="554" type="line"/>
      <point x="238" y="283" type="line" smooth="yes"/>
      <point x="231" y="248"/>
      <point x="228" y="214"/>
      <point x="228" y="187" type="curve" smooth="yes"/>
      <point x="228" y="138"/>
      <point x="259" y="109"/>
      <point x="310" y="109" type="curve" smooth="yes"/>
      <point x="356" y="109"/>
      <point x="397" y="127"/>
      <point x="423" y="160" type="curve" smooth="yes"/>
      <point x="443" y="184"/>
      <point x="456" y="224"/>
      <point x="469" y="293" type="curve" smooth="yes"/>
      <point x="517" y="554" type="line"/>
    </contour>
  </outline>
</glyph>
<glyph name="Wcircumflex" format="1">
  <advance width="900"/>
  <unicode hex="0174"/>
  <outline>
    <contour>
      <point x="409" y="839" type="line"/>
      <point x="582" y="977" type="line"/>
      <point x="689" y="977" type="line"/>
      <point x="808" y="839" type="line"/>
      <point x="663" y="839" type="line"/>
      <point x="622" y="903" type="line"/>
      <point x="556" y="839" type="line"/>
    </contour>
    <contour>
      <point x="224" y="0" type="line"/>
      <point x="144" y="739" type="line"/>
      <point x="284" y="739" type="line"/>
      <point x="318" y="223" type="line"/>
      <point x="540" y="739" type="line"/>
      <point x="640" y="739" type="line"/>
      <point x="668" y="223" type="line"/>
      <point x="895" y="739" type="line"/>
      <point x="1035" y="739" type="line"/>
      <point x="682" y="0" type="line"/>
      <point x="573" y="0" type="line"/>
      <point x="545" y="489" type="line"/>
      <point x="332" y="0" type="line"/>
    </contour>
  </outline>
</glyph>
<glyph name="wcircumflex" format="1">
  <advance width="800"/>
  <unicode hex="0175"/>
  <outline>
    <contour>
      <point x="320" y="654" type="line"/>
      <point x="493" y="792" type="line"/>
      <point x="600" y="792" type="line"/>
      <point x="719" y="654" type="line"/>
      <point x="574" y="654" type="line"/>
      <point x="533" y="718" type="line"/>
      <point x="467" y="654" type="line"/>
    </contour>
    <contour>
      <point x="208" y="0" type="line"/>
      <point x="113" y="554" type="line"/>
      <point x="256" y="554" type="line"/>
      <point x="292" y="216" type="line"/>
      <point x="448" y="554" type="line"/>
      <point x="554" y="554" type="line"/>
      <point x="582" y="216" type="line"/>
      <point x="746" y="554" type="line"/>
      <point x="888" y="554" type="line"/>
      <point x="585" y="0" type="line"/>
      <point x="502" y="0" type="line"/>
      <point x="464" y="359" type="line"/>
      <point x="290" y="0" type="line"/>
    </contour>
  </outline>
</glyph>
<glyph name="Ycircumflex" format="1">
  <advance width="620"/>
  <unicode hex="0176"/>
  <outline>
    <contour>
      <point x="271" y="839" type="line"/>
      <point x="444" y="977" type="line"/>
      <point x="551" y="977" type="line"/>
      <point x="670" y="839" type="line"/>
      <point x="525" y="839" type="line"/>
      <point x="484" y="903" type="line"/>
      <point x="418" y="839" type="line"/>
    </contour>
    <contour>
      <point x="246" y="0" type="line"/>
      <point x="297" y="273" type="line"/>
      <point x="140" y="739" type="line"/>
      <point x="288" y="739" type="line"/>
      <point x="388" y="399" type="line"/>
      <point x="615" y="739" type="line"/>
      <point x="763" y="739" type="line"/>
      <point x="434" y="273" type="line"/>
      <point x="383" y="0" type="line"/>
    </contour>
  </outline>
</glyph>
<glyph name="ycircumflex" format="1">
  <advance width="580"/>
  <unicode hex="0177"/>
  <outline>
    <contour>
      <point x="209" y="654" type="line"/>
      <point x="382" y="792" type="line"/>
      <point x="489" y="792" type="line"/>
      <point x="608" y="654" type="line"/>
      <point x="463" y="654" type="line"/>
      <point x="422" y="718" type="line"/>
      <point x="356" y="654" type="line"/>
    </contour>
    <contour>
      <point x="73" y="-185" type="line"/>
      <point x="219" y="52" type="line"/>
      <point x="109" y="554" type="line"/>
      <point x="261" y="554" type="line"/>
      <point x="317" y="195" type="line"/>
      <point x="518" y="554" type="line"/>
      <point x="671" y="554" type="line"/>
      <point x="216" y="-185" type="line"/>
    </contour>
  </outline>
</glyph>
<glyph name="Ydieresis" format="1">
  <advance width="620"/>
  <unicode hex="0178"/>
  <outline>
    <contour>
      <point x="246" y="0" type="line"/>
      <point x="297" y="273" type="line"/>
      <point x="140" y="739" type="line"/>
      <point x="288" y="739" type="line"/>
      <point x="388" y="399" type="line"/>
      <point x="615" y="739" type="line"/>
      <point x="763" y="739" type="line"/>
      <point x="434" y="273" type="line"/>
      <point x="383" y="0" type="line"/>
    </contour>
    <contour>
      <point x="290" y="805" type="line"/>
      <point x="315" y="937" type="line"/>
      <point x="448" y="937" type="line"/>
      <point x="423" y="805" type="line"/>
    </contour>
    <contour>
      <point x="500" y="805" type="line"/>
      <point x="525" y="937" type="line"/>
      <point x="658" y="937" type="line"/>
      <point x="633" y="805" type="line"/>
    </contour>
  </outline>
</glyph>
<glyph name="zacute" format="1">
  <advance width="460"/>
  <unicode hex="017A"/>
  <outline>
    <contour>
      <point x="20" y="0" type="line"/>
      <point x="42" y="118" type="line"/>
      <point x="347" y="436" type="line"/>
      <point x="130" y="436" type="line"/>
      <point x="152" y="554" type="line"/>
      <point x="528" y="554" type="line"/>
      <point x="506" y="436" type="line"/>
      <point x="202" y="118" type="line"/>
      <point x="465" y="118" type="line"/>
      <point x="443" y="0" type="line"/>
    </contour>
    <contour>
      <point x="265" y="617" type="line"/>
      <point x="225" y="705" type="line"/>
      <point x="461" y="832" type="line"/>
      <point x="508" y="733" type="line"/>
    </contour>
  </outline>
</glyph>
<glyph name="zdotaccent" format="1">
  <advance width="460"/>
  <unicode hex="017C"/>
  <outline>
    <contour>
      <point x="20" y="0" type="line"/>
      <point x="42" y="118" type="line"/>
      <point x="347" y="436" type="line"/>
      <point x="130" y="436" type="line"/>
      <point x="152" y="554" type="line"/>
      <point x="528" y="554" type="line"/>
      <point x="506" y="436" type="line"/>
      <point x="202" y="118" type="line"/>
      <point x="465" y="118" type="line"/>
      <point x="443" y="0" type="line"/>
    </contour>
    <contour>
      <point x="279" y="630" type="line"/>
      <point x="304" y="762" type="line"/>
      <point x="437" y="762" type="line"/>
      <point x="412" y="630" type="line"/>
    </contour>
  </outline>
</glyph>
<glyph name="longs" format="1">
  <advance width="280"/>
  <unicode hex="017F"/>
  <outline>
    <contour>
      <point x="57" y="0" type="line"/>
      <point x="137" y="433" type="line"/>
      <point x="89" y="433" type="line"/>
      <point x="110" y="544" type="line"/>
      <point x="158" y="544" type="line"/>
      <point x="175" y="609"/>
      <point x="193" y="643"/>
      <point x="226" y="676" type="curve" smooth="yes"/>
      <point x="268" y="718"/>
      <point x="318" y="739"/>
      <point x="374" y="739" type="curve" smooth="yes"/>
      <point x="383" y="739"/>
      <point x="391" y="739"/>
      <point x="413" y="737" type="curve"/>
      <point x="389" y="611" type="line"/>
      <point x="382" y="611" type="line"/>
      <point x="371" y="611" type="line" smooth="yes"/>
      <point x="322" y="611"/>
      <point x="297" y="590"/>
      <point x="291" y="544" type="curve"/>
      <point x="190" y="0" type="line"/>
    </contour>
  </outline>
</glyph>
<glyph name="florin" format="1">
  <advance width="560"/>
  <unicode hex="0192"/>
  <outline>
    <contour>
      <point x="472" y="582" type="curve"/>
      <point x="564" y="582" type="line"/>
      <point x="524" y="470" type="line"/>
      <point x="431" y="470" type="line"/>
      <point x="301" y="106" type="line" smooth="yes"/>
      <point x="261" y="-7"/>
      <point x="236" y="-51"/>
      <point x="192" y="-87" type="curve" smooth="yes"/>
      <point x="139" y="-129"/>
      <point x="82" y="-149"/>
      <point x="10" y="-149" type="curve" smooth="yes"/>
      <point x="-13" y="-149"/>
      <point x="-26" y="-147"/>
      <point x="-44" y="-142" type="curve"/>
      <point x="-3" y="-26" type="line"/>
      <point x="9" y="-26" type="line"/>
      <point x="19" y="-27"/>
      <point x="27" y="-27"/>
      <point x="31" y="-27" type="curve" smooth="yes"/>
      <point x="106" y="-27"/>
      <point x="138" y="6"/>
      <point x="182" y="128" type="curve" smooth="yes"/>
      <point x="305" y="470" type="line"/>
      <point x="211" y="470" type="line"/>
      <point x="251" y="582" type="line"/>
      <point x="346" y="582" type="line"/>
      <point x="356" y="608" type="line" smooth="yes"/>
      <point x="387" y="688"/>
      <point x="399" y="709"/>
      <point x="435" y="744" type="curve" smooth="yes"/>
      <point x="483" y="790"/>
      <point x="550" y="820"/>
      <point x="608" y="820" type="curve" smooth="yes"/>
      <point x="619" y="820"/>
      <point x="628" y="819"/>
      <point x="646" y="817" type="curve"/>
      <point x="605" y="700" type="line"/>
      <point x="544" y="700"/>
      <point x="507" y="672"/>
      <point x="483" y="608" type="curve" smooth="yes"/>
      <point x="481" y="604"/>
      <point x="478" y="595"/>
    </contour>
  </outline>
</glyph>
<glyph name="circumflex" format="1">
  <advance width="540"/>
  <unicode hex="02C6"/>
  <outline>
    <contour>
      <point x="189" y="630" type="line"/>
      <point x="362" y="768" type="line"/>
      <point x="469" y="768" type="line"/>
      <point x="588" y="630" type="line"/>
      <point x="443" y="630" type="line"/>
      <point x="402" y="694" type="line"/>
      <point x="336" y="630" type="line"/>
    </contour>
  </outline>
</glyph>
<glyph name="caron" format="1">
  <advance width="540"/>
  <unicode hex="02C7"/>
  <outline>
    <contour>
      <point x="214" y="768" type="line"/>
      <point x="361" y="768" type="line"/>
      <point x="403" y="704" type="line"/>
      <point x="468" y="768" type="line"/>
      <point x="613" y="768" type="line"/>
      <point x="442" y="630" type="line"/>
      <point x="335" y="630" type="line"/>
    </contour>
  </outline>
</glyph>
<glyph name="breve" format="1">
  <advance width="480"/>
  <unicode hex="02D8"/>
  <outline>
    <contour>
      <point x="215" y="766" type="curve"/>
      <point x="313" y="766" type="line"/>
      <point x="319" y="738"/>
      <point x="339" y="724"/>
      <point x="374" y="724" type="curve" smooth="yes"/>
      <point x="406" y="724"/>
      <point x="429" y="738"/>
      <point x="445" y="766" type="curve"/>
      <point x="544" y="766" type="line"/>
      <point x="525" y="685"/>
      <point x="448" y="630"/>
      <point x="357" y="630" type="curve" smooth="yes"/>
      <point x="268" y="630"/>
      <point x="214" y="674"/>
      <point x="214" y="747" type="curve" smooth="yes"/>
      <point x="214" y="751"/>
      <point x="214" y="758"/>
    </contour>
  </outline>
</glyph>
<glyph name="dotaccent" format="1">
  <advance width="280"/>
  <unicode hex="02D9"/>
  <outline>
    <contour>
      <point x="189" y="630" type="line"/>
      <point x="214" y="762" type="line"/>
      <point x="347" y="762" type="line"/>
      <point x="322" y="630" type="line"/>
    </contour>
  </outline>
</glyph>
<glyph name="mu" format="1">
  <advance width="576"/>
  <unicode hex="03BC"/>
  <outline>
    <contour>
      <point x="197" y="52" type="curve"/>
      <point x="153" y="-185" type="line"/>
      <point x="20" y="-185" type="line"/>
      <point x="157" y="554" type="line"/>
      <point x="290" y="554" type="line"/>
      <point x="238" y="276" type="line" smooth="yes"/>
      <point x="236" y="261"/>
      <point x="234" y="248"/>
      <point x="234" y="239" type="curve" smooth="yes"/>
      <point x="234" y="163"/>
      <point x="278" y="109"/>
      <point x="339" y="109" type="curve" smooth="yes"/>
      <point x="375" y="109"/>
      <point x="410" y="129"/>
      <point x="431" y="160" type="curve" smooth="yes"/>
      <point x="448" y="186"/>
      <point x="452" y="200"/>
      <point x="469" y="293" type="curve" smooth="yes"/>
      <point x="517" y="554" type="line"/>
      <point x="650" y="554" type="line"/>
      <point x="547" y="0" type="line"/>
      <point x="424" y="0" type="line"/>
      <point x="434" y="53" type="line"/>
      <point x="393" y="6"/>
      <point x="357" y="-13"/>
      <point x="308" y="-13" type="curve" smooth="yes"/>
      <point x="260" y="-13"/>
      <point x="226" y="7"/>
    </contour>
  </outline>
</glyph>
<glyph name="uni0400" format="1">
  <advance width="520"/>
  <unicode hex="0400"/>
  <outline>
    <contour>
      <point x="211" y="936" type="line"/>
      <point x="281" y="1027" type="line"/>
      <point x="484" y="897" type="line"/>
      <point x="417" y="812" type="line"/>
    </contour>
    <contour>
      <point x="68" y="0" type="line"/>
      <point x="205" y="739" type="line"/>
      <point x="602" y="739" type="line"/>
      <point x="578" y="607" type="line"/>
      <point x="318" y="607" type="line"/>
      <point x="285" y="435" type="line"/>
      <point x="534" y="435" type="line"/>
      <point x="510" y="303" type="line"/>
      <point x="261" y="303" type="line"/>
      <point x="229" y="132" type="line"/>
      <point x="489" y="132" type="line"/>
      <point x="465" y="0" type="line"/>
    </contour>
  </outline>
</glyph>
<glyph name="afii10052" format="1">
  <advance width="480"/>
  <unicode hex="0403"/>
  <outline>
    <contour>
      <point x="407" y="812" type="line"/>
      <point x="367" y="900" type="line"/>
      <point x="603" y="1027" type="line"/>
      <point x="650" y="928" type="line"/>
    </contour>
    <contour>
      <point x="68" y="0" type="line"/>
      <point x="205" y="739" type="line"/>
      <point x="581" y="739" type="line"/>
      <point x="557" y="607" type="line"/>
      <point x="318" y="607" type="line"/>
      <point x="205" y="0" type="line"/>
    </contour>
  </outline>
</glyph>
<glyph name="afii10058" format="1">
  <advance width="1021"/>
  <unicode hex="0409"/>
  <outline>
    <contour>
      <point x="542" y="739" type="line"/>
      <point x="600" y="454" type="line"/>
      <point x="777" y="454" type="line" smooth="yes"/>
      <point x="831" y="454"/>
      <point x="901" y="443"/>
      <point x="946" y="420" type="curve"/>
      <point x="1012" y="388"/>
      <point x="1034" y="334"/>
      <point x="1034" y="264" type="curve" smooth="yes"/>
      <point x="1034" y="194"/>
      <point x="1002" y="123"/>
      <point x="948" y="75" type="curve" smooth="yes"/>
      <point x="891" y="24"/>
      <point x="815" y="0"/>
      <point x="706" y="0" type="curve" smooth="yes"/>
      <point x="549" y="0" type="line"/>
      <point x="454" y="562" type="line"/>
      <point x="151" y="0" type="line"/>
      <point x="7" y="0" type="line"/>
      <point x="430" y="739" type="line"/>
    </contour>
    <contour>
      <point x="665" y="132" type="line"/>
      <point x="738" y="132" type="line" smooth="yes"/>
      <point x="808" y="132"/>
      <point x="841" y="142"/>
      <point x="867" y="172" type="curve" smooth="yes"/>
      <point x="885" y="192"/>
      <point x="894" y="216"/>
      <point x="894" y="241" type="curve" smooth="yes"/>
      <point x="894" y="297"/>
      <point x="857" y="320"/>
      <point x="770" y="320" type="curve" smooth="yes"/>
      <point x="627" y="320" type="line"/>
    </contour>
  </outline>
</glyph>
<glyph name="afii10059" format="1">
  <advance width="981"/>
  <unicode hex="040A"/>
  <outline>
    <contour>
      <point x="469" y="0" type="line"/>
      <point x="526" y="310" type="line"/>
      <point x="262" y="310" type="line"/>
      <point x="205" y="0" type="line"/>
      <point x="68" y="0" type="line"/>
      <point x="205" y="739" type="line"/>
      <point x="342" y="739" type="line"/>
      <point x="287" y="442" type="line"/>
      <point x="551" y="442" type="line"/>
      <point x="606" y="739" type="line"/>
      <point x="742" y="739" type="line"/>
      <point x="690" y="454" type="line"/>
      <point x="737" y="454" type="line" smooth="yes"/>
      <point x="791" y="454"/>
      <point x="861" y="443"/>
      <point x="906" y="420" type="curve"/>
      <point x="972" y="388"/>
      <point x="994" y="334"/>
      <point x="994" y="264" type="curve" smooth="yes"/>
      <point x="994" y="194"/>
      <point x="962" y="123"/>
      <point x="908" y="75" type="curve" smooth="yes"/>
      <point x="851" y="24"/>
      <point x="775" y="0"/>
      <point x="666" y="0" type="curve" smooth="yes"/>
    </contour>
    <contour>
      <point x="630" y="132" type="line"/>
      <point x="698" y="132" type="line" smooth="yes"/>
      <point x="768" y="132"/>
      <point x="801" y="142"/>
      <point x="827" y="172" type="curve" smooth="yes"/>
      <point x="845" y="192"/>
      <point x="854" y="216"/>
      <point x="854" y="241" type="curve" smooth="yes"/>
      <point x="854" y="297"/>
      <point x="817" y="320"/>
      <point x="730" y="320" type="curve" smooth="yes"/>
      <point x="665" y="320" type="line"/>
    </contour>
  </outline>
</glyph>
<glyph name="afii10060" format="1">
  <advance width="702"/>
  <unicode hex="040B"/>
  <outline>
    <contour>
      <point x="356" y="416" type="line"/>
      <point x="398" y="451"/>
      <point x="453" y="468"/>
      <point x="510" y="468" type="curve" smooth="yes"/>
      <point x="620" y="468"/>
      <point x="701" y="405"/>
      <point x="701" y="308" type="curve" smooth="yes"/>
      <point x="701" y="281"/>
      <point x="698" y="249"/>
      <point x="691" y="213" type="curve" smooth="yes"/>
      <point x="652" y="0" type="line"/>
      <point x="519" y="0" type="line"/>
      <point x="552" y="183" type="line" smooth="yes"/>
      <point x="558" y="215"/>
      <point x="561" y="243"/>
      <point x="561" y="264" type="curve" smooth="yes"/>
      <point x="561" y="316"/>
      <point x="519" y="346"/>
      <point x="464" y="346" type="curve" smooth="yes"/>
      <point x="420" y="346"/>
      <point x="382" y="327"/>
      <point x="356" y="293" type="curve"/>
      <point x="342" y="272"/>
      <point x="326" y="245"/>
      <point x="317" y="202" type="curve" smooth="yes"/>
      <point x="279" y="0" type="line"/>
      <point x="142" y="0" type="line"/>
      <point x="255" y="607" type="line"/>
      <point x="119" y="607" type="line"/>
      <point x="143" y="739" type="line"/>
      <point x="555" y="739" type="line"/>
      <point x="531" y="607" type="line"/>
      <point x="392" y="607" type="line"/>
    </contour>
  </outline>
</glyph>
<glyph name="afii10061" format="1">
  <advance width="620"/>
  <unicode hex="040C"/>
  <outline>
    <contour>
      <point x="484" y="812" type="line"/>
      <point x="444" y="900" type="line"/>
      <point x="680" y="1027" type="line"/>
      <point x="727" y="928" type="line"/>
    </contour>
    <contour>
      <point x="68" y="0" type="line"/>
      <point x="205" y="739" type="line"/>
      <point x="342" y="739" type="line"/>
      <point x="283" y="420" type="line"/>
      <point x="576" y="739" type="line"/>
      <point x="736" y="739" type="line"/>
      <point x="392" y="376" type="line"/>
      <point x="599" y="0" type="line"/>
      <point x="436" y="0" type="line"/>
      <point x="265" y="325" type="line"/>
      <point x="205" y="0" type="line"/>
    </contour>
  </outline>
</glyph>
<glyph name="uni040D" format="1">
  <advance width="740"/>
  <unicode hex="040D"/>
  <outline>
    <contour>
      <point x="406" y="963" type="line"/>
      <point x="476" y="1054" type="line"/>
      <point x="679" y="924" type="line"/>
      <point x="612" y="839" type="line"/>
    </contour>
    <contour>
      <point x="224" y="0" type="line"/>
      <point x="68" y="0" type="line"/>
      <point x="205" y="739" type="line"/>
      <point x="342" y="739" type="line"/>
      <point x="242" y="201" type="line"/>
      <point x="651" y="739" type="line"/>
      <point x="804" y="739" type="line"/>
      <point x="667" y="0" type="line"/>
      <point x="530" y="0" type="line"/>
      <point x="629" y="537" type="line"/>
    </contour>
  </outline>
</glyph>
<glyph name="afii10062" format="1">
  <advance width="620"/>
  <unicode hex="040E"/>
  <outline>
    <contour>
      <point x="326" y="948" type="curve"/>
      <point x="424" y="948" type="line"/>
      <point x="430" y="920"/>
      <point x="450" y="906"/>
      <point x="485" y="906" type="curve" smooth="yes"/>
      <point x="517" y="906"/>
      <point x="540" y="920"/>
      <point x="556" y="948" type="curve"/>
      <point x="655" y="948" type="line"/>
      <point x="636" y="867"/>
      <point x="559" y="812"/>
      <point x="468" y="812" type="curve" smooth="yes"/>
      <point x="379" y="812"/>
      <point x="325" y="856"/>
      <point x="325" y="929" type="curve" smooth="yes"/>
      <point x="325" y="933"/>
      <point x="325" y="940"/>
    </contour>
    <contour>
      <point x="94" y="0" type="line"/>
      <point x="293" y="284" type="line"/>
      <point x="140" y="739" type="line"/>
      <point x="283" y="739" type="line"/>
      <point x="384" y="412" type="line"/>
      <point x="615" y="739" type="line"/>
      <point x="763" y="739" type="line"/>
      <point x="242" y="0" type="line"/>
    </contour>
  </outline>
</glyph>
<glyph name="afii10145" format="1">
  <advance width="680"/>
  <unicode hex="040F"/>
  <outline>
    <contour>
      <point x="268" y="0" type="line"/>
      <point x="68" y="0" type="line"/>
      <point x="205" y="739" type="line"/>
      <point x="342" y="739" type="line"/>
      <point x="229" y="132" type="line"/>
      <point x="493" y="132" type="line"/>
      <point x="606" y="739" type="line"/>
      <point x="743" y="739" type="line"/>
      <point x="606" y="0" type="line"/>
      <point x="412" y="0" type="line"/>
      <point x="381" y="-158" type="line"/>
      <point x="237" y="-158" type="line"/>
    </contour>
  </outline>
</glyph>
<glyph name="afii10018" format="1">
  <advance width="761"/>
  <unicode hex="0411"/>
  <outline>
    <contour>
      <point x="321" y="609" type="line"/>
      <point x="302" y="515" type="line"/>
      <point x="412" y="515" type="line" smooth="yes"/>
      <point x="581" y="515"/>
      <point x="694" y="458"/>
      <point x="694" y="321" type="curve" smooth="yes"/>
      <point x="694" y="125"/>
      <point x="542" y="0"/>
      <point x="312" y="0" type="curve" smooth="yes"/>
      <point x="65" y="0" type="line"/>
      <point x="209" y="739" type="line"/>
      <point x="717" y="739" type="line"/>
      <point x="692" y="609" type="line"/>
    </contour>
    <contour>
      <point x="228" y="131" type="line"/>
      <point x="344" y="131" type="line" smooth="yes"/>
      <point x="435" y="131"/>
      <point x="554" y="188"/>
      <point x="554" y="281" type="curve" smooth="yes"/>
      <point x="554" y="349"/>
      <point x="474" y="384"/>
      <point x="396" y="384" type="curve" smooth="yes"/>
      <point x="277" y="384" type="line"/>
    </contour>
  </outline>
</glyph>
<glyph name="afii10019" format="1">
  <advance width="633"/>
  <unicode hex="0412"/>
  <outline>
    <contour>
      <point x="65" y="0" type="line"/>
      <point x="209" y="739" type="line"/>
      <point x="442" y="739" type="line" smooth="yes"/>
      <point x="569" y="739"/>
      <point x="641" y="693"/>
      <point x="641" y="593" type="curve" smooth="yes"/>
      <point x="641" y="507"/>
      <point x="596" y="417"/>
      <point x="537" y="394" type="curve"/>
      <point x="574" y="382"/>
      <point x="622" y="349"/>
      <point x="622" y="268" type="curve" smooth="yes"/>
      <point x="622" y="108"/>
      <point x="485" y="0"/>
      <point x="298" y="0" type="curve" smooth="yes"/>
    </contour>
    <contour>
      <point x="228" y="131" type="line"/>
      <point x="324" y="131" type="line" smooth="yes"/>
      <point x="429" y="131"/>
      <point x="482" y="175"/>
      <point x="482" y="246" type="curve" smooth="yes"/>
      <point x="482" y="296"/>
      <point x="443" y="320"/>
      <point x="360" y="320" type="curve" smooth="yes"/>
      <point x="264" y="320" type="line"/>
    </contour>
    <contour>
      <point x="290" y="454" type="line"/>
      <point x="386" y="454" type="line" smooth="yes"/>
      <point x="445" y="454"/>
      <point x="498" y="491"/>
      <point x="498" y="547" type="curve" smooth="yes"/>
      <point x="498" y="588"/>
      <point x="463" y="605"/>
      <point x="416" y="605" type="curve" smooth="yes"/>
      <point x="320" y="605" type="line"/>
    </contour>
  </outline>
</glyph>
<glyph name="afii10020" format="1">
  <advance width="480"/>
  <unicode hex="0413"/>
  <outline>
    <contour>
      <point x="68" y="0" type="line"/>
      <point x="205" y="739" type="line"/>
      <point x="581" y="739" type="line"/>
      <point x="557" y="607" type="line"/>
      <point x="318" y="607" type="line"/>
      <point x="205" y="0" type="line"/>
    </contour>
  </outline>
</glyph>
<glyph name="afii10021" format="1">
  <advance width="912"/>
  <unicode hex="0414"/>
  <outline>
    <contour>
      <point x="639" y="132" type="line"/>
      <point x="558" y="557" type="line"/>
      <point x="324" y="132" type="line"/>
    </contour>
    <contour>
      <point x="771" y="0" type="line"/>
      <point x="170" y="0" type="line"/>
      <point x="144" y="-140" type="line"/>
      <point x="7" y="-140" type="line"/>
      <point x="57" y="132" type="line"/>
      <point x="187" y="132" type="line"/>
      <point x="534" y="739" type="line"/>
      <point x="646" y="739" type="line"/>
      <point x="770" y="132" type="line"/>
      <point x="932" y="132" type="line"/>
      <point x="882" y="-140" type="line"/>
      <point x="745" y="-140" type="line"/>
    </contour>
  </outline>
</glyph>
<glyph name="afii10024" format="1">
  <advance width="951"/>
  <unicode hex="0416"/>
  <outline>
    <contour>
      <point x="458" y="319" type="line"/>
      <point x="167" y="0" type="line"/>
      <point x="5" y="0" type="line"/>
      <point x="349" y="363" type="line"/>
      <point x="142" y="739" type="line"/>
      <point x="306" y="739" type="line"/>
      <point x="476" y="414" type="line"/>
      <point x="536" y="739" type="line"/>
      <point x="673" y="739" type="line"/>
      <point x="614" y="420" type="line"/>
      <point x="907" y="739" type="line"/>
      <point x="1067" y="739" type="line"/>
      <point x="723" y="376" type="line"/>
      <point x="929" y="0" type="line"/>
      <point x="766" y="0" type="line"/>
      <point x="596" y="325" type="line"/>
      <point x="536" y="0" type="line"/>
      <point x="399" y="0" type="line"/>
    </contour>
  </outline>
</glyph>
<glyph name="afii10026" format="1">
  <advance width="740"/>
  <unicode hex="0418"/>
  <outline>
    <contour>
      <point x="224" y="0" type="line"/>
      <point x="68" y="0" type="line"/>
      <point x="205" y="739" type="line"/>
      <point x="342" y="739" type="line"/>
      <point x="242" y="201" type="line"/>
      <point x="651" y="739" type="line"/>
      <point x="804" y="739" type="line"/>
      <point x="667" y="0" type="line"/>
      <point x="530" y="0" type="line"/>
      <point x="629" y="537" type="line"/>
    </contour>
  </outline>
</glyph>
<glyph name="afii10029" format="1">
  <advance width="700"/>
  <unicode hex="041B"/>
  <outline>
    <contour>
      <point x="542" y="739" type="line"/>
      <point x="693" y="0" type="line"/>
      <point x="562" y="0" type="line"/>
      <point x="457" y="550" type="line"/>
      <point x="151" y="0" type="line"/>
      <point x="7" y="0" type="line"/>
      <point x="430" y="739" type="line"/>
    </contour>
  </outline>
</glyph>
<glyph name="afii10031" format="1">
  <advance width="680"/>
  <unicode hex="041D"/>
  <outline>
    <contour>
      <point x="68" y="0" type="line"/>
      <point x="205" y="739" type="line"/>
      <point x="342" y="739" type="line"/>
      <point x="287" y="442" type="line"/>
      <point x="551" y="442" type="line"/>
      <point x="606" y="739" type="line"/>
      <point x="743" y="739" type="line"/>
      <point x="606" y="0" type="line"/>
      <point x="469" y="0" type="line"/>
      <point x="526" y="310" type="line"/>
      <point x="262" y="310" type="line"/>
      <point x="205" y="0" type="line"/>
    </contour>
  </outline>
</glyph>
<glyph name="afii10033" format="1">
  <advance width="680"/>
  <unicode hex="041F"/>
  <outline>
    <contour>
      <point x="68" y="0" type="line"/>
      <point x="205" y="739" type="line"/>
      <point x="743" y="739" type="line"/>
      <point x="606" y="0" type="line"/>
      <point x="469" y="0" type="line"/>
      <point x="582" y="607" type="line"/>
      <point x="318" y="607" type="line"/>
      <point x="205" y="0" type="line"/>
    </contour>
  </outline>
</glyph>
<glyph name="afii10034" format="1">
  <advance width="560"/>
  <unicode hex="0420"/>
  <outline>
    <contour>
      <point x="68" y="0" type="line"/>
      <point x="205" y="739" type="line"/>
      <point x="388" y="739" type="line" smooth="yes"/>
      <point x="484" y="739"/>
      <point x="535" y="730"/>
      <point x="570" y="705" type="curve" smooth="yes"/>
      <point x="615" y="674"/>
      <point x="639" y="624"/>
      <point x="639" y="562" type="curve" smooth="yes"/>
      <point x="639" y="395"/>
      <point x="566" y="281"/>
      <point x="301" y="281" type="curve" smooth="yes"/>
      <point x="257" y="281" type="line"/>
      <point x="205" y="0" type="line"/>
    </contour>
    <contour>
      <point x="499" y="529" type="curve" smooth="yes"/>
      <point x="499" y="597"/>
      <point x="453" y="607"/>
      <point x="364" y="607" type="curve" smooth="yes"/>
      <point x="318" y="607" type="line"/>
      <point x="281" y="412" type="line"/>
      <point x="321" y="412" type="line" smooth="yes"/>
      <point x="427" y="412"/>
      <point x="499" y="441"/>
    </contour>
  </outline>
</glyph>
<glyph name="afii10038" format="1">
  <advance width="974"/>
  <unicode hex="0424"/>
  <outline>
    <contour>
      <point x="693" y="773" type="line"/>
      <point x="876" y="772"/>
      <point x="1009" y="642"/>
      <point x="1009" y="460" type="curve" smooth="yes"/>
      <point x="1009" y="223"/>
      <point x="792" y="9"/>
      <point x="551" y="8" type="curve"/>
      <point x="540" y="-45" type="line"/>
      <point x="403" y="-45" type="line"/>
      <point x="414" y="8" type="line"/>
      <point x="226" y="9"/>
      <point x="91" y="140"/>
      <point x="91" y="321" type="curve" smooth="yes"/>
      <point x="91" y="422"/>
      <point x="137" y="534"/>
      <point x="212" y="616" type="curve" smooth="yes"/>
      <point x="305" y="717"/>
      <point x="426" y="772"/>
      <point x="555" y="773" type="curve"/>
      <point x="560" y="800" type="line"/>
      <point x="697" y="800" type="line"/>
    </contour>
    <contour>
      <point x="576" y="140" type="line"/>
      <point x="666" y="141"/>
      <point x="749" y="184"/>
      <point x="806" y="259" type="curve" smooth="yes"/>
      <point x="845" y="311"/>
      <point x="869" y="380"/>
      <point x="869" y="440" type="curve" smooth="yes"/>
      <point x="869" y="556"/>
      <point x="785" y="640"/>
      <point x="668" y="641" type="curve"/>
    </contour>
    <contour>
      <point x="530" y="641" type="line"/>
      <point x="438" y="641"/>
      <point x="356" y="599"/>
      <point x="297" y="522" type="curve" smooth="yes"/>
      <point x="256" y="469"/>
      <point x="231" y="402"/>
      <point x="231" y="344" type="curve" smooth="yes"/>
      <point x="231" y="226"/>
      <point x="317" y="141"/>
      <point x="438" y="140" type="curve"/>
    </contour>
  </outline>
</glyph>
<glyph name="afii10039" format="1">
  <advance width="680"/>
  <unicode hex="0425"/>
  <outline>
    <contour>
      <point x="5" y="0" type="line"/>
      <point x="327" y="368" type="line"/>
      <point x="142" y="739" type="line"/>
      <point x="305" y="739" type="line"/>
      <point x="429" y="481" type="line"/>
      <point x="654" y="739" type="line"/>
      <point x="813" y="739" type="line"/>
      <point x="488" y="368" type="line"/>
      <point x="676" y="0" type="line"/>
      <point x="517" y="0" type="line"/>
      <point x="387" y="255" type="line"/>
      <point x="168" y="0" type="line"/>
    </contour>
  </outline>
</glyph>
<glyph name="afii10040" format="1">
  <advance width="738"/>
  <unicode hex="0426"/>
  <outline>
    <contour>
      <point x="68" y="0" type="line"/>
      <point x="205" y="739" type="line"/>
      <point x="342" y="739" type="line"/>
      <point x="229" y="132" type="line"/>
      <point x="493" y="132" type="line"/>
      <point x="606" y="739" type="line"/>
      <point x="743" y="739" type="line"/>
      <point x="631" y="132" type="line"/>
      <point x="759" y="132" type="line"/>
      <point x="709" y="-140" type="line"/>
      <point x="572" y="-140" type="line"/>
      <point x="598" y="0" type="line"/>
    </contour>
  </outline>
</glyph>
<glyph name="afii10042" format="1">
  <advance width="947"/>
  <unicode hex="0428"/>
  <outline>
    <contour>
      <point x="68" y="0" type="line"/>
      <point x="205" y="739" type="line"/>
      <point x="342" y="739" type="line"/>
      <point x="229" y="132" type="line"/>
      <point x="436" y="132" type="line"/>
      <point x="549" y="739" type="line"/>
      <point x="686" y="739" type="line"/>
      <point x="574" y="132" type="line"/>
      <point x="781" y="132" type="line"/>
      <point x="894" y="739" type="line"/>
      <point x="1031" y="739" type="line"/>
      <point x="894" y="0" type="line"/>
    </contour>
  </outline>
</glyph>
<glyph name="afii10043" format="1">
  <advance width="1026"/>
  <unicode hex="0429"/>
  <outline>
    <contour>
      <point x="918" y="132" type="line"/>
      <point x="1043" y="132" type="line"/>
      <point x="993" y="-140" type="line"/>
      <point x="856" y="-140" type="line"/>
      <point x="882" y="0" type="line"/>
      <point x="68" y="0" type="line"/>
      <point x="205" y="739" type="line"/>
      <point x="342" y="739" type="line"/>
      <point x="229" y="132" type="line"/>
      <point x="436" y="132" type="line"/>
      <point x="549" y="739" type="line"/>
      <point x="686" y="739" type="line"/>
      <point x="574" y="132" type="line"/>
      <point x="781" y="132" type="line"/>
      <point x="894" y="739" type="line"/>
      <point x="1031" y="739" type="line"/>
    </contour>
  </outline>
</glyph>
<glyph name="afii10044" format="1">
  <advance width="798"/>
  <unicode hex="042A"/>
  <outline>
    <contour>
      <point x="167" y="0" type="line"/>
      <point x="279" y="603" type="line"/>
      <point x="63" y="603" type="line"/>
      <point x="88" y="739" type="line"/>
      <point x="448" y="739" type="line"/>
      <point x="408" y="535" type="line"/>
      <point x="518" y="535" type="line" smooth="yes"/>
      <point x="687" y="535"/>
      <point x="798" y="471"/>
      <point x="798" y="332" type="curve" smooth="yes"/>
      <point x="798" y="132"/>
      <point x="641" y="0"/>
      <point x="414" y="0" type="curve" smooth="yes"/>
    </contour>
    <contour>
      <point x="330" y="131" type="line"/>
      <point x="446" y="131" type="line" smooth="yes"/>
      <point x="539" y="131"/>
      <point x="658" y="195"/>
      <point x="658" y="292" type="curve" smooth="yes"/>
      <point x="658" y="361"/>
      <point x="582" y="404"/>
      <point x="502" y="404" type="curve" smooth="yes"/>
      <point x="383" y="404" type="line"/>
    </contour>
  </outline>
</glyph>
<glyph name="afii10046" format="1">
  <advance width="699"/>
  <unicode hex="042C"/>
  <outline>
    <contour>
      <point x="315" y="0" type="curve" smooth="yes"/>
      <point x="68" y="0" type="line"/>
      <point x="212" y="739" type="line"/>
      <point x="349" y="739" type="line"/>
      <point x="309" y="535" type="line"/>
      <point x="419" y="535" type="line" smooth="yes"/>
      <point x="588" y="535"/>
      <point x="699" y="471"/>
      <point x="699" y="332" type="curve" smooth="yes"/>
      <point x="699" y="132"/>
      <point x="542" y="0"/>
    </contour>
    <contour>
      <point x="231" y="131" type="line"/>
      <point x="347" y="131" type="line" smooth="yes"/>
      <point x="440" y="131"/>
      <point x="559" y="195"/>
      <point x="559" y="292" type="curve" smooth="yes"/>
      <point x="559" y="361"/>
      <point x="483" y="404"/>
      <point x="403" y="404" type="curve" smooth="yes"/>
      <point x="284" y="404" type="line"/>
    </contour>
  </outline>
</glyph>
<glyph name="afii10047" format="1">
  <advance width="780"/>
  <unicode hex="042D"/>
  <outline>
    <contour>
      <point x="351" y="310" type="line"/>
      <point x="376" y="442" type="line"/>
      <point x="716" y="442" type="line"/>
      <point x="704" y="547"/>
      <point x="622" y="620"/>
      <point x="513" y="620" type="curve" smooth="yes"/>
      <point x="441" y="620"/>
      <point x="388" y="597"/>
      <point x="313" y="533" type="curve"/>
      <point x="152" y="533" type="line"/>
      <point x="232" y="666"/>
      <point x="383" y="752"/>
      <point x="535" y="752" type="curve" smooth="yes"/>
      <point x="720" y="752"/>
      <point x="858" y="615"/>
      <point x="858" y="436" type="curve" smooth="yes"/>
      <point x="858" y="204"/>
      <point x="657" y="-13"/>
      <point x="402" y="-13" type="curve" smooth="yes"/>
      <point x="247" y="-13"/>
      <point x="123" y="69"/>
      <point x="92" y="212" type="curve"/>
      <point x="246" y="212" type="line"/>
      <point x="282" y="144"/>
      <point x="332" y="119"/>
      <point x="422" y="119" type="curve" smooth="yes"/>
      <point x="543" y="119"/>
      <point x="662" y="194"/>
      <point x="697" y="310" type="curve"/>
    </contour>
  </outline>
</glyph>
<glyph name="afii10048" format="1">
  <advance width="1076"/>
  <unicode hex="042E"/>
  <outline>
    <contour>
      <point x="265" y="310" type="line"/>
      <point x="205" y="0" type="line"/>
      <point x="68" y="0" type="line"/>
      <point x="212" y="739" type="line"/>
      <point x="349" y="739" type="line"/>
      <point x="291" y="441" type="line"/>
      <point x="354" y="441" type="line"/>
      <point x="423" y="620"/>
      <point x="604" y="752"/>
      <point x="798" y="752" type="curve" smooth="yes"/>
      <point x="984" y="752"/>
      <point x="1111" y="620"/>
      <point x="1111" y="444" type="curve" smooth="yes"/>
      <point x="1111" y="179"/>
      <point x="868" y="-13"/>
      <point x="649" y="-13" type="curve" smooth="yes"/>
      <point x="457" y="-13"/>
      <point x="327" y="119"/>
      <point x="327" y="296" type="curve" smooth="yes"/>
      <point x="327" y="310" type="line"/>
    </contour>
    <contour>
      <point x="771" y="620" type="curve" smooth="yes"/>
      <point x="619" y="620"/>
      <point x="467" y="484"/>
      <point x="467" y="319" type="curve" smooth="yes"/>
      <point x="467" y="204"/>
      <point x="550" y="119"/>
      <point x="673" y="119" type="curve" smooth="yes"/>
      <point x="824" y="119"/>
      <point x="971" y="255"/>
      <point x="971" y="419" type="curve" smooth="yes"/>
      <point x="971" y="536"/>
      <point x="891" y="620"/>
    </contour>
  </outline>
</glyph>
<glyph name="afii10049" format="1">
  <advance width="619"/>
  <unicode hex="042F"/>
  <outline>
    <contour>
      <point x="519" y="608" type="line"/>
      <point x="403" y="608" type="line" smooth="yes"/>
      <point x="310" y="608"/>
      <point x="191" y="544"/>
      <point x="191" y="447" type="curve" smooth="yes"/>
      <point x="191" y="378"/>
      <point x="267" y="335"/>
      <point x="347" y="335" type="curve" smooth="yes"/>
      <point x="466" y="335" type="line"/>
    </contour>
    <contour>
      <point x="193" y="223" type="line"/>
      <point x="104" y="251"/>
      <point x="51" y="311"/>
      <point x="51" y="406" type="curve" smooth="yes"/>
      <point x="51" y="606"/>
      <point x="206" y="739"/>
      <point x="435" y="739" type="curve" smooth="yes"/>
      <point x="682" y="739" type="line"/>
      <point x="538" y="0" type="line"/>
      <point x="401" y="0" type="line"/>
      <point x="441" y="204" type="line"/>
      <point x="331" y="204" type="line"/>
      <point x="122" y="0" type="line"/>
      <point x="-47" y="0" type="line"/>
    </contour>
  </outline>
</glyph>
<glyph name="afii10066" format="1">
  <advance width="640"/>
  <unicode hex="0431"/>
  <outline>
    <contour>
      <point x="409" y="445" type="curve" smooth="yes"/>
      <point x="307" y="445"/>
      <point x="214" y="349"/>
      <point x="214" y="244" type="curve" smooth="yes"/>
      <point x="214" y="166"/>
      <point x="270" y="109"/>
      <point x="346" y="109" type="curve" smooth="yes"/>
      <point x="446" y="109"/>
      <point x="539" y="206"/>
      <point x="539" y="309" type="curve" smooth="yes"/>
      <point x="539" y="387"/>
      <point x="484" y="445"/>
    </contour>
    <contour>
      <point x="343" y="622" type="curve"/>
      <point x="259" y="556"/>
      <point x="263" y="522"/>
      <point x="263" y="522" type="curve"/>
      <point x="307" y="544"/>
      <point x="346" y="566"/>
      <point x="432" y="566" type="curve" smooth="yes"/>
      <point x="571" y="566"/>
      <point x="676" y="468"/>
      <point x="676" y="329" type="curve" smooth="yes"/>
      <point x="676" y="162"/>
      <point x="528" y="-13"/>
      <point x="321" y="-13" type="curve" smooth="yes"/>
      <point x="177" y="-13"/>
      <point x="78" y="90"/>
      <point x="78" y="220" type="curve" smooth="yes"/>
      <point x="78" y="371"/>
      <point x="153" y="652"/>
      <point x="321" y="735" type="curve"/>
      <point x="441" y="779"/>
      <point x="525" y="775"/>
      <point x="623" y="779" type="curve"/>
      <point x="691" y="783"/>
      <point x="709" y="791"/>
      <point x="741" y="805" type="curve"/>
      <point x="742" y="695" type="line"/>
      <point x="712" y="683"/>
      <point x="691" y="669"/>
      <point x="635" y="673" type="curve"/>
      <point x="533" y="665"/>
      <point x="443" y="670"/>
    </contour>
  </outline>
</glyph>
<glyph name="afii10067" format="1">
  <advance width="615"/>
  <unicode hex="0432"/>
  <outline>
    <contour>
      <point x="290" y="442" type="line"/>
      <point x="273" y="354" type="line"/>
      <point x="354" y="354" type="line" smooth="yes"/>
      <point x="388" y="354"/>
      <point x="418" y="373"/>
      <point x="418" y="407" type="curve" smooth="yes"/>
      <point x="418" y="430"/>
      <point x="398" y="442"/>
      <point x="371" y="442" type="curve" smooth="yes"/>
    </contour>
    <contour>
      <point x="252" y="243" type="line"/>
      <point x="225" y="105" type="line"/>
      <point x="350" y="105" type="line" smooth="yes"/>
      <point x="401" y="105"/>
      <point x="450" y="129"/>
      <point x="450" y="188" type="curve" smooth="yes"/>
      <point x="450" y="223"/>
      <point x="422" y="243"/>
      <point x="380" y="243" type="curve" smooth="yes"/>
    </contour>
    <contour>
      <point x="489" y="322" type="curve"/>
      <point x="540" y="300"/>
      <point x="572" y="260"/>
      <point x="572" y="203" type="curve" smooth="yes"/>
      <point x="572" y="82"/>
      <point x="454" y="0"/>
      <point x="327" y="0" type="curve" smooth="yes"/>
      <point x="72" y="0" type="line"/>
      <point x="178" y="547" type="line"/>
      <point x="403" y="547" type="line" smooth="yes"/>
      <point x="508" y="547"/>
      <point x="543" y="489"/>
      <point x="543" y="434" type="curve" smooth="yes"/>
      <point x="543" y="383"/>
      <point x="523" y="353"/>
    </contour>
  </outline>
</glyph>
<glyph name="afii10069" format="1">
  <advance width="693"/>
  <unicode hex="0434"/>
  <outline>
    <contour>
      <point x="139" y="-120" type="line"/>
      <point x="6" y="-120" type="line"/>
      <point x="51" y="121" type="line"/>
      <point x="152" y="121" type="line"/>
      <point x="407" y="554" type="line"/>
      <point x="513" y="554" type="line"/>
      <point x="606" y="121" type="line"/>
      <point x="720" y="121" type="line"/>
      <point x="675" y="-120" type="line"/>
      <point x="542" y="-120" type="line"/>
      <point x="564" y="0" type="line"/>
      <point x="162" y="0" type="line"/>
    </contour>
    <contour>
      <point x="471" y="121" type="line"/>
      <point x="425" y="358" type="line"/>
      <point x="295" y="121" type="line"/>
    </contour>
  </outline>
</glyph>
<glyph name="afii10072" format="1">
  <advance width="867"/>
  <unicode hex="0436"/>
  <outline>
    <contour>
      <point x="395" y="295" type="line"/>
      <point x="443" y="554" type="line"/>
      <point x="577" y="554" type="line"/>
      <point x="528" y="293" type="line"/>
      <point x="757" y="554" type="line"/>
      <point x="912" y="554" type="line"/>
      <point x="664" y="283" type="line"/>
      <point x="842" y="0" type="line"/>
      <point x="676" y="0" type="line"/>
      <point x="522" y="259" type="line"/>
      <point x="474" y="0" type="line"/>
      <point x="341" y="0" type="line"/>
      <point x="389" y="261" type="line"/>
      <point x="161" y="0" type="line"/>
      <point x="5" y="0" type="line"/>
      <point x="253" y="271" type="line"/>
      <point x="75" y="554" type="line"/>
      <point x="242" y="554" type="line"/>
    </contour>
  </outline>
</glyph>
<glyph name="afii10074" format="1">
  <advance width="565"/>
  <unicode hex="0438"/>
  <outline>
    <contour>
      <point x="204" y="0" type="line"/>
      <point x="54" y="0" type="line"/>
      <point x="157" y="554" type="line"/>
      <point x="290" y="554" type="line"/>
      <point x="215" y="164" type="line"/>
      <point x="494" y="554" type="line"/>
      <point x="649" y="554" type="line"/>
      <point x="546" y="0" type="line"/>
      <point x="413" y="0" type="line"/>
      <point x="482" y="376" type="line"/>
    </contour>
  </outline>
</glyph>
<glyph name="afii10075" format="1">
  <advance width="565"/>
  <unicode hex="0439"/>
  <outline>
    <contour>
      <point x="277" y="706" type="curve"/>
      <point x="375" y="706" type="line"/>
      <point x="381" y="678"/>
      <point x="401" y="664"/>
      <point x="436" y="664" type="curve" smooth="yes"/>
      <point x="468" y="664"/>
      <point x="491" y="678"/>
      <point x="507" y="706" type="curve"/>
      <point x="606" y="706" type="line"/>
      <point x="587" y="625"/>
      <point x="510" y="570"/>
      <point x="419" y="570" type="curve" smooth="yes"/>
      <point x="330" y="570"/>
      <point x="276" y="614"/>
      <point x="276" y="687" type="curve" smooth="yes"/>
      <point x="276" y="691"/>
      <point x="276" y="698"/>
    </contour>
    <contour>
      <point x="204" y="0" type="line"/>
      <point x="54" y="0" type="line"/>
      <point x="157" y="554" type="line"/>
      <point x="290" y="554" type="line"/>
      <point x="215" y="164" type="line"/>
      <point x="494" y="554" type="line"/>
      <point x="649" y="554" type="line"/>
      <point x="546" y="0" type="line"/>
      <point x="413" y="0" type="line"/>
      <point x="482" y="376" type="line"/>
    </contour>
  </outline>
</glyph>
<glyph name="afii10076" format="1">
  <advance width="580"/>
  <unicode hex="043A"/>
  <outline>
    <contour>
      <point x="54" y="0" type="line"/>
      <point x="156" y="554" type="line"/>
      <point x="290" y="554" type="line"/>
      <point x="241" y="293" type="line"/>
      <point x="470" y="554" type="line"/>
      <point x="625" y="554" type="line"/>
      <point x="377" y="283" type="line"/>
      <point x="555" y="0" type="line"/>
      <point x="389" y="0" type="line"/>
      <point x="235" y="259" type="line"/>
      <point x="187" y="0" type="line"/>
    </contour>
  </outline>
</glyph>
<glyph name="afii10077" format="1">
  <advance width="562"/>
  <unicode hex="043B"/>
  <outline>
    <contour>
      <point x="437" y="554" type="line"/>
      <point x="557" y="0" type="line"/>
      <point x="423" y="0" type="line"/>
      <point x="351" y="360" type="line"/>
      <point x="147" y="0" type="line"/>
      <point x="5" y="0" type="line"/>
      <point x="331" y="554" type="line"/>
    </contour>
  </outline>
</glyph>
<glyph name="afii10078" format="1">
  <advance width="577"/>
  <unicode hex="043C"/>
  <outline>
    <contour>
      <point x="557" y="0" type="line"/>
      <point x="424" y="0" type="line"/>
      <point x="465" y="221" type="line"/>
      <point x="335" y="0" type="line"/>
      <point x="229" y="0" type="line"/>
      <point x="180" y="226" type="line"/>
      <point x="138" y="0" type="line"/>
      <point x="5" y="0" type="line"/>
      <point x="109" y="554" type="line"/>
      <point x="239" y="554" type="line"/>
      <point x="317" y="187" type="line"/>
      <point x="511" y="554" type="line"/>
      <point x="661" y="554" type="line"/>
    </contour>
  </outline>
</glyph>
<glyph name="afii10081" format="1">
  <advance width="565"/>
  <unicode hex="043F"/>
  <outline>
    <contour>
      <point x="649" y="554" type="line"/>
      <point x="648" y="554" type="line"/>
      <point x="545" y="0" type="line"/>
      <point x="412" y="0" type="line"/>
      <point x="493" y="433" type="line"/>
      <point x="267" y="433" type="line"/>
      <point x="187" y="0" type="line"/>
      <point x="54" y="0" type="line"/>
      <point x="157" y="554" type="line"/>
    </contour>
  </outline>
</glyph>
<glyph name="afii10084" format="1">
  <advance width="378"/>
  <unicode hex="0442"/>
  <outline>
    <contour>
      <point x="103" y="0" type="line"/>
      <point x="183" y="433" type="line"/>
      <point x="63" y="433" type="line"/>
      <point x="86" y="554" type="line"/>
      <point x="459" y="554" type="line"/>
      <point x="436" y="433" type="line"/>
      <point x="316" y="433" type="line"/>
      <point x="236" y="0" type="line"/>
    </contour>
  </outline>
</glyph>
<glyph name="afii10085" format="1">
  <advance width="580"/>
  <unicode hex="0443"/>
  <outline>
    <contour>
      <point x="73" y="-185" type="line"/>
      <point x="219" y="52" type="line"/>
      <point x="109" y="554" type="line"/>
      <point x="261" y="554" type="line"/>
      <point x="317" y="197" type="line"/>
      <point x="518" y="554" type="line"/>
      <point x="671" y="554" type="line"/>
      <point x="216" y="-185" type="line"/>
    </contour>
  </outline>
</glyph>
<glyph name="afii10086" format="1">
  <advance width="762"/>
  <unicode hex="0444"/>
  <outline>
    <contour>
      <point x="425" y="-126" type="line"/>
      <point x="295" y="-126" type="line"/>
      <point x="316" y="-13" type="line"/>
      <point x="180" y="-13"/>
      <point x="76" y="89"/>
      <point x="76" y="221" type="curve" smooth="yes"/>
      <point x="76" y="403"/>
      <point x="242" y="566"/>
      <point x="429" y="567" type="curve"/>
      <point x="437" y="613" type="line"/>
      <point x="562" y="613" type="line"/>
      <point x="555" y="567" type="line"/>
      <point x="696" y="566"/>
      <point x="797" y="465"/>
      <point x="797" y="327" type="curve" smooth="yes"/>
      <point x="797" y="149"/>
      <point x="632" y="-12"/>
      <point x="445" y="-13" type="curve"/>
    </contour>
    <contour>
      <point x="532" y="445" type="curve"/>
      <point x="469" y="109" type="line"/>
      <point x="568" y="110"/>
      <point x="660" y="207"/>
      <point x="660" y="309" type="curve" smooth="yes"/>
      <point x="660" y="386"/>
      <point x="606" y="444"/>
    </contour>
    <contour>
      <point x="407" y="445" type="line"/>
      <point x="305" y="444"/>
      <point x="213" y="349"/>
      <point x="213" y="244" type="curve" smooth="yes"/>
      <point x="213" y="167"/>
      <point x="268" y="110"/>
      <point x="343" y="109" type="curve"/>
    </contour>
  </outline>
</glyph>
<glyph name="afii10087" format="1">
  <advance width="560"/>
  <unicode hex="0445"/>
  <outline>
    <contour>
      <point x="1" y="0" type="line"/>
      <point x="251" y="286" type="line"/>
      <point x="131" y="554" type="line"/>
      <point x="281" y="554" type="line"/>
      <point x="350" y="387" type="line"/>
      <point x="479" y="554" type="line"/>
      <point x="629" y="554" type="line"/>
      <point x="410" y="286" type="line"/>
      <point x="554" y="0" type="line"/>
      <point x="394" y="0" type="line"/>
      <point x="313" y="190" type="line"/>
      <point x="161" y="0" type="line"/>
    </contour>
  </outline>
</glyph>
<glyph name="afii10090" format="1">
  <advance width="820"/>
  <unicode hex="0448"/>
  <outline>
    <contour>
      <point x="54" y="0" type="line"/>
      <point x="56" y="0" type="line"/>
      <point x="159" y="554" type="line"/>
      <point x="292" y="554" type="line"/>
      <point x="211" y="121" type="line"/>
      <point x="384" y="121" type="line"/>
      <point x="464" y="554" type="line"/>
      <point x="597" y="554" type="line"/>
      <point x="517" y="121" type="line"/>
      <point x="691" y="121" type="line"/>
      <point x="771" y="554" type="line"/>
      <point x="904" y="554" type="line"/>
      <point x="801" y="0" type="line"/>
    </contour>
  </outline>
</glyph>
<glyph name="afii10092" format="1">
  <advance width="586"/>
  <unicode hex="044A"/>
  <outline>
    <contour>
      <point x="365" y="554" type="line"/>
      <point x="330" y="377" type="line"/>
      <point x="405" y="377" type="line" smooth="yes"/>
      <point x="529" y="377"/>
      <point x="606" y="330"/>
      <point x="606" y="231" type="curve" smooth="yes"/>
      <point x="606" y="95"/>
      <point x="482" y="0"/>
      <point x="332" y="0" type="curve" smooth="yes"/>
      <point x="124" y="0" type="line"/>
      <point x="206" y="433" type="line"/>
      <point x="24" y="433" type="line"/>
      <point x="46" y="554" type="line"/>
    </contour>
    <contour>
      <point x="280" y="120" type="line"/>
      <point x="391" y="120" type="line" smooth="yes"/>
      <point x="453" y="120"/>
      <point x="480" y="169"/>
      <point x="480" y="205" type="curve" smooth="yes"/>
      <point x="480" y="229"/>
      <point x="468" y="264"/>
      <point x="416" y="264" type="curve" smooth="yes"/>
      <point x="308" y="264" type="line"/>
    </contour>
  </outline>
</glyph>
<glyph name="afii10094" format="1">
  <advance width="516"/>
  <unicode hex="044C"/>
  <outline>
    <contour>
      <point x="262" y="0" type="curve" smooth="yes"/>
      <point x="54" y="0" type="line"/>
      <point x="162" y="554" type="line"/>
      <point x="295" y="554" type="line"/>
      <point x="260" y="377" type="line"/>
      <point x="335" y="377" type="line" smooth="yes"/>
      <point x="459" y="377"/>
      <point x="536" y="330"/>
      <point x="536" y="231" type="curve" smooth="yes"/>
      <point x="536" y="95"/>
      <point x="412" y="0"/>
    </contour>
    <contour>
      <point x="210" y="120" type="line"/>
      <point x="321" y="120" type="line" smooth="yes"/>
      <point x="383" y="120"/>
      <point x="410" y="169"/>
      <point x="410" y="205" type="curve" smooth="yes"/>
      <point x="410" y="229"/>
      <point x="398" y="264"/>
      <point x="346" y="264" type="curve" smooth="yes"/>
      <point x="238" y="264" type="line"/>
    </contour>
  </outline>
</glyph>
<glyph name="afii10096" format="1">
  <advance width="854"/>
  <unicode hex="044E"/>
  <outline>
    <contour>
      <point x="229" y="213" type="line"/>
      <point x="187" y="0" type="line"/>
      <point x="54" y="0" type="line"/>
      <point x="162" y="554" type="line"/>
      <point x="295" y="554" type="line"/>
      <point x="254" y="344" type="line"/>
      <point x="316" y="344" type="line"/>
      <point x="372" y="471"/>
      <point x="506" y="567"/>
      <point x="644" y="567" type="curve" smooth="yes"/>
      <point x="791" y="567"/>
      <point x="889" y="467"/>
      <point x="889" y="331" type="curve" smooth="yes"/>
      <point x="889" y="135"/>
      <point x="698" y="-13"/>
      <point x="533" y="-13" type="curve" smooth="yes"/>
      <point x="394" y="-13"/>
      <point x="295" y="84"/>
      <point x="291" y="213" type="curve"/>
    </contour>
    <contour>
      <point x="622" y="445" type="curve" smooth="yes"/>
      <point x="528" y="445"/>
      <point x="426" y="356"/>
      <point x="426" y="244" type="curve" smooth="yes"/>
      <point x="426" y="166"/>
      <point x="478" y="109"/>
      <point x="557" y="109" type="curve" smooth="yes"/>
      <point x="650" y="109"/>
      <point x="753" y="200"/>
      <point x="753" y="310" type="curve" smooth="yes"/>
      <point x="753" y="387"/>
      <point x="700" y="445"/>
    </contour>
  </outline>
</glyph>
<glyph name="afii10097" format="1">
  <advance width="464"/>
  <unicode hex="044F"/>
  <outline>
    <contour>
      <point x="392" y="434" type="line"/>
      <point x="281" y="434" type="line" smooth="yes"/>
      <point x="219" y="434"/>
      <point x="192" y="385"/>
      <point x="192" y="349" type="curve" smooth="yes"/>
      <point x="192" y="325"/>
      <point x="204" y="290"/>
      <point x="256" y="290" type="curve" smooth="yes"/>
      <point x="364" y="290" type="line"/>
    </contour>
    <contour>
      <point x="177" y="187" type="line"/>
      <point x="107" y="206"/>
      <point x="66" y="251"/>
      <point x="66" y="323" type="curve" smooth="yes"/>
      <point x="66" y="461"/>
      <point x="191" y="554"/>
      <point x="340" y="554" type="curve" smooth="yes"/>
      <point x="548" y="554" type="line"/>
      <point x="440" y="0" type="line"/>
      <point x="307" y="0" type="line"/>
      <point x="342" y="177" type="line"/>
      <point x="303" y="177" type="line"/>
      <point x="123" y="0" type="line"/>
      <point x="-15" y="0" type="line"/>
    </contour>
  </outline>
</glyph>
